<svg width="48" height="48" viewBox="0 0 48 48" fill="none" xmlns="http://www.w3.org/2000/svg">
<g clip-path="url(#clip0_2551_7064)">
<path d="M46.7806 10.5917C46.0881 5.49961 41.6015 1.48668 36.2829 0.709076C35.3856 0.57768 31.9859 0.0994873 24.1104 0.0994873H24.0516C16.174 0.0994873 14.4839 0.57768 13.5867 0.709076C8.4162 1.46514 3.69444 5.07096 2.54884 10.2233C1.99783 12.7608 1.93902 15.5739 2.04138 18.1545C2.18731 21.8551 2.21562 25.5492 2.55538 29.2347C2.79026 31.6829 3.20001 34.1115 3.78156 36.5024C4.87053 40.9181 9.27868 44.5929 13.5975 46.0921C18.2215 47.6556 23.1942 47.9151 27.9589 46.8417C28.483 46.7211 29.0014 46.581 29.5139 46.4217C30.6704 46.0577 32.0273 45.6505 33.0248 44.9354C33.0384 44.9253 33.0497 44.9124 33.0576 44.8975C33.0655 44.8826 33.0699 44.866 33.0705 44.8492V41.2779C33.0702 41.2621 33.0665 41.2467 33.0594 41.2326C33.0523 41.2185 33.0421 41.2061 33.0296 41.1964C33.0171 41.1867 33.0025 41.1799 32.987 41.1764C32.9714 41.173 32.9553 41.1731 32.9398 41.1766C29.8871 41.8978 26.7589 42.2593 23.6204 42.2536C18.2191 42.2536 16.7664 39.7184 16.3504 38.6629C16.0161 37.7507 15.8037 36.7992 15.7188 35.8325C15.718 35.8163 15.721 35.8001 15.7276 35.7852C15.7343 35.7703 15.7444 35.7572 15.7571 35.747C15.7699 35.7367 15.7849 35.7295 15.8009 35.726C15.817 35.7225 15.8336 35.7229 15.8495 35.727C18.8513 36.4433 21.9285 36.8048 25.0165 36.804C25.7592 36.804 26.4996 36.804 27.2424 36.7846C30.3481 36.6984 33.6215 36.5412 36.6771 35.951C36.7534 35.9359 36.8296 35.923 36.895 35.9036C41.7147 34.9881 46.3015 32.1147 46.7675 24.8384C46.785 24.5519 46.8285 21.8378 46.8285 21.5406C46.8307 20.5303 47.1574 14.3742 46.7806 10.5917ZM39.3625 28.7479H34.2945V16.47C34.2945 13.8852 33.2055 12.567 30.9905 12.567C28.5556 12.567 27.336 14.1265 27.336 17.2067V23.9272H22.2984V17.2067C22.2984 14.1265 21.0766 12.567 18.6417 12.567C16.4397 12.567 15.3399 13.8852 15.3377 16.47V28.7479H10.274V16.0974C10.274 13.5126 10.9412 11.4591 12.2755 9.93686C13.652 8.4183 15.4575 7.63858 17.6986 7.63858C20.2925 7.63858 22.2527 8.62507 23.5594 10.596L24.8205 12.6898L26.0837 10.596C27.3904 8.62507 29.3506 7.63858 31.9402 7.63858C34.1791 7.63858 35.9846 8.4183 37.3654 9.93686C38.6998 11.4576 39.3669 13.5111 39.3669 16.0974L39.3625 28.7479Z" fill="black"/>
</g>
<defs>
<clipPath id="clip0_2551_7064">
<rect width="44.962" height="48" fill="white" transform="translate(2)"/>
</clipPath>
</defs>
</svg>
