<svg width="48" height="48" viewBox="0 0 48 48" fill="none" xmlns="http://www.w3.org/2000/svg">
<g clip-path="url(#clip0_1767_3177)">
<path d="M1.40467 1.09862V46.9014H4.69752V48H0.142456V0H4.69602V1.09862H1.40467ZM15.7096 15.6193V17.9366H15.7756C16.3527 17.0905 17.1162 16.3881 18.0073 15.8834C18.8778 15.3987 19.8759 15.1555 20.9985 15.1555C22.0791 15.1555 23.0652 15.3656 23.9582 15.7859C24.8512 16.2046 25.5296 16.943 25.9918 18.0026C26.4991 17.2522 27.1865 16.5903 28.0585 16.017C28.929 15.4422 29.9586 15.1555 31.1502 15.1555C32.0537 15.1555 32.8912 15.2666 33.6627 15.4857C34.4341 15.7078 35.0945 16.0605 35.6468 16.5468C36.1961 17.0316 36.6268 17.6664 36.936 18.4499C37.2437 19.2333 37.3983 20.1759 37.3983 21.282V32.7379H32.7051V23.0365C32.7051 22.4616 32.6826 21.9213 32.6391 21.4125C32.6076 20.9515 32.4841 20.5014 32.2759 20.0888C32.076 19.7124 31.7717 19.4017 31.3994 19.1943C31.0137 18.9752 30.4899 18.8641 29.828 18.8641C29.1676 18.8641 28.6333 18.9917 28.2251 19.2438C27.8169 19.499 27.4972 19.8292 27.2661 20.2374C27.0272 20.6686 26.8705 21.1403 26.8038 21.6287C26.7258 22.1493 26.6867 22.6751 26.6867 23.2015V32.7379H21.9921V23.1355C21.9921 22.6282 21.9816 22.1254 21.9606 21.6287C21.9435 21.1579 21.8482 20.6933 21.6784 20.2539C21.5164 19.8387 21.2275 19.4853 20.8529 19.2438C20.4657 18.9917 19.8984 18.8641 19.1495 18.8641C18.8521 18.8766 18.5576 18.9271 18.273 19.0142C17.8852 19.1259 17.5249 19.3171 17.2149 19.5755C16.8727 19.8517 16.5815 20.2494 16.3384 20.7672C16.0968 21.2865 15.9752 21.9649 15.9752 22.8038V32.7379H11.2791V15.6193H15.7096ZM46.7417 46.9014V1.09862H43.4488V0H48.0039V48H43.4488V46.9014H46.7417Z" fill="black"/>
</g>
<defs>
<clipPath id="clip0_1767_3177">
<rect width="48" height="48" fill="white"/>
</clipPath>
</defs>
</svg>
