<svg width="24" height="24" viewBox="0 0 24 24" fill="none" xmlns="http://www.w3.org/2000/svg">
<path d="M6 14.5C6 15.6061 5.10606 16.5 4 16.5C2.89394 16.5 2 15.6061 2 14.5C2 13.3939 2.89394 12.5 4 12.5H6V14.5Z" fill="black"/>
<path d="M7.5 14.6111C7.5 13.4436 8.39394 12.5 9.5 12.5C10.6061 12.5 11.5 13.4436 11.5 14.6111V19.8889C11.5 21.0564 10.6061 22 9.5 22C8.39394 22 7.5 21.0564 7.5 19.8889V14.6111Z" fill="black"/>
<path d="M9.5 6C8.39394 6 7.5 5.10606 7.5 4C7.5 2.89394 8.39394 2 9.5 2C10.6061 2 11.5 2.89394 11.5 4V6H9.5Z" fill="black"/>
<path d="M9.39244 7.5C10.558 7.5 11.5 8.39394 11.5 9.5C11.5 10.6061 10.558 11.5 9.39244 11.5H4.10756C2.94202 11.5 2 10.6061 2 9.5C2 8.39394 2.94202 7.5 4.10756 7.5H9.39244Z" fill="black"/>
<path d="M18 9.5C18 8.39394 18.8939 7.5 20 7.5C21.1061 7.5 22 8.39394 22 9.5C22 10.6061 21.1061 11.5 20 11.5H18V9.5Z" fill="black"/>
<path d="M16.5 9.39244C16.5 10.558 15.6061 11.5 14.5 11.5C13.3939 11.5 12.5 10.558 12.5 9.39244V4.10756C12.5 2.94202 13.3939 2 14.5 2C15.6061 2 16.5 2.94202 16.5 4.10756V9.39244Z" fill="black"/>
<path d="M14.5 18C15.6061 18 16.5 18.8939 16.5 20C16.5 21.1061 15.6061 22 14.5 22C13.3939 22 12.5 21.1061 12.5 20V18H14.5Z" fill="black"/>
<path d="M14.6076 16.5C13.442 16.5 12.5 15.6061 12.5 14.5C12.5 13.3939 13.442 12.5 14.6076 12.5H19.8924C21.058 12.5 22 13.3939 22 14.5C22 15.6061 21.058 16.5 19.8924 16.5H14.6076Z" fill="black"/>
</svg>
