<svg width="256" height="48" viewBox="0 0 256 48" fill="none" xmlns="http://www.w3.org/2000/svg">
<g clip-path="url(#clip0_1467_3148)">
<path d="M65.4551 12.9184V12.7H65.1852L49.928 0.609863V13.5608H45.5275V0.609863H30.0005V26.2291H39.7009V42.7712H35.8207V33.9637V29.6082H30.0005H25.2338V0.609863H19.4072V35.801L15.527 32.7239V0.609863H9.7068V28.1114L5.82023 25.0343V0.609863H0V26.9486L9.7068 34.6383V34.8503H9.97661L25.2338 46.9468V33.9637H30.0005V47.3901H45.5275V21.6102H35.8207V5.22236H39.7009V13.5608V17.8971H45.5275H49.928V46.9468H55.7547V11.7492L59.6348 14.8264V46.9468H65.4551V19.4389L69.3416 22.516V46.9468H75.1619V20.6081L65.4551 12.9184Z" fill="#848484"/>
<path d="M88.9736 19.0469H92.5005L96.22 31.4132H96.2907L100.254 19.0469H103.608L107.803 31.4132H107.873L111.4 19.0469H114.754L109.409 35.6018H106.229L101.841 23.2354H101.77L97.7746 35.6018H94.4213L88.9736 19.0469Z" fill="#848484"/>
<path d="M116.983 13.1109C116.983 12.4814 117.208 11.9418 117.664 11.4856C118.12 11.0295 118.659 10.8047 119.289 10.8047C119.919 10.8047 120.458 11.0295 120.914 11.4856C121.37 11.9418 121.595 12.4814 121.595 13.1109C121.595 13.7405 121.37 14.2801 120.914 14.7362C120.458 15.1923 119.919 15.4172 119.289 15.4172C118.659 15.4172 118.12 15.1923 117.664 14.7362C117.208 14.2801 116.983 13.7405 116.983 13.1109ZM117.715 19.0468H120.856V35.6017H117.715V19.0468Z" fill="#848484"/>
<path d="M142.448 35.6017H139.306V33.2248H139.236C138.632 34.1114 137.797 34.7987 136.737 35.287C135.677 35.7752 134.591 36.0193 133.473 36.0193C132.195 36.0193 131.032 35.7945 129.998 35.3576C128.964 34.9144 128.077 34.2977 127.345 33.5075C126.612 32.7173 126.047 31.7987 125.649 30.7451C125.25 29.698 125.058 28.5545 125.058 27.3211C125.058 26.0877 125.257 24.9378 125.649 23.8778C126.047 22.8178 126.606 21.8992 127.345 21.1154C128.084 20.3317 128.964 19.7214 129.998 19.2846C131.032 18.8413 132.195 18.6229 133.473 18.6229C134.662 18.6229 135.78 18.8734 136.827 19.3745C137.874 19.8756 138.677 20.5565 139.236 21.4174H139.306V9.19873H142.448V35.6017ZM133.859 33.0899C134.694 33.0899 135.452 32.9422 136.126 32.6531C136.801 32.364 137.373 31.9657 137.835 31.4646C138.298 30.9635 138.664 30.3597 138.921 29.6466C139.178 28.9335 139.306 28.1626 139.306 27.3211C139.306 26.4795 139.178 25.7086 138.921 24.9956C138.664 24.2889 138.304 23.6786 137.835 23.1776C137.366 22.6765 136.801 22.2782 136.126 21.9891C135.452 21.7 134.694 21.5523 133.859 21.5523C133.024 21.5523 132.266 21.7 131.591 21.9891C130.917 22.2782 130.345 22.6765 129.882 23.1776C129.42 23.6786 129.054 24.2825 128.797 24.9956C128.54 25.7086 128.411 26.4795 128.411 27.3211C128.411 28.1626 128.54 28.9335 128.797 29.6466C129.054 30.3597 129.413 30.9635 129.882 31.4646C130.351 31.9657 130.917 32.364 131.591 32.6531C132.266 32.9422 133.024 33.0899 133.859 33.0899Z" fill="#848484"/>
<path d="M149.572 28.4776C149.572 29.1971 149.726 29.8588 150.041 30.4498C150.356 31.0408 150.767 31.5483 151.281 31.9659C151.795 32.3834 152.386 32.7111 153.06 32.9423C153.735 33.1736 154.435 33.2892 155.155 33.2892C156.131 33.2892 156.985 33.0644 157.705 32.6083C158.424 32.1522 159.093 31.5547 159.696 30.8095L162.073 32.6276C160.326 34.8824 157.878 36.0131 154.737 36.0131C153.433 36.0131 152.251 35.7882 151.191 35.3514C150.131 34.9081 149.238 34.2978 148.499 33.5205C147.767 32.7432 147.202 31.8181 146.803 30.7646C146.405 29.7046 146.212 28.5611 146.212 27.3213C146.212 26.0814 146.424 24.9379 146.861 23.878C147.292 22.818 147.883 21.8993 148.641 21.1156C149.399 20.3383 150.298 19.7216 151.345 19.2847C152.392 18.8415 153.536 18.623 154.769 18.623C156.234 18.623 157.474 18.88 158.489 19.3939C159.504 19.9079 160.332 20.576 160.988 21.4047C161.637 22.2334 162.112 23.1649 162.401 24.1992C162.69 25.2334 162.838 26.287 162.838 27.3598V28.4776H149.566H149.572ZM159.491 25.9658C159.465 25.2656 159.356 24.6296 159.157 24.045C158.958 23.4604 158.662 22.9593 158.264 22.5225C157.866 22.0921 157.371 21.7516 156.78 21.5075C156.189 21.2633 155.495 21.1413 154.705 21.1413C153.915 21.1413 153.234 21.289 152.591 21.5781C151.949 21.8672 151.409 22.2462 150.966 22.7152C150.523 23.1841 150.182 23.6981 149.938 24.2698C149.694 24.8416 149.572 25.4069 149.572 25.9658H159.491Z" fill="#848484"/>
<path d="M168.292 31.028C168.896 32.0751 169.686 32.8525 170.65 33.3664C171.613 33.8803 172.718 34.1373 173.952 34.1373C174.722 34.1373 175.442 34.0217 176.116 33.7904C176.791 33.5591 177.382 33.2315 177.883 32.8139C178.384 32.3964 178.782 31.8889 179.072 31.2978C179.361 30.7004 179.508 30.0323 179.508 29.2871C179.508 28.4263 179.328 27.7196 178.969 27.1543C178.609 26.5954 178.127 26.1329 177.517 25.7731C176.913 25.4134 176.232 25.105 175.474 24.848C174.716 24.5911 173.939 24.3341 173.136 24.0772C172.333 23.8202 171.555 23.5311 170.797 23.2035C170.039 22.8759 169.358 22.4519 168.754 21.9315C168.151 21.4112 167.669 20.7495 167.303 19.9593C166.943 19.1692 166.763 18.1927 166.763 17.0235C166.763 15.9314 166.981 14.955 167.412 14.107C167.842 13.259 168.427 12.5459 169.159 11.9742C169.891 11.4024 170.733 10.972 171.69 10.6829C172.647 10.3938 173.643 10.2461 174.69 10.2461C176.039 10.2461 177.292 10.4838 178.448 10.9592C179.598 11.4346 180.594 12.2311 181.436 13.3489L179.444 14.7815C178.86 13.9656 178.179 13.3554 177.401 12.9506C176.618 12.5459 175.692 12.3403 174.626 12.3403C173.881 12.3403 173.168 12.4367 172.493 12.6359C171.819 12.835 171.228 13.1241 170.727 13.5095C170.226 13.895 169.821 14.3768 169.519 14.9614C169.217 15.546 169.063 16.2333 169.063 17.0235C169.063 18.2569 169.378 19.2077 170.007 19.8694C170.637 20.5311 171.42 21.0578 172.365 21.4433C173.309 21.8287 174.331 22.1628 175.435 22.4583C176.54 22.7474 177.568 23.1392 178.506 23.6275C179.451 24.1157 180.234 24.7967 180.864 25.6703C181.493 26.544 181.808 27.7517 181.808 29.2871C181.808 30.4049 181.596 31.3942 181.179 32.255C180.761 33.1159 180.196 33.8418 179.483 34.4392C178.77 35.0302 177.954 35.4799 177.022 35.7819C176.091 36.0838 175.127 36.238 174.125 36.238C172.493 36.238 170.99 35.9489 169.622 35.3836C168.247 34.8118 167.071 33.8546 166.095 32.4991L168.298 31.0344L168.292 31.028Z" fill="#848484"/>
<path d="M194.354 21.3532H189.742V31.8694C189.742 32.5889 189.941 33.1478 190.333 33.5461C190.731 33.9444 191.277 34.1371 191.978 34.1371C192.376 34.1371 192.774 34.0857 193.185 33.983C193.59 33.8738 193.982 33.7453 194.354 33.5782L194.528 35.4669C194.13 35.6083 193.68 35.7367 193.166 35.8524C192.652 35.968 192.202 36.0258 191.804 36.0258C191.059 36.0258 190.416 35.9166 189.883 35.6918C189.35 35.4669 188.92 35.1714 188.592 34.7988C188.264 34.4262 188.027 33.9894 187.879 33.4883C187.725 32.9872 187.654 32.4476 187.654 31.863V21.3468H184.159V19.4581H187.654V14.8135H189.748V19.4581H194.361V21.3468L194.354 21.3532Z" fill="#848484"/>
<path d="M198.087 24.0063C198.087 23.7043 198.074 23.3382 198.055 22.9078C198.029 22.4773 198.016 22.0405 198.003 21.5972C197.99 21.154 197.971 20.7428 197.952 20.3574C197.926 19.9719 197.92 19.6764 197.92 19.4644H200.014C200.04 20.0683 200.053 20.6529 200.065 21.2118C200.078 21.7707 200.104 22.1304 200.155 22.291C200.689 21.3339 201.376 20.5565 202.218 19.9527C203.053 19.3488 204.081 19.0469 205.288 19.0469C205.5 19.0469 205.699 19.0661 205.899 19.0983C206.098 19.1304 206.303 19.1754 206.509 19.2203L206.265 21.2825C205.988 21.1925 205.719 21.1411 205.462 21.1411C204.556 21.1411 203.766 21.2889 203.104 21.578C202.442 21.867 201.896 22.2718 201.459 22.7793C201.029 23.2932 200.708 23.8906 200.502 24.578C200.29 25.2654 200.188 26.0042 200.188 26.7943V35.5953H198.093V23.9998L198.087 24.0063Z" fill="#848484"/>
<path d="M223.34 32.5632C222.524 33.7967 221.515 34.6832 220.321 35.2164C219.119 35.7496 217.802 36.0194 216.357 36.0194C215.124 36.0194 214.006 35.8138 213.004 35.3898C212.001 34.9723 211.141 34.3813 210.421 33.6296C209.702 32.8716 209.149 31.9786 208.764 30.9379C208.378 29.9037 208.186 28.7537 208.186 27.4946C208.186 26.2355 208.385 25.1691 208.777 24.1413C209.175 23.1134 209.734 22.2269 210.453 21.4688C211.173 20.7108 212.027 20.1198 213.004 19.6894C213.98 19.2589 215.066 19.0405 216.254 19.0405C217.443 19.0405 218.573 19.2589 219.518 19.6894C220.462 20.1198 221.252 20.6915 221.895 21.4046C222.537 22.1177 223.019 22.9207 223.346 23.8329C223.674 24.7387 223.835 25.6638 223.835 26.5953V28.0599H210.28C210.28 28.5032 210.37 29.0685 210.543 29.7559C210.717 30.4433 211.038 31.1114 211.507 31.7666C211.969 32.4155 212.592 32.9744 213.376 33.4433C214.153 33.9059 215.162 34.1436 216.395 34.1436C217.468 34.1436 218.503 33.8866 219.505 33.3727C220.507 32.8587 221.271 32.1649 221.811 31.2784L223.346 32.5697L223.34 32.5632ZM221.734 26.1713C221.734 25.4518 221.586 24.7708 221.297 24.1477C221.008 23.5181 220.61 22.9656 220.109 22.4903C219.608 22.0149 219.017 21.6359 218.329 21.3532C217.642 21.0705 216.916 20.9356 216.145 20.9356C215.001 20.9356 214.057 21.1669 213.299 21.6359C212.541 22.0984 211.944 22.638 211.5 23.2419C211.057 23.8457 210.742 24.4368 210.556 25.0021C210.37 25.5738 210.28 25.9657 210.28 26.1713H221.734Z" fill="#848484"/>
<path d="M242.76 32.5632C241.944 33.7967 240.936 34.6832 239.741 35.2164C238.539 35.7496 237.222 36.0194 235.777 36.0194C234.544 36.0194 233.426 35.8138 232.424 35.3898C231.421 34.9723 230.561 34.3813 229.841 33.6296C229.122 32.8716 228.569 31.9786 228.184 30.9379C227.798 29.9037 227.606 28.7537 227.606 27.4946C227.606 26.2355 227.805 25.1691 228.197 24.1413C228.595 23.1134 229.154 22.2269 229.873 21.4688C230.593 20.7108 231.447 20.1198 232.424 19.6894C233.4 19.2589 234.486 19.0405 235.674 19.0405C236.863 19.0405 238 19.2589 238.938 19.6894C239.882 20.1198 240.672 20.6915 241.315 21.4046C241.957 22.1177 242.439 22.9207 242.766 23.8329C243.094 24.7387 243.255 25.6638 243.255 26.5953V28.0599H229.7C229.7 28.5032 229.79 29.0685 229.963 29.7559C230.137 30.4433 230.458 31.1114 230.927 31.7666C231.389 32.4155 232.012 32.9744 232.796 33.4433C233.574 33.9059 234.582 34.1436 235.816 34.1436C236.888 34.1436 237.923 33.8866 238.925 33.3727C239.927 32.8587 240.691 32.1649 241.231 31.2784L242.766 32.5697L242.76 32.5632ZM241.154 26.1713C241.154 25.4518 241.006 24.7708 240.717 24.1477C240.428 23.5181 240.03 22.9656 239.529 22.4903C239.028 22.0149 238.437 21.6359 237.749 21.3532C237.062 21.0705 236.336 20.9356 235.565 20.9356C234.421 20.9356 233.477 21.1669 232.719 21.6359C231.961 22.0984 231.364 22.638 230.92 23.2419C230.477 23.8457 230.162 24.4368 229.976 25.0021C229.79 25.5738 229.7 25.9657 229.7 26.1713H241.154Z" fill="#848484"/>
<path d="M255.827 21.3532H251.214V31.8694C251.214 32.5889 251.413 33.1478 251.805 33.5461C252.203 33.9444 252.749 34.1371 253.45 34.1371C253.848 34.1371 254.246 34.0857 254.657 33.983C255.062 33.8738 255.454 33.7453 255.827 33.5782L256 35.4669C255.602 35.6083 255.152 35.7367 254.638 35.8524C254.124 35.968 253.674 36.0258 253.276 36.0258C252.531 36.0258 251.889 35.9166 251.355 35.6918C250.822 35.4669 250.392 35.1714 250.064 34.7988C249.737 34.4262 249.499 33.9894 249.351 33.4883C249.197 32.9872 249.126 32.4476 249.126 31.863V21.3468H245.632V19.4581H249.126V14.8135H251.22V19.4581H255.833V21.3468L255.827 21.3532Z" fill="#848484"/>
</g>
<defs>
<clipPath id="clip0_1467_3148">
<rect width="256" height="46.7802" fill="white" transform="translate(0 0.609863)"/>
</clipPath>
</defs>
</svg>
