<svg width="72" height="72" viewBox="0 0 72 72" fill="none" xmlns="http://www.w3.org/2000/svg">
<path d="M54.7371 72C52.8207 71.9921 50.9858 71.2235 49.6357 69.8633C48.2857 68.5032 47.5309 66.6626 47.5373 64.7461V58.7732C47.5373 58.0273 47.8336 57.312 48.361 56.7845C48.8884 56.2571 49.6038 55.9608 50.3497 55.9608C51.0956 55.9608 51.811 56.2571 52.3384 56.7845C52.8659 57.312 53.1622 58.0273 53.1622 58.7732V64.7461C53.149 65.0656 53.2351 65.3813 53.4086 65.6499C53.5821 65.9185 53.8345 66.1268 54.1311 66.2461C54.4121 66.3659 54.7229 66.397 55.0221 66.3353C55.3212 66.2737 55.5944 66.1222 55.8051 65.9011L64.679 57.1053C65.2186 56.5688 65.6468 55.931 65.939 55.2285C66.2312 54.526 66.3816 53.7727 66.3816 53.0118C66.3816 52.251 66.2312 51.4976 65.939 50.7951C65.6468 50.0926 65.2186 49.4548 64.679 48.9184L55.7961 40.1195C55.5854 39.8984 55.3122 39.7469 55.0131 39.6853C54.7139 39.6236 54.4031 39.6548 54.1221 39.7745C53.8255 39.8939 53.5731 40.1021 53.3996 40.3707C53.2261 40.6393 53.14 40.955 53.1532 41.2745V47.5294C53.1532 48.2749 52.857 48.9899 52.3299 49.5171C51.8027 50.0442 51.0877 50.3404 50.3422 50.3404H16.8748C16.1289 50.3404 15.4135 50.6367 14.8861 51.1641C14.3586 51.6916 14.0623 52.4069 14.0623 53.1528C14.0623 53.8987 14.3586 54.6141 14.8861 55.1415C15.4135 55.669 16.1289 55.9653 16.8748 55.9653H21.3747C22.1206 55.9653 22.836 56.2616 23.3634 56.789C23.8908 57.3165 24.1871 58.0318 24.1871 58.7777C24.1871 59.5236 23.8908 60.239 23.3634 60.7664C22.836 61.2939 22.1206 61.5902 21.3747 61.5902H16.8748C14.637 61.5902 12.491 60.7012 10.9087 59.1189C9.32635 57.5366 8.43741 55.3905 8.43741 53.1528C8.43741 50.9151 9.32635 48.769 10.9087 47.1867C12.491 45.6044 14.637 44.7155 16.8748 44.7155H47.5283V41.2685C47.5202 39.8401 47.9372 38.4416 48.7262 37.2508C49.5152 36.0601 50.6406 35.131 51.9592 34.5816C53.2637 34.025 54.7056 33.8743 56.097 34.1494C57.4883 34.4244 58.7645 35.1124 59.7591 36.1236L68.6329 44.9195C69.6996 45.979 70.5461 47.2391 71.1238 48.6272C71.7015 50.0152 71.9989 51.5038 71.9989 53.0073C71.9989 54.5108 71.7015 55.9994 71.1238 57.3875C70.5461 58.7756 69.6996 60.0356 68.6329 61.0952L59.7561 69.9C59.0986 70.5628 58.3169 71.0894 57.4557 71.4498C56.5945 71.8101 55.6707 71.9971 54.7371 72ZM42.4643 58.7732C42.4643 58.0277 42.1682 57.3127 41.641 56.7856C41.1139 56.2584 40.3989 55.9623 39.6534 55.9623H32.0665C31.3206 55.9623 30.6052 56.2586 30.0778 56.786C29.5504 57.3135 29.2541 58.0288 29.2541 58.7747C29.2541 59.5206 29.5504 60.236 30.0778 60.7634C30.6052 61.2909 31.3206 61.5872 32.0665 61.5872H39.6594C40.0285 61.5868 40.394 61.5137 40.7349 61.3721C41.0758 61.2304 41.3854 61.023 41.6462 60.7617C41.9069 60.5004 42.1136 60.1903 42.2545 59.8492C42.3954 59.508 42.4677 59.1424 42.4673 58.7732H42.4643ZM20.1417 37.3896C21.4709 36.8548 22.608 35.9319 23.4048 34.7412C24.2016 33.5505 24.6211 32.1473 24.6086 30.7147V27.5557H55.1211C57.3589 27.5557 59.5049 26.6668 61.0872 25.0845C62.6696 23.5022 63.5585 21.3561 63.5585 19.1184C63.5585 16.8807 62.6696 14.7346 61.0872 13.1523C59.5049 11.57 57.3589 10.681 55.1211 10.681H24.6086V7.24009C24.6211 5.80744 24.2016 4.40428 23.4048 3.2136C22.608 2.02292 21.4709 1.1 20.1417 0.565201C18.8205 0.00993996 17.3643 -0.140503 15.9575 0.132948C14.5507 0.406399 13.2568 1.09143 12.2398 2.10118L3.366 10.891C2.29932 11.9506 1.45277 13.2107 0.875087 14.5987C0.297404 15.9868 0 17.4754 0 18.9789C0 20.4824 0.297404 21.971 0.875087 23.3591C1.45277 24.7471 2.29932 26.0072 3.366 27.0668L12.2398 35.8626C12.9102 36.5306 13.7057 37.06 14.5808 37.4203C15.4558 37.7806 16.3934 37.9649 17.3398 37.9626C18.3024 37.9578 19.2545 37.7631 20.1417 37.3896ZM17.9668 5.75811C18.2657 5.87278 18.5223 6.07631 18.702 6.34129C18.8816 6.60627 18.9758 6.91996 18.9717 7.24009V13.501C18.9717 14.2465 19.2679 14.9615 19.795 15.4886C20.3222 16.0158 21.0372 16.3119 21.7827 16.3119H55.1211C55.867 16.3119 56.5824 16.6082 57.1098 17.1357C57.6373 17.6631 57.9336 18.3785 57.9336 19.1244C57.9336 19.8703 57.6373 20.5857 57.1098 21.1131C56.5824 21.6405 55.867 21.9368 55.1211 21.9368H21.7947C21.0492 21.9368 20.3342 22.233 19.807 22.7601C19.2799 23.2873 18.9837 24.0023 18.9837 24.7478V30.7207C18.9769 31.0401 18.8771 31.3507 18.6966 31.6143C18.5161 31.8779 18.2627 32.0833 17.9673 32.2052C17.672 32.327 17.3475 32.3602 17.0336 32.3007C16.7197 32.2411 16.4299 32.0913 16.1998 31.8697L7.32593 23.0708C6.78633 22.5344 6.35811 21.8966 6.06591 21.1941C5.7737 20.4916 5.62327 19.7382 5.62327 18.9774C5.62327 18.2165 5.7737 17.4632 6.06591 16.7607C6.35811 16.0582 6.78633 15.4204 7.32593 14.884L16.1998 6.08811C16.342 5.93933 16.5128 5.82089 16.7021 5.73994C16.8913 5.65899 17.095 5.61721 17.3008 5.61712C17.5297 5.62133 17.7557 5.66918 17.9668 5.75811Z" fill="#0C8CE0"/>
</svg>
