<?xml version="1.0" encoding="utf-8"?>
<!-- Generator: Adobe Illustrator 27.0.0, SVG Export Plug-In . SVG Version: 6.00 Build 0)  -->
<svg version="1.2" baseProfile="tiny" id="Layer_1" xmlns="http://www.w3.org/2000/svg" xmlns:xlink="http://www.w3.org/1999/xlink"
	 x="0px" y="0px" viewBox="0 0 1920 1080" overflow="visible" xml:space="preserve">
<g id="Layer_1_00000078759510522448670450000013251091756950555014_">
	<polyline fill="none" stroke="#58C9ED" stroke-width="1.5" stroke-miterlimit="10" points="2081.25,733.83 2252.65,623.23 
		1872.83,505.39 	"/>
	<path fill="none" stroke="#58C9ED" stroke-width="1.5" stroke-miterlimit="10" d="M1287.23,547.21
		c-5.53,3.91,460.14-1.66,460.14-1.66"/>
	<line fill="none" stroke="#58C9ED" stroke-width="1.5" stroke-miterlimit="10" x1="951.08" y1="762.54" x2="1213.52" y2="584.66"/>
	<path fill="none" stroke="#58C9ED" stroke-width="1.5" stroke-miterlimit="10" d="M2092.81,863.78l186.12-107.75
		c12.75-7.37,27.58-10.31,42.17-8.34l96.89,13.07c22.21,3,44.43-5.4,59.1-22.34l168.71-194.76"/>
	<path fill="none" stroke="#58C9ED" stroke-width="1.5" stroke-miterlimit="10" d="M1287.24,547.21"/>
	<path fill="none" stroke="#58C9ED" stroke-width="1.5" stroke-miterlimit="10" d="M1320.48,605.09h147.04
		c10.57,0,20.71,4.2,28.18,11.67l17.5,17.5c7.47,7.47,17.61,11.67,28.18,11.67h166.43"/>
	<path fill="none" stroke="#58C9ED" stroke-width="1.5" stroke-miterlimit="10" d="M1213.53,584.66h266.2
		c10.57,0,20.71,4.2,28.18,11.67l17.5,17.5c7.47,7.47,17.61,11.67,28.18,11.67h154.22"/>
	<path fill="none" stroke="#58C9ED" stroke-width="1.5" stroke-miterlimit="10" d="M2629.07,346.41h-97.18
		c-13.38,0-26.21-5.31-35.67-14.77l-48-48c-9.46-9.46-22.29-14.77-35.67-14.77h-63.93"/>
	<path fill="none" stroke="#58C9ED" stroke-width="1.5" stroke-miterlimit="10" d="M1641.61,285.52h96.4
		c10.53,0,20.65-4.08,28.23-11.38l131.17-126.31c7.58-7.3,17.7-11.38,28.23-11.38h58.29"/>
	<path fill="none" stroke="#58C9ED" stroke-width="1.5" stroke-miterlimit="10" d="M2635.72,331.17l-105.73-105.72
		c-9.19-9.19-21.65-14.35-34.65-14.35h-60.33c-12.99,0-25.46-5.16-34.65-14.35l-74.98-74.98c-9.19-9.19-21.65-14.35-34.65-14.35
		h-237.05"/>
</g>
<g id="Layer_4">
	<path fill="none" stroke="#58C9ED" stroke-width="1.5" stroke-miterlimit="10" d="M1543.02,285.52v16.11
		c0,4.09-1.39,8.06-3.93,11.27l-1.22,1.53c-2.55,3.21-3.93,7.18-3.93,11.27v24.45"/>
	<path fill="none" stroke="#58C9ED" stroke-width="1.5" stroke-miterlimit="10" d="M1743.01,540.22l-32.46-37.31
		c-6.23-7.16-15.26-11.27-24.75-11.27h-51.46c-8.7,0-17.05-3.46-23.2-9.61L1595.11,466c-6.15-6.16-9.61-14.5-9.61-23.2v-28.95"/>
	<path fill="none" stroke="#58C9ED" stroke-width="1.5" stroke-miterlimit="10" d="M2249.92,617.01l-23.56-35.31
		c-3.6-5.4-9.66-8.64-16.15-8.64h-35.18c-5.14,0-10.08-2.04-13.72-5.68l-18.05-18.05c-3.64-3.64-5.68-8.57-5.68-13.72V502.7"/>
	<path fill="none" stroke="#58C9ED" stroke-width="1.5" stroke-miterlimit="10" d="M2266.09,618.23l-30.51-45.74
		c-3.6-5.4-9.66-8.64-16.15-8.64h-35.18c-5.14,0-10.08-2.04-13.72-5.68l-18.05-18.05c-3.64-3.64-5.68-8.57-5.68-13.72v-32.91"/>
	<path fill="none" stroke="#58C9ED" stroke-width="1.5" stroke-miterlimit="10" d="M2053.68,107.42l69.25,71.04
		c4.77,4.89,11.3,7.65,18.13,7.65h24.83c7.27,0,14.11,3.48,18.39,9.37l55.85,76.84"/>
	<path fill="none" stroke="#58C9ED" stroke-width="1.5" stroke-miterlimit="10" d="M2394.78,356.31l57.92,57.92
		c5.09,5.09,12,7.95,19.2,7.95h48.11c7.2,0,14.11,2.86,19.2,7.95l48.24,48.24"/>
</g>
<g id="Layer_2_00000093140974101999716130000006984333458858651542_">
	<g>
		<g>
			
				<line fill="none" stroke="#58C9ED" stroke-width="1.5" stroke-miterlimit="10" x1="2021.57" y1="763.86" x2="2037.43" y2="812.4"/>
			
				<line fill="none" stroke="#58C9ED" stroke-width="1.5" stroke-miterlimit="10" x1="2081.25" y1="733.83" x2="2037.43" y2="812.4"/>
			
				<line fill="none" stroke="#58C9ED" stroke-width="1.5" stroke-miterlimit="10" x1="2037.43" y1="812.4" x2="2150.18" y2="779.13"/>
			
				<line fill="none" stroke="#58C9ED" stroke-width="1.5" stroke-miterlimit="10" x1="2092.82" y1="863.78" x2="2037.43" y2="812.4"/>
			<polyline fill="none" stroke="#58C9ED" stroke-width="1.5" stroke-miterlimit="10" points="1239.66,901.54 1359.03,877.37 
				1464.79,738.36 1267.59,639.07 1320.48,606.18 			"/>
			<polyline fill="none" stroke="#58C9ED" stroke-width="1.5" stroke-miterlimit="10" points="1464.79,738.36 1774.53,986.16 
				1864.95,987.63 			"/>
			<polyline fill="none" stroke="#58C9ED" stroke-width="1.5" stroke-miterlimit="10" points="1773.94,1061.71 1774.53,986.16 
				1875.13,1046.97 			"/>
			<polyline fill="none" stroke="#58C9ED" stroke-width="1.5" stroke-miterlimit="10" points="2037.43,812.4 1464.79,738.36 
				1715.61,646.2 1805.81,655.12 			"/>
			<path fill="none" stroke="#58C9ED" stroke-width="1.5" stroke-miterlimit="10" d="M1731.12,602.25l-15.5,43.95l71.81-78.43
				l88.21,27.7c15.29,4.81,26.71,17.62,29.73,33.37l9.01,47.02c2.26,11.84,9.34,22.21,19.53,28.64l82.37,51.99"/>
			
				<line fill="none" stroke="#58C9ED" stroke-width="1.5" stroke-miterlimit="10" x1="1213.52" y1="584.66" x2="1267.59" y2="639.07"/>
			<polyline fill="none" stroke="#58C9ED" stroke-width="1.5" stroke-miterlimit="10" points="1395.29,942.34 1359.03,877.37 
				1297.08,972.56 			"/>
			<polyline fill="none" stroke="#58C9ED" stroke-width="1.5" stroke-miterlimit="10" points="951.08,762.54 1021.28,814.88 
				1464.79,738.36 			"/>
			<polyline fill="none" stroke="#58C9ED" stroke-width="1.5" stroke-miterlimit="10" points="999.43,951.4 1021.28,814.88 
				893.66,812.4 905.75,877.37 			"/>
		</g>
		<g>
			<circle fill="#FFFFFF" stroke="#3170B7" stroke-width="1.5" stroke-miterlimit="10" cx="1464.79" cy="738.36" r="37.77"/>
			<circle fill="#FFFFFF" stroke="#3170B7" stroke-width="1.5" stroke-miterlimit="10" cx="1359.03" cy="877.37" r="16.62"/>
			<circle fill="#FFFFFF" stroke="#3170B7" stroke-width="1.5" stroke-miterlimit="10" cx="1395.29" cy="942.34" r="9.07"/>
			<circle fill="#FFFFFF" stroke="#3170B7" stroke-width="1.5" stroke-miterlimit="10" cx="1297.08" cy="972.56" r="9.07"/>
			<circle fill="#FFFFFF" stroke="#3170B7" stroke-width="1.5" stroke-miterlimit="10" cx="1239.66" cy="901.54" r="9.07"/>
			<circle fill="#FFFFFF" stroke="#3170B7" stroke-width="1.5" stroke-miterlimit="10" cx="1021.28" cy="814.88" r="16.62"/>
			<circle fill="#FFFFFF" stroke="#3170B7" stroke-width="1.5" stroke-miterlimit="10" cx="999.43" cy="951.4" r="9.07"/>
			<circle fill="#FFFFFF" stroke="#3170B7" stroke-width="1.5" stroke-miterlimit="10" cx="905.75" cy="877.37" r="9.07"/>
			<circle fill="#FFFFFF" stroke="#3170B7" stroke-width="1.5" stroke-miterlimit="10" cx="893.66" cy="812.4" r="9.07"/>
			<circle fill="#FFFFFF" stroke="#3170B7" stroke-width="1.5" stroke-miterlimit="10" cx="951.08" cy="762.54" r="9.07"/>
			<circle fill="#FFFFFF" stroke="#3170B7" stroke-width="1.5" stroke-miterlimit="10" cx="1716.16" cy="645.93" r="12.64"/>
			<circle fill="#FFFFFF" stroke="#3170B7" stroke-width="1.5" stroke-miterlimit="10" cx="1805.81" cy="655.12" r="6.9"/>
			<circle fill="#FFFFFF" stroke="#3170B7" stroke-width="1.5" stroke-miterlimit="10" cx="1774.53" cy="986.16" r="16.62"/>
			<circle fill="#FFFFFF" stroke="#3170B7" stroke-width="1.5" stroke-miterlimit="10" cx="1864.95" cy="987.63" r="9.07"/>
			<circle fill="#FFFFFF" stroke="#3170B7" stroke-width="1.5" stroke-miterlimit="10" cx="1875.13" cy="1046.97" r="9.07"/>
			<circle fill="#FFFFFF" stroke="#3170B7" stroke-width="1.5" stroke-miterlimit="10" cx="1773.94" cy="1061.71" r="9.07"/>
			<circle fill="#FFFFFF" stroke="#3170B7" stroke-width="1.5" stroke-miterlimit="10" cx="2037.43" cy="812.4" r="16.62"/>
			<circle fill="#FFFFFF" stroke="#3170B7" stroke-width="1.5" stroke-miterlimit="10" cx="2081.25" cy="733.83" r="9.07"/>
			<circle fill="#FFFFFF" stroke="#3170B7" stroke-width="1.5" stroke-miterlimit="10" cx="2016.28" cy="756.49" r="9.07"/>
			<circle fill="#FFFFFF" stroke="#3170B7" stroke-width="1.5" stroke-miterlimit="10" cx="1731.1" cy="602.25" r="6.9"/>
			<circle fill="#FFFFFF" stroke="#3170B7" stroke-width="1.5" stroke-miterlimit="10" cx="2150.18" cy="779.13" r="9.07"/>
			<circle fill="#FFFFFF" stroke="#3170B7" stroke-width="1.5" stroke-miterlimit="10" cx="2092.82" cy="863.78" r="9.07"/>
			<circle fill="#FFFFFF" stroke="#3170B7" stroke-width="1.5" stroke-miterlimit="10" cx="1267.59" cy="639.07" r="12.42"/>
			<circle fill="#FFFFFF" stroke="#3170B7" stroke-width="1.5" stroke-miterlimit="10" cx="1213.52" cy="584.66" r="6.78"/>
			<circle fill="#FFFFFF" stroke="#3170B7" stroke-width="1.5" stroke-miterlimit="10" cx="1287.24" cy="547.21" r="6.78"/>
			<circle fill="#FFFFFF" stroke="#3170B7" stroke-width="1.5" stroke-miterlimit="10" cx="1320.48" cy="606.18" r="6.78"/>
		</g>
		<path fill="none" stroke="#58C9ED" stroke-width="1.5" stroke-miterlimit="10" d="M1287.24,547.21"/>
	</g>
	<g>
		<g>
			
				<line fill="none" stroke="#58C9ED" stroke-width="1.5" stroke-miterlimit="10" x1="1589.33" y1="396.57" x2="1623.9" y2="358.98"/>
			
				<line fill="none" stroke="#58C9ED" stroke-width="1.5" stroke-miterlimit="10" x1="1533.94" y1="359.21" x2="1623.9" y2="358.98"/>
			
				<line fill="none" stroke="#58C9ED" stroke-width="1.5" stroke-miterlimit="10" x1="1623.9" y1="358.98" x2="1539.71" y2="276.93"/>
			
				<line fill="none" stroke="#58C9ED" stroke-width="1.5" stroke-miterlimit="10" x1="1641.61" y1="285.53" x2="1623.9" y2="358.98"/>
			<polyline fill="none" stroke="#58C9ED" stroke-width="1.5" stroke-miterlimit="10" points="2390.72,349.9 2268.94,349.8 
				2137.58,464.93 2311.03,601.54 2252.65,623.23 2273.46,687.64 			"/>
			<polyline fill="none" stroke="#58C9ED" stroke-width="1.5" stroke-miterlimit="10" points="2137.58,464.93 1983.93,136.45 
				1949.88,52.67 			"/>
			<polyline fill="none" stroke="#58C9ED" stroke-width="1.5" stroke-miterlimit="10" points="2053.68,107.42 1983.93,136.45 
				2000.51,20.08 			"/>
			<polyline fill="none" stroke="#58C9ED" stroke-width="1.5" stroke-miterlimit="10" points="1623.9,358.98 2137.58,464.93 
				1873.43,505.24 1786.82,478.51 			"/>
			<polyline fill="none" stroke="#58C9ED" stroke-width="1.5" stroke-miterlimit="10" points="1849.48,545.21 1873.43,505.24 
				1787.42,567.77 1747.37,545.55 			"/>
			
				<line fill="none" stroke="#58C9ED" stroke-width="1.5" stroke-miterlimit="10" x1="2358.12" y1="641.3" x2="2311.03" y2="601.54"/>
			<polyline fill="none" stroke="#58C9ED" stroke-width="1.5" stroke-miterlimit="10" points="2246.36,278.9 2268.94,349.8 
				2348.62,268.87 			"/>
			<polyline fill="none" stroke="#58C9ED" stroke-width="1.5" stroke-miterlimit="10" points="2645.8,543.66 2587.45,478.37 
				2137.58,464.93 			"/>
			<polyline fill="none" stroke="#58C9ED" stroke-width="1.5" stroke-miterlimit="10" points="2636.08,348.94 2587.45,478.37 
				2712.01,506.24 2713.12,440.17 			"/>
		</g>
		<g>
			<circle fill="#FFFFFF" stroke="#3170B7" stroke-width="1.5" stroke-miterlimit="10" cx="2137.58" cy="464.93" r="37.77"/>
			<circle fill="#FFFFFF" stroke="#3170B7" stroke-width="1.5" stroke-miterlimit="10" cx="2268.94" cy="349.8" r="16.62"/>
			<circle fill="#FFFFFF" stroke="#3170B7" stroke-width="1.5" stroke-miterlimit="10" cx="2246.36" cy="278.9" r="9.07"/>
			<circle fill="#FFFFFF" stroke="#3170B7" stroke-width="1.5" stroke-miterlimit="10" cx="2348.62" cy="268.87" r="9.07"/>
			<circle fill="#FFFFFF" stroke="#3170B7" stroke-width="1.5" stroke-miterlimit="10" cx="2390.72" cy="349.9" r="9.07"/>
			<circle fill="#FFFFFF" stroke="#3170B7" stroke-width="1.5" stroke-miterlimit="10" cx="2587.45" cy="478.37" r="16.62"/>
			<circle fill="#FFFFFF" stroke="#3170B7" stroke-width="1.5" stroke-miterlimit="10" cx="2636.08" cy="348.94" r="9.07"/>
			<circle fill="#FFFFFF" stroke="#3170B7" stroke-width="1.5" stroke-miterlimit="10" cx="2713.12" cy="440.17" r="9.07"/>
			<circle fill="#FFFFFF" stroke="#3170B7" stroke-width="1.5" stroke-miterlimit="10" cx="2712.01" cy="506.24" r="9.07"/>
			<circle fill="#FFFFFF" stroke="#3170B7" stroke-width="1.5" stroke-miterlimit="10" cx="2645.8" cy="543.66" r="9.07"/>
			<circle fill="#FFFFFF" stroke="#3170B7" stroke-width="1.5" stroke-miterlimit="10" cx="1872.83" cy="505.39" r="12.64"/>
			<circle fill="#FFFFFF" stroke="#3170B7" stroke-width="1.5" stroke-miterlimit="10" cx="1787.42" cy="567.77" r="10.14"/>
			<circle fill="#FFFFFF" stroke="#3170B7" stroke-width="1.5" stroke-miterlimit="10" cx="1747.37" cy="545.55" r="6.9"/>
			<circle fill="#FFFFFF" stroke="#3170B7" stroke-width="1.5" stroke-miterlimit="10" cx="1786.82" cy="478.51" r="6.9"/>
			<circle fill="#FFFFFF" stroke="#3170B7" stroke-width="1.5" stroke-miterlimit="10" cx="1983.93" cy="136.45" r="16.62"/>
			<circle fill="#FFFFFF" stroke="#3170B7" stroke-width="1.5" stroke-miterlimit="10" cx="1949.88" cy="52.67" r="9.07"/>
			<circle fill="#FFFFFF" stroke="#3170B7" stroke-width="1.5" stroke-miterlimit="10" cx="2000.51" cy="20.08" r="9.07"/>
			<circle fill="#FFFFFF" stroke="#3170B7" stroke-width="1.5" stroke-miterlimit="10" cx="2053.68" cy="107.42" r="9.07"/>
			<circle fill="#FFFFFF" stroke="#3170B7" stroke-width="1.5" stroke-miterlimit="10" cx="1623.9" cy="358.98" r="16.62"/>
			<circle fill="#FFFFFF" stroke="#3170B7" stroke-width="1.5" stroke-miterlimit="10" cx="1533.94" cy="359.21" r="9.07"/>
			<circle fill="#FFFFFF" stroke="#3170B7" stroke-width="1.5" stroke-miterlimit="10" cx="1585.5" cy="404.78" r="9.07"/>
			<circle fill="#FFFFFF" stroke="#3170B7" stroke-width="1.5" stroke-miterlimit="10" cx="1849.48" cy="545.21" r="6.9"/>
			<circle fill="#FFFFFF" stroke="#3170B7" stroke-width="1.5" stroke-miterlimit="10" cx="1539.71" cy="276.93" r="9.07"/>
			<circle fill="#FFFFFF" stroke="#3170B7" stroke-width="1.5" stroke-miterlimit="10" cx="1641.61" cy="285.53" r="9.07"/>
			<circle fill="#FFFFFF" stroke="#3170B7" stroke-width="1.5" stroke-miterlimit="10" cx="2311.03" cy="601.54" r="12.42"/>
			<circle fill="#FFFFFF" stroke="#3170B7" stroke-width="1.5" stroke-miterlimit="10" cx="2358.12" cy="641.3" r="6.78"/>
			<circle fill="#FFFFFF" stroke="#3170B7" stroke-width="1.5" stroke-miterlimit="10" cx="2273.46" cy="687.64" r="6.78"/>
			<circle fill="#FFFFFF" stroke="#3170B7" stroke-width="1.5" stroke-miterlimit="10" cx="2252.65" cy="623.23" r="6.78"/>
		</g>
	</g>
	<circle fill="none" stroke="#58C9ED" stroke-width="1.5" stroke-miterlimit="10" cx="2137.58" cy="464.93" r="21.5"/>
	<circle fill="none" stroke="#58C9ED" stroke-width="1.5" stroke-miterlimit="10" cx="2587.45" cy="478.37" r="6.61"/>
	
		<ellipse transform="matrix(0.2298 -0.9732 0.9732 0.2298 1596.2201 3029.3906)" fill="none" stroke="#58C9ED" stroke-width="1.5" stroke-miterlimit="10" cx="2712.01" cy="506.24" rx="18.9" ry="18.9"/>
	<circle fill="none" stroke="#58C9ED" stroke-width="1.5" stroke-miterlimit="10" cx="2636.08" cy="348.94" r="17.48"/>
	<circle fill="none" stroke="#58C9ED" stroke-width="1.5" stroke-miterlimit="10" cx="2268.94" cy="349.8" r="9.51"/>
	<circle fill="none" stroke="#58C9ED" stroke-width="1.5" stroke-miterlimit="10" cx="2348.62" cy="268.87" r="19.1"/>
	<circle fill="none" stroke="#58C9ED" stroke-width="1.5" stroke-miterlimit="10" cx="1983.93" cy="136.45" r="24.98"/>
	<circle fill="none" stroke="#58C9ED" stroke-width="1.5" stroke-miterlimit="10" cx="1623.9" cy="358.98" r="29.33"/>
	<circle fill="none" stroke="#58C9ED" stroke-width="1.5" stroke-miterlimit="10" cx="1287.24" cy="547.21" r="14.91"/>
	<circle fill="none" stroke="#58C9ED" stroke-width="1.5" stroke-miterlimit="10" cx="2037.43" cy="812.4" r="7.93"/>
	<circle fill="none" stroke="#58C9ED" stroke-width="1.5" stroke-miterlimit="10" cx="1716.16" cy="645.93" r="22.5"/>
	<circle fill="none" stroke="#58C9ED" stroke-width="1.5" stroke-miterlimit="10" cx="1464.79" cy="738.36" r="18.13"/>
</g>
</svg>
