<svg width="72" height="72" viewBox="0 0 72 72" fill="none" xmlns="http://www.w3.org/2000/svg">
<path d="M38.31 18.3649V32.9079H43.734C44.1111 32.8956 44.4868 32.9593 44.8388 33.095C45.1907 33.2308 45.5118 33.436 45.7829 33.6984C46.054 33.9607 46.2696 34.2749 46.4168 34.6223C46.564 34.9696 46.6399 35.343 46.6399 35.7203C46.6399 36.0975 46.564 36.4709 46.4168 36.8183C46.2696 37.1656 46.054 37.4798 45.7829 37.7422C45.5118 38.0045 45.1907 38.2097 44.8388 38.3455C44.4868 38.4813 44.1111 38.5449 43.734 38.5326H38.31V53.4987C38.31 55.0103 38.9105 56.46 39.9795 57.5289C41.0484 58.5978 42.4983 59.1983 44.01 59.1983C44.74 59.2221 45.4322 59.5289 45.9401 60.0537C46.4481 60.5785 46.7321 61.2803 46.7321 62.0106C46.7321 62.741 46.4481 63.4427 45.9401 63.9676C45.4322 64.4924 44.74 64.7991 44.01 64.823C41.0058 64.8198 38.1256 63.625 36.0013 61.5009C33.877 59.3767 32.6822 56.4967 32.679 53.4927V18.3649C32.6822 15.3609 33.877 12.4808 36.0013 10.3566C38.1256 8.23248 41.0058 7.03774 44.01 7.03456C44.7559 7.03456 45.4713 7.33086 45.9987 7.85827C46.5262 8.38569 46.8225 9.10101 46.8225 9.84689C46.8225 10.5928 46.5262 11.3081 45.9987 11.8355C45.4713 12.3629 44.7559 12.6592 44.01 12.6592C43.261 12.6592 42.5193 12.8068 41.8273 13.0936C41.1354 13.3805 40.5067 13.8008 39.9774 14.3307C39.448 14.8606 39.0283 15.4896 38.7422 16.1819C38.4561 16.8741 38.3092 17.6159 38.31 18.3649ZM72 35.7188C72 37.7212 71.4062 39.6786 70.2936 41.3436C69.1811 43.0085 67.5998 44.3062 65.7497 45.0725C63.8996 45.8388 61.8638 46.0393 59.8997 45.6486C57.9356 45.2579 56.1315 44.2937 54.7155 42.8778C53.2995 41.4619 52.3352 39.6579 51.9445 37.6939C51.5539 35.73 51.7544 33.6943 52.5207 31.8443C53.2871 29.9944 54.5848 28.4131 56.2499 27.3007C57.9149 26.1882 59.8725 25.5944 61.875 25.5944C64.5593 25.5976 67.1328 26.6653 69.0309 28.5633C70.9291 30.4613 71.9968 33.0346 72 35.7188ZM66.375 35.7188C66.375 34.8288 66.1111 33.9588 65.6166 33.2189C65.1221 32.4789 64.4193 31.9021 63.5971 31.5616C62.7748 31.221 61.87 31.1319 60.9971 31.3055C60.1242 31.4791 59.3224 31.9077 58.693 32.537C58.0637 33.1663 57.6351 33.9681 57.4615 34.8409C57.2878 35.7138 57.3769 36.6185 57.7175 37.4407C58.0581 38.263 58.6349 38.9657 59.3749 39.4601C60.115 39.9546 60.985 40.2185 61.875 40.2185C63.0685 40.2185 64.2131 39.7444 65.057 38.9006C65.9009 38.0567 66.375 36.9122 66.375 35.7188ZM51.75 10.1274C51.75 8.12496 52.3438 6.16752 53.4564 4.50257C54.5689 2.83763 56.1502 1.53996 58.0003 0.773675C59.8504 0.00738586 61.8862 -0.19311 63.8503 0.19754C65.8143 0.588191 67.6184 1.55244 69.0345 2.96836C70.4505 4.38428 71.4148 6.18827 71.8055 8.1522C72.1961 10.1161 71.9956 12.1518 71.2293 14.0018C70.4629 15.8518 69.1652 17.433 67.5001 18.5455C65.8351 19.658 63.8775 20.2517 61.875 20.2517C59.1907 20.2486 56.6172 19.1809 54.719 17.2829C52.8209 15.3849 51.7532 12.8115 51.75 10.1274ZM57.375 10.1274C57.375 11.0173 57.6389 11.8873 58.1334 12.6273C58.6279 13.3673 59.3307 13.944 60.1529 14.2846C60.9752 14.6251 61.88 14.7143 62.7529 14.5406C63.6258 14.367 64.4276 13.9384 65.057 13.3092C65.6863 12.6799 66.1149 11.8781 66.2885 11.0052C66.4622 10.1324 66.373 9.22762 66.0324 8.4054C65.6919 7.58319 65.1151 6.88043 64.3751 6.38599C63.635 5.89156 62.765 5.62765 61.875 5.62765C60.6815 5.62765 59.5369 6.10173 58.693 6.94559C57.8491 7.78945 57.375 8.93397 57.375 10.1274ZM26.718 35.9498V47.811C26.7274 48.4584 26.5038 49.0876 26.088 49.5839C22.9543 54.4282 21.4038 60.1267 21.651 65.8909C21.6101 67.548 20.9139 69.1214 19.7151 70.2662C18.5162 71.411 16.9124 72.0339 15.255 71.9985H11.466C9.80864 72.0347 8.20448 71.4126 7.00504 70.2683C5.8056 69.1241 5.10868 67.551 5.067 65.8939C5.31793 60.132 3.76932 54.4349 0.636 49.5929C0.22467 49.0901 -3.96356e-05 48.4606 5.24385e-09 47.811V35.9498C0.00396962 32.6453 1.31852 29.4772 3.6553 27.1406C5.99208 24.804 9.16029 23.4895 12.465 23.4855H14.265C17.5697 23.4895 20.7379 24.804 23.0747 27.1406C25.4115 29.4772 26.726 32.6453 26.73 35.9498H26.718ZM21.093 35.9498C21.093 34.135 20.3726 32.3944 19.0902 31.1103C17.8077 29.8262 16.0679 29.1036 14.253 29.1012H12.453C10.6397 29.1036 8.90125 29.8249 7.61902 31.1071C6.33679 32.3892 5.61538 34.1275 5.613 35.9408V46.9021C9.11296 52.602 10.8739 59.1991 10.68 65.8849C10.68 66.0709 11.034 66.3649 11.454 66.3649H15.255C15.675 66.3649 16.029 66.0649 16.029 65.8849C15.8351 59.1991 17.596 52.602 21.096 46.9021V35.9498H21.093ZM3.657 9.55141C3.65937 7.66033 4.22238 5.81241 5.27486 4.24123C6.32734 2.67005 7.82204 1.44615 9.57002 0.724249C11.318 0.00234579 13.2408 -0.185155 15.0953 0.185448C16.9498 0.556051 18.6528 1.46812 19.9891 2.80636C21.3253 4.1446 22.2347 5.84894 22.6025 7.70393C22.9702 9.55892 22.7797 11.4813 22.055 13.228C21.3303 14.9747 20.104 16.4674 18.531 17.5174C16.9581 18.5673 15.1092 19.1274 13.218 19.1268C10.6827 19.1236 8.25223 18.1149 6.4598 16.3221C4.66737 14.5292 3.65938 12.0985 3.657 9.56341V9.55141ZM9.282 9.55141C9.27962 10.3303 9.50845 11.0924 9.93949 11.7413C10.3705 12.3901 10.9844 12.8964 11.7034 13.1961C12.4224 13.4958 13.2142 13.5755 13.9785 13.425C14.7428 13.2745 15.4452 12.9006 15.9969 12.3506C16.5486 11.8007 16.9246 11.0994 17.0775 10.3357C17.2303 9.57187 17.1531 8.77991 16.8555 8.06004C16.558 7.34018 16.0535 6.72479 15.406 6.29179C14.7584 5.85879 13.997 5.62766 13.218 5.62765C12.1746 5.62924 11.1744 6.04441 10.4366 6.78216C9.69878 7.51991 9.28359 8.52007 9.282 9.56341V9.55141ZM72 61.8741C72 63.8765 71.4062 65.834 70.2936 67.4989C69.1811 69.1639 67.5998 70.4615 65.7497 71.2278C63.8996 71.9941 61.8638 72.1946 59.8997 71.804C57.9356 71.4133 56.1315 70.4491 54.7155 69.0331C53.2995 67.6172 52.3352 65.8132 51.9445 63.8493C51.5539 61.8854 51.7544 59.8497 52.5207 57.9997C53.2871 56.1497 54.5848 54.5685 56.2499 53.456C57.9149 52.3436 59.8725 51.7498 61.875 51.7498C64.5593 51.7529 67.1328 52.8206 69.0309 54.7186C70.9291 56.6166 71.9968 59.19 72 61.8741ZM66.375 61.8741C66.375 60.9842 66.1111 60.1142 65.6166 59.3742C65.1221 58.6343 64.4193 58.0575 63.5971 57.7169C62.7748 57.3764 61.87 57.2873 60.9971 57.4609C60.1242 57.6345 59.3224 58.0631 58.693 58.6924C58.0637 59.3217 57.6351 60.1234 57.4615 60.9963C57.2878 61.8691 57.3769 62.7739 57.7175 63.5961C58.0581 64.4183 58.6349 65.1211 59.3749 65.6155C60.115 66.1099 60.985 66.3738 61.875 66.3738C63.0685 66.3738 64.2131 65.8998 65.057 65.0559C65.9009 64.2121 66.375 63.0675 66.375 61.8741Z" fill="#0C8CE0"/>
</svg>
