<svg width="72" height="72" viewBox="0 0 72 72" fill="none" xmlns="http://www.w3.org/2000/svg">
<path fill-rule="evenodd" clip-rule="evenodd" d="M63.7826 47.1931C64.3225 45.7832 65.9119 45.0933 67.3515 45.5133H67.3815C69.0909 46.0232 69.9607 47.913 69.3009 49.5628C63.9626 62.7011 51.0667 72 35.9816 72C11.4495 72 -7.38449 47.403 2.84222 21.4862C5.66132 14.3171 13.9387 5.91817 21.1064 3.00853C36.3715 -3.2007 51.1267 0.728814 60.8436 9.96767C62.1332 11.2275 62.1032 13.2973 60.7536 14.4671C59.584 15.457 57.8445 15.457 56.7349 14.3771C51.3366 9.21776 44.019 6.00816 35.9816 6.00816C17.5675 6.00816 2.99218 22.6861 6.53104 41.7637C8.75033 53.6723 18.3172 63.2711 30.2534 65.4908C45.2186 68.2805 58.6843 59.8515 63.7826 47.1931ZM38.0809 13.1773C38.0809 14.8339 36.7382 16.1769 35.0819 16.1769C33.4255 16.1769 32.0828 14.8339 32.0828 13.1773C32.0828 11.5206 33.4255 10.1776 35.0819 10.1776C36.7382 10.1776 38.0809 11.5206 38.0809 13.1773ZM35.0819 33.0048H69.001C70.6504 33.0048 72 34.3547 72 36.0045C72 37.6542 70.6504 39.0041 69.001 39.0041H35.0819C33.4324 39.0041 32.0828 37.6542 32.0828 36.0045C32.0828 34.3547 33.4324 33.0048 35.0819 33.0048ZM21.0464 17.7367C19.8767 16.5669 17.9874 16.5669 16.8177 17.7367C15.6481 18.9066 15.6481 20.7963 16.8177 21.9662C17.9874 23.136 19.8767 23.136 21.0464 21.9662C22.216 20.7963 22.216 18.9066 21.0464 17.7367ZM15.2282 36.0045C15.2282 37.6611 13.8855 39.0041 12.2292 39.0041C10.5729 39.0041 9.23017 37.6611 9.23017 36.0045C9.23017 34.3478 10.5729 33.0048 12.2292 33.0048C13.8855 33.0048 15.2282 34.3478 15.2282 36.0045ZM16.8177 50.0427C15.6481 51.2126 15.6481 53.1023 16.8177 54.2722C17.9874 55.442 19.8767 55.442 21.0464 54.2722C22.216 53.1023 22.216 51.2126 21.0464 50.0427C19.8767 48.8729 17.9874 48.8729 16.8177 50.0427ZM38.0809 58.8316C38.0809 60.4883 36.7382 61.8313 35.0819 61.8313C33.4255 61.8313 32.0828 60.4883 32.0828 58.8316C32.0828 57.175 33.4255 55.832 35.0819 55.832C36.7382 55.832 38.0809 57.175 38.0809 58.8316ZM53.346 54.2722C54.5156 53.1023 54.5156 51.2126 53.346 50.0427C52.1764 48.8729 50.287 48.8729 49.1174 50.0427C47.9477 51.2126 47.9477 53.1023 49.1174 54.2722C50.287 55.442 52.1764 55.442 53.346 54.2722Z" fill="#0C8CE0"/>
</svg>
