<svg width="72" height="72" viewBox="0 0 72 72" fill="none" xmlns="http://www.w3.org/2000/svg">
<path fill-rule="evenodd" clip-rule="evenodd" d="M61.0112 26.0491L61.9393 26.9772C65.4543 30.4917 65.4542 36.1898 61.9393 39.7043L32.3603 69.2795C28.8454 72.794 23.1466 72.794 19.6316 69.2795L16.4655 66.1138C16.3874 66.0499 16.3117 65.9814 16.2389 65.9084C16.1678 65.8372 16.1011 65.7633 16.0386 65.687L2.72068 52.3707C-0.794267 48.8562 -0.794258 43.1581 2.72068 39.6436L32.2997 10.0683C35.8146 6.55384 41.5134 6.55385 45.0284 10.0683L45.9475 10.9873L55.5637 1.37228C56.7354 0.200778 58.635 0.200777 59.8066 1.37228L70.6274 12.1917C71.7991 13.3632 71.7991 15.2626 70.6274 16.4341L61.0112 26.0491ZM50.1904 15.2297L56.7683 21.8068L64.2631 14.3129L57.6852 7.73584L50.1904 15.2297ZM14.7202 55.884L18.3755 59.5388L32.5599 45.3867C33.7327 44.2164 35.6322 44.2186 36.8025 45.3915C37.9727 46.5644 37.9706 48.4639 36.7977 49.6341L22.6184 63.7812L23.8745 65.0372C25.0462 66.2087 26.9458 66.2087 28.1174 65.0372L57.6964 35.4619C58.868 34.2904 58.868 32.391 57.6964 31.2195L40.7855 14.3107C39.6138 13.1392 37.7142 13.1392 36.5426 14.3107L6.96359 43.886C5.79194 45.0575 5.79194 46.9568 6.96358 48.1283L10.4773 51.6417L16.4068 45.7129L16.5007 41.9256C16.5418 40.2692 17.9179 38.9598 19.5742 39.0009C21.2306 39.042 22.54 40.418 22.4989 42.0744L22.3752 47.0607C22.3561 47.8305 22.0418 48.5634 21.4973 49.1078L14.7202 55.884Z" fill="#0C8CE0"/>
</svg>
