<svg width="72" height="56" viewBox="0 0 72 56" fill="none" xmlns="http://www.w3.org/2000/svg">
<path d="M45.9877 15.3848C45.6502 13.8931 44.1673 12.9575 42.6756 13.295C41.1839 13.6325 40.2483 15.1153 40.5858 16.607C40.8641 17.8373 41.0123 19.1169 41.0123 20.4307V22.9507H36.2762C34.7468 22.9507 33.507 24.1905 33.507 25.7199C33.507 27.2493 34.7468 28.4892 36.2762 28.4892L43.7815 28.4892L45.5816 28.4892C47.4213 28.4892 49.0242 29.501 49.8624 31.0096C50.6052 32.3465 52.2912 32.8281 53.6281 32.0853C54.965 31.3424 55.4466 29.6565 54.7037 28.3196C53.0761 25.3903 50.0698 23.3192 46.5507 22.9951V20.4307C46.5507 18.6992 46.3553 17.0098 45.9877 15.3848Z" fill="#0C8CE0"/>
<path fill-rule="evenodd" clip-rule="evenodd" d="M5.51071 18.3815C5.51071 8.35055 13.6459 0.215332 23.6769 0.215332C29.2718 0.215332 34.2602 2.75378 37.5839 6.71774C40.0185 5.6525 42.7079 5.06147 45.5355 5.06147C56.5013 5.06147 65.3909 13.951 65.3909 24.9169C65.3909 29.4012 63.9043 33.5383 61.397 36.8623L71.1889 46.6542C72.2704 47.7356 72.2704 49.489 71.1889 50.5704C70.1075 51.6519 68.3541 51.6519 67.2726 50.5704L57.4807 40.7785C54.6135 42.9412 51.1413 44.3445 47.3631 44.6893V48.4092C47.3631 52.4863 44.0648 55.7846 39.9877 55.7846H7.37539C3.29829 55.7846 0 52.4863 0 48.4092V27.0584C0 23.6256 2.33817 20.745 5.51071 19.9202V18.3815ZM11.0492 19.683H26.3771C27.4585 15.7154 29.7395 12.2424 32.8063 9.67796C30.5057 7.25852 27.2667 5.7538 23.6769 5.7538C16.7047 5.7538 11.0492 11.4094 11.0492 18.3815V19.683ZM31.3291 23.1288C31.3742 22.949 31.4018 22.7623 31.4098 22.5706C32.0854 18.4725 34.5013 14.9612 37.8731 12.8208C37.99 12.7691 38.1048 12.7087 38.2165 12.6394C38.3056 12.5842 38.3905 12.5247 38.471 12.4614C40.5555 11.2766 42.9664 10.5999 45.5355 10.5999C53.4425 10.5999 59.8524 17.0098 59.8524 24.9169C59.8524 32.8239 53.4425 39.2338 45.5355 39.2338C45.3483 39.2338 45.1619 39.2302 44.9764 39.2231C44.8514 39.2058 44.7237 39.1969 44.5939 39.1969C44.5674 39.1969 44.5411 39.1973 44.5149 39.198C37.0841 38.6746 31.2185 32.4807 31.2185 24.9169C31.2185 24.3113 31.2561 23.7145 31.3291 23.1288ZM25.6823 25.2215H7.37539C6.3571 25.2215 5.53847 26.0401 5.53847 27.0584V48.4092C5.53847 49.4275 6.3571 50.2461 7.37539 50.2461H39.9877C41.006 50.2461 41.8246 49.4275 41.8246 48.4092V44.4261C37.1228 43.5372 33.0071 40.9907 30.108 37.4171C29.8613 38.0211 29.5332 38.5823 29.1391 39.0871V42.9789C29.1391 46.0334 26.6667 48.5057 23.6123 48.5057C20.5579 48.5057 18.0855 46.0334 18.0855 42.9789V39.09C17.1587 37.9058 16.6011 36.4063 16.6011 34.7855C16.6011 30.91 19.7369 27.7742 23.6123 27.7742C24.4307 27.7742 25.2159 27.9144 25.9456 28.1718C25.7869 27.2099 25.6974 26.2247 25.6823 25.2215ZM23.6123 31.9281C22.031 31.9281 20.7549 33.2041 20.7549 34.7855C20.7549 35.5787 21.0839 36.3006 21.6106 36.8129C22.0126 37.204 22.2394 37.7409 22.2394 38.3017V42.9789C22.2394 43.7393 22.852 44.3519 23.6123 44.3519C24.3726 44.3519 24.9853 43.7393 24.9853 42.9789V38.3017C24.9853 37.7443 25.2093 37.2102 25.6071 36.8197C26.1444 36.2921 26.4697 35.5734 26.4697 34.7855C26.4697 33.2102 25.1914 31.9281 23.6123 31.9281Z" fill="#0C8CE0"/>
</svg>
