<svg width="160" height="64" viewBox="0 0 160 64" fill="none" xmlns="http://www.w3.org/2000/svg">
<g clip-path="url(#clip0_517_26)">
<path d="M30.445 26.1265V2.91032L25.3973 0V11.5847L15.3023 5.76197L0.159546 14.4954V49.4311L15.3023 58.1645L25.3973 52.3418V58.1822L20.3561 61.0893L25.4039 64L30.445 61.0929V31.955L15.3023 23.231L5.20683 29.0533V17.4012L15.3023 11.5789L25.3973 17.4012V23.2162L30.445 26.1265ZM15.3023 29.0541L20.35 31.9645L15.3023 34.8752L10.2546 31.9645L15.3023 29.0541ZM15.3023 40.6959L25.3973 34.8748V46.5199L15.3023 52.3418L5.20683 46.5199V34.8748L15.3023 40.6959Z" fill="url(#paint0_linear_517_26)"/>
<path d="M51.4013 24.1667C50.3068 23.3859 48.9904 22.9774 47.6461 23.0015C45.7692 23.0033 43.9687 23.7453 42.6354 25.0664C41.3021 26.3875 40.5437 28.1812 40.5247 30.058V36.7914C40.5247 40.9996 43.5673 43.8479 47.7755 43.8479C51.6601 43.8479 55.0268 40.6756 55.0268 36.7914V16.333H51.4013V24.1667ZM51.4013 36.7914C51.4198 37.2755 51.3391 37.7583 51.1643 38.2101C50.9894 38.6619 50.7241 39.0732 50.3846 39.4188C50.045 39.7643 49.6385 40.0369 49.1898 40.2197C48.7411 40.4024 48.2599 40.4916 47.7755 40.4817C47.2927 40.486 46.8139 40.3931 46.3678 40.2084C45.9217 40.0236 45.5174 39.7509 45.1791 39.4065C44.8407 39.062 44.5752 38.653 44.3984 38.2037C44.2216 37.7544 44.1371 37.274 44.1501 36.7914L44.215 30.058C44.215 27.9223 45.7038 26.3677 47.7755 26.3677C49.9112 26.3677 51.4013 27.9215 51.4013 30.058V36.7914Z" fill="black"/>
<path d="M65.5785 23.001C61.6944 23.001 58.3277 26.173 58.3277 30.0576V36.7909C58.3277 40.9991 61.3703 43.8475 65.5785 43.8475C69.4631 43.8475 72.8298 40.6751 72.8298 36.7909H69.204C69.2224 37.275 69.1418 37.7577 68.967 38.2095C68.7921 38.6613 68.5268 39.0726 68.1874 39.4181C67.8479 39.7637 67.4413 40.0363 66.9927 40.2191C66.5441 40.4019 66.0629 40.4911 65.5785 40.4812C65.0957 40.4856 64.617 40.3926 64.1709 40.2079C63.7248 40.0232 63.3205 39.7504 62.9821 39.406C62.6437 39.0616 62.3782 38.6525 62.2014 38.2032C62.0246 37.7539 61.9402 37.2736 61.9531 36.7909V35.1069H72.8298V30.0551C72.8298 25.8497 69.7872 23.001 65.5785 23.001ZM69.204 31.7411H62.0164V30.0571C62.0164 27.9214 63.5052 26.3668 65.5769 26.3668C67.7127 26.3668 69.2023 27.9206 69.2023 30.0571L69.204 31.7411Z" fill="black"/>
<path d="M77.0381 21.3179V23.3247H75.2252V26.6926H77.0381V43.5251H80.6635V26.6913H82.476V23.3234H80.6635V21.3166C80.6509 21.0922 80.6858 20.8676 80.766 20.6576C80.8461 20.4476 80.9697 20.2569 81.1287 20.0979C81.2877 19.9389 81.4784 19.8153 81.6884 19.7352C81.8984 19.655 82.123 19.6201 82.3475 19.6327H82.6711V16.2648H82.0883C81.4177 16.2382 80.7489 16.3508 80.124 16.5954C79.4991 16.8399 78.9315 17.2113 78.4571 17.6859C77.9828 18.1606 77.6117 18.7283 77.3675 19.3534C77.1233 19.9785 77.0111 20.6473 77.0381 21.3179Z" fill="black"/>
<path d="M92.1226 23.001C88.238 23.001 84.8713 26.173 84.8713 30.0576V36.7909C84.8713 40.9991 87.785 43.8475 91.7989 43.8475C93.4829 43.8475 95.1007 43.2651 95.8129 42.3586V43.5238C95.8129 45.7249 94.3885 47.4084 92.1875 47.4084C92.1645 47.4084 92.1427 47.4059 92.1197 47.4055V50.5796H92.1875C96.0072 50.5796 99.3751 47.7312 99.3751 43.523V30.0576C99.3734 25.8497 96.3308 23.001 92.1226 23.001ZM95.748 36.7909C95.7665 37.275 95.6858 37.7577 95.511 38.2095C95.3362 38.6613 95.0709 39.0726 94.7314 39.4181C94.3919 39.7637 93.9854 40.0362 93.5368 40.2191C93.0882 40.4019 92.6069 40.4911 92.1226 40.4812C91.6397 40.4856 91.1609 40.3927 90.7148 40.208C90.2687 40.0233 89.8643 39.7506 89.5259 39.4061C89.1875 39.0617 88.9219 38.6526 88.7451 38.2033C88.5683 37.7539 88.4838 37.2736 88.4967 36.7909V30.0576C88.4784 29.5735 88.5591 29.0907 88.7339 28.6389C88.9088 28.1871 89.1741 27.7758 89.5136 27.4303C89.8532 27.0847 90.2597 26.8122 90.7084 26.6294C91.157 26.4466 91.6382 26.3574 92.1226 26.3672C94.2583 26.3672 95.748 27.921 95.748 30.0576V36.7909Z" fill="black"/>
<path d="M113.163 36.791C113.181 37.2751 113.101 37.7579 112.926 38.2097C112.751 38.6615 112.486 39.0728 112.146 39.4184C111.807 39.7639 111.4 40.0365 110.951 40.2193C110.503 40.4021 110.021 40.4912 109.537 40.4813C109.054 40.4857 108.576 40.3927 108.129 40.208C107.683 40.0232 107.279 39.7505 106.941 39.4061C106.602 39.0616 106.337 38.6526 106.16 38.2033C105.983 37.754 105.899 37.2736 105.912 36.791V23.3247H102.286V36.791C102.286 40.9992 105.264 43.8476 109.474 43.8476C113.164 43.8476 116.79 40.9992 116.79 36.791V23.3247H113.164L113.163 36.791Z" fill="black"/>
<path d="M127.082 23.001C123.327 23.001 119.831 25.7199 119.831 29.9282H123.262C123.262 27.7271 124.751 26.173 126.952 26.173C129.153 26.173 130.643 27.8569 130.643 30.0576V31.2897H130.578C129.52 30.4254 128.189 29.9663 126.823 29.9947C125.9 29.9812 124.984 30.1498 124.127 30.4908C123.269 30.8318 122.487 31.3385 121.826 31.9819C121.164 32.6254 120.636 33.3929 120.272 34.2406C119.907 35.0884 119.714 35.9996 119.702 36.9223C119.702 41.1306 122.615 43.8495 126.629 43.8495C128.313 43.8495 129.866 43.2671 130.643 42.3607V43.5259H134.204V30.0576C134.203 25.8497 131.29 23.001 127.082 23.001ZM126.952 40.6106C126.47 40.615 125.991 40.522 125.545 40.3373C125.099 40.1525 124.694 39.8798 124.356 39.5354C124.018 39.1909 123.752 38.7819 123.575 38.3326C123.399 37.8832 123.314 37.4029 123.327 36.9203C123.309 36.4362 123.389 35.9535 123.564 35.5017C123.739 35.05 124.004 34.6387 124.344 34.2932C124.683 33.9476 125.09 33.6751 125.538 33.4922C125.987 33.3094 126.468 33.2201 126.952 33.23C129.088 33.23 130.578 34.7837 130.578 36.9203C130.596 37.4044 130.516 37.8872 130.341 38.339C130.166 38.7908 129.901 39.2021 129.561 39.5477C129.222 39.8932 128.815 40.1658 128.366 40.3486C127.918 40.5313 127.436 40.6205 126.952 40.6106H126.952Z" fill="black"/>
<path d="M136.986 28.3745V43.5238H140.612V28.3745C140.599 28.15 140.634 27.9254 140.714 27.7154C140.794 27.5054 140.918 27.3147 141.077 27.1557C141.236 26.9967 141.427 26.8731 141.637 26.793C141.847 26.7128 142.071 26.6779 142.296 26.6905H143.332V23.3226H142.038C141.368 23.2958 140.699 23.4082 140.074 23.6526C139.449 23.897 138.881 24.2681 138.406 24.7427C137.932 25.2172 137.561 25.7849 137.316 26.41C137.072 27.035 136.96 27.7039 136.986 28.3745Z" fill="black"/>
<path d="M156.215 16.333V24.1667C155.12 23.3859 153.804 22.9775 152.46 23.0015C150.583 23.0032 148.782 23.7452 147.449 25.0663C146.115 26.3874 145.357 28.1811 145.338 30.058V36.7914C145.338 40.9996 148.381 43.8479 152.589 43.8479C156.474 43.8479 159.84 40.6756 159.84 36.7914V16.333H156.215ZM156.215 36.7914C156.233 37.2754 156.152 37.7582 155.978 38.21C155.803 38.6617 155.537 39.073 155.198 39.4186C154.858 39.7642 154.452 40.0367 154.003 40.2195C153.555 40.4023 153.073 40.4915 152.589 40.4817C152.106 40.4861 151.628 40.3932 151.181 40.2085C150.735 40.0238 150.331 39.7511 149.992 39.4066C149.654 39.0622 149.388 38.6531 149.212 38.2037C149.035 37.7544 148.95 37.2741 148.963 36.7914L149.028 30.058C149.028 27.9223 150.517 26.3677 152.589 26.3677C154.725 26.3677 156.215 27.9215 156.215 30.058V36.7914Z" fill="black"/>
</g>
<defs>
<linearGradient id="paint0_linear_517_26" x1="15.3023" y1="0" x2="15.3023" y2="64" gradientUnits="userSpaceOnUse">
<stop stop-color="#2ACCFF"/>
<stop offset="1" stop-color="#0071D4"/>
</linearGradient>
<clipPath id="clip0_517_26">
<rect width="159.681" height="64" fill="white" transform="translate(0.159546)"/>
</clipPath>
</defs>
</svg>
