<svg width="72" height="72" viewBox="0 0 72 72" fill="none" xmlns="http://www.w3.org/2000/svg">
<path d="M20.6197 68.3241C15.0606 66.7735 10.0142 63.7733 5.99847 59.6281C2.21805 55.7612 0.0702072 50.587 0 45.1796C0.10094 41.6243 1.0517 38.1459 2.77371 35.0338C4.49572 31.9216 6.93826 29.2667 9.89689 27.2926C15.6886 23.1756 22.533 20.7923 29.6292 20.4213V5.81174C29.6228 5.42391 29.6945 5.03893 29.8371 4.67824C29.9798 4.31755 30.1911 3.98731 30.461 3.70876C30.7309 3.4302 31.054 3.20955 31.41 3.0556C31.766 2.90166 32.1469 2.81836 32.5347 2.8125C33.3174 2.82592 34.0636 3.14946 34.6084 3.71169C35.1532 4.27391 35.4544 5.02894 35.4431 5.81174V20.4096C42.5392 20.7811 49.3805 23.1644 55.1725 27.2809C58.6361 29.7407 61.4154 33.0448 63.2446 36.879L66.5426 30.655C66.718 30.3127 66.9622 30.0084 67.2573 29.7617C67.5524 29.515 67.8939 29.3288 68.2619 29.2169C68.6299 29.105 69.0159 29.0708 69.3983 29.1115C69.7808 29.1521 70.1516 29.2674 70.4879 29.4542C71.1698 29.8527 71.6703 30.5013 71.885 31.2613C72.0998 32.0213 72.0115 32.8348 71.639 33.5312L64.7413 46.6002C64.6436 46.7847 64.5263 46.961 64.3928 47.1215C64.1243 47.4448 63.7884 47.7033 63.4087 47.8831C63.0289 48.0628 62.6162 48.1586 62.1961 48.1613H62.0262H61.9442H61.8739H61.8241H61.7597H61.7304L61.6044 48.1379C61.5161 48.1217 61.4291 48.0983 61.3438 48.0705H61.3115L61.2559 48.05C61.1894 48.029 61.126 48.0028 61.0626 47.9739L47.7212 42.69C46.993 42.3868 46.409 41.8119 46.0957 41.0879C45.7824 40.3639 45.7626 39.5476 46.04 38.8092C46.1684 38.4456 46.3686 38.1127 46.6287 37.828C46.8889 37.5433 47.2037 37.312 47.5543 37.1514C47.9049 36.9908 48.2848 36.9018 48.6702 36.8907C49.0557 36.8797 49.4386 36.9467 49.7979 37.087L58.4382 40.5138C57.0924 37.1557 54.7933 34.2634 51.8247 32.1956C47.0094 28.805 41.3451 26.821 35.4666 26.4666V56.6757C35.4803 58.5532 35.0627 60.41 34.2452 62.1001C33.4277 63.7903 32.2313 65.2685 30.751 66.4233C28.781 67.9655 26.3551 68.8089 23.8533 68.8221C22.7565 68.8213 21.6659 68.6533 20.6197 68.3241ZM13.2769 32.1576C11.0878 33.5775 9.26837 35.4975 7.96965 37.7606C6.67094 40.0237 5.92965 42.5644 5.80809 45.1709C5.80809 52.7589 12.2461 59.5846 22.2336 62.5658C23.0848 62.8198 23.9829 62.8634 24.855 62.6947C25.7271 62.526 26.547 62.1494 27.2421 61.5964C27.9946 61.0092 28.601 60.2587 29.017 59.3997C29.433 58.5406 29.6468 57.5979 29.6409 56.6435V26.4344C23.7602 26.783 18.0932 28.7653 13.2769 32.1576Z" fill="#0C8CE0"/>
</svg>
