<svg width="128" height="128" viewBox="0 0 128 128" fill="none" xmlns="http://www.w3.org/2000/svg">
<path d="M36.6573 121.465C26.7744 118.708 17.803 113.375 10.664 106.006C3.9432 99.1311 0.124813 89.9324 0 80.3194C0.179449 73.9987 1.86969 67.815 4.93104 62.2823C7.99238 56.7496 12.3347 52.0297 17.5945 48.5202C27.8909 41.2011 40.0586 36.9641 52.6741 36.3045V10.332C52.6628 9.64251 52.7902 8.95809 53.0438 8.31686C53.2974 7.67564 53.673 7.08855 54.1529 6.59334C54.6327 6.09814 55.207 5.70586 55.8399 5.43218C56.4729 5.1585 57.15 5.01042 57.8394 5C59.231 5.02385 60.5575 5.59904 61.526 6.59855C62.4945 7.59806 63.03 8.94033 63.01 10.332V36.2837C75.6253 36.9441 87.7875 41.1811 98.0844 48.4993C104.242 52.8724 109.183 58.7464 112.435 65.5627L118.298 54.4978C118.61 53.8892 119.044 53.3483 119.569 52.9097C120.093 52.4711 120.7 52.1402 121.355 51.9412C122.009 51.7422 122.695 51.6815 123.375 51.7537C124.055 51.8259 124.714 52.031 125.312 52.3629C126.524 53.0714 127.414 54.2245 127.796 55.5757C128.177 56.9268 128.02 58.373 127.358 59.6111L115.096 82.8448C114.922 83.1727 114.714 83.4863 114.476 83.7716C113.999 84.3462 113.402 84.8058 112.727 85.1254C112.051 85.445 111.318 85.6152 110.571 85.6201H110.269H110.123H109.998H109.91H109.795H109.743L109.519 85.5784C109.362 85.5498 109.207 85.5081 109.056 85.4587H108.998L108.899 85.4222C108.781 85.3849 108.668 85.3383 108.556 85.2868L84.8378 75.8934C83.5431 75.3543 82.5049 74.3322 81.9479 73.0452C81.3909 71.7581 81.3557 70.3069 81.8489 68.9941C82.0772 68.3477 82.4331 67.7559 82.8956 67.2498C83.358 66.7437 83.9177 66.3325 84.541 66.047C85.1642 65.7614 85.8396 65.6032 86.5248 65.5835C87.2101 65.5639 87.8909 65.6831 88.5295 65.9324L103.89 72.0246C101.498 66.0546 97.4103 60.9127 92.1328 57.2367C83.5723 51.2089 73.5025 47.6818 63.0517 47.0518V100.757C63.076 104.095 62.3337 107.396 60.8803 110.4C59.427 113.405 57.3001 116.033 54.6684 118.086C51.1663 120.828 46.8535 122.327 42.4059 122.35C40.4561 122.349 38.5172 122.05 36.6573 121.465ZM23.6034 57.169C19.7117 59.6934 16.4771 63.1067 14.1683 67.13C11.8594 71.1533 10.5416 75.6701 10.3255 80.3037C10.3255 93.7936 21.7709 105.928 39.5264 111.228C41.0396 111.68 42.6363 111.757 44.1867 111.457C45.737 111.157 47.1947 110.488 48.4304 109.505C49.7681 108.461 50.8463 107.127 51.5858 105.599C52.3254 104.072 52.7055 102.396 52.6949 100.7V46.9945C42.2404 47.6142 32.1656 51.1384 23.6034 57.169Z" fill="#0C8CE0"/>
</svg>
