<svg width="128" height="128" viewBox="0 0 128 128" fill="none" xmlns="http://www.w3.org/2000/svg">
<path d="M112.644 54.0014H89.3518C85.2806 53.9972 81.3773 52.378 78.4985 49.4992C75.6197 46.6204 74.0005 42.7172 73.9963 38.6459V15.354C73.9982 12.9454 74.5663 10.5709 75.6548 8.42223C76.7432 6.27355 78.3216 4.41083 80.2624 2.9844C82.2033 1.55796 84.4523 0.607763 86.8279 0.210472C89.2036 -0.18682 91.6394 -0.0200733 93.9387 0.697255C101.793 3.12604 108.937 7.43388 114.75 13.2474C120.564 19.0608 124.872 26.2045 127.3 34.059C128.018 36.3584 128.185 38.7942 127.787 41.1698C127.39 43.5455 126.44 45.7945 125.013 47.7353C123.587 49.6762 121.724 51.2545 119.575 52.343C117.427 53.4314 115.052 53.9995 112.644 54.0014ZM89.3571 10.0044C88.2031 10.0044 87.0802 10.3787 86.157 11.0711C85.4822 11.5646 84.9341 12.211 84.5577 12.9574C84.1813 13.7038 83.9872 14.5288 83.9915 15.3647V38.6459C83.9915 40.0605 84.5534 41.4171 85.5537 42.4174C86.5539 43.4176 87.9106 43.9796 89.3251 43.9796H112.644C113.48 43.9838 114.305 43.7898 115.051 43.4134C115.797 43.0369 116.444 42.4888 116.937 41.8141C117.44 41.1341 117.776 40.3448 117.916 39.5106C118.056 38.6763 117.996 37.8208 117.743 37.0138C115.796 30.7118 112.34 24.9802 107.676 20.3162C103.012 15.6521 97.2805 12.1967 90.9786 10.2498C90.4534 10.0875 89.9068 10.0048 89.3571 10.0044ZM58.9982 128C47.8727 128 36.974 124.854 27.5598 118.925C18.1456 112.996 10.5994 104.527 5.79219 94.4933C0.984929 84.46 -0.887549 73.2719 0.39082 62.2201C1.66919 51.1683 6.0463 40.7032 13.0171 32.0322C21.3024 21.7497 32.7854 14.5298 45.6428 11.5192C47.8401 11.013 50.1232 11.009 52.3222 11.5074C54.5212 12.0057 56.5795 12.9937 58.3439 14.3977C60.1082 15.8017 61.5332 17.5856 62.5126 19.6165C63.4921 21.6474 64.0009 23.8731 64.0011 26.1279V58.9883C64.0039 60.3129 64.5314 61.5825 65.468 62.5191C66.4046 63.4557 67.6741 63.9831 68.9987 63.9859H101.87C104.125 63.9839 106.352 64.4909 108.385 65.469C110.417 66.4471 112.203 67.8713 113.609 69.6353C115.014 71.3993 116.004 73.4577 116.503 75.6572C117.003 77.8568 117 80.1407 116.495 82.3389C113.477 95.325 106.151 106.907 95.7106 115.198C85.2702 123.489 72.3303 128.002 58.9982 128ZM49.019 21.1303C48.642 21.1304 48.2662 21.1733 47.8989 21.2583C39.3864 23.239 31.5584 27.4603 25.2264 33.4846C18.8944 39.5089 14.2887 47.117 11.8867 55.5203C9.48463 63.9237 9.3737 72.8166 11.5654 81.2773C13.757 89.738 18.1715 97.4586 24.3513 103.639C30.5311 109.819 38.2513 114.235 46.7118 116.427C55.1723 118.619 64.0652 118.509 72.4688 116.108C80.8724 113.707 88.4809 109.102 94.5058 102.77C100.531 96.4387 104.753 88.6112 106.734 80.0988C106.903 79.3717 106.905 78.6156 106.74 77.8876C106.575 77.1596 106.246 76.4786 105.779 75.8959C105.311 75.304 104.714 74.8262 104.034 74.4982C103.354 74.1702 102.609 74.0007 101.854 74.0025H68.9987C65.0227 73.9968 61.2111 72.4149 58.3997 69.6034C55.5882 66.7919 54.0062 62.9804 54.0006 59.0043V26.1279C54.0023 25.373 53.8328 24.6276 53.5049 23.9476C53.1769 23.2677 52.699 22.671 52.1072 22.2024C51.23 21.5079 50.1431 21.1318 49.0243 21.1357L49.019 21.1303Z" fill="#0C8CE0"/>
</svg>
