<svg width="72" height="72" viewBox="0 0 72 72" fill="none" xmlns="http://www.w3.org/2000/svg">
<path d="M63.3632 30.3758H50.2613C47.9712 30.3734 45.7755 29.4626 44.1562 27.8433C42.5368 26.224 41.626 24.0284 41.6237 21.7383V8.63664C41.6247 7.28178 41.9443 5.94614 42.5566 4.7375C43.1688 3.52887 44.0567 2.48109 45.1484 1.67872C46.2402 0.876355 47.5052 0.341867 48.8416 0.11839C50.1779 -0.105086 51.5481 -0.0112912 52.8415 0.392206C57.2597 1.7584 61.2781 4.18156 64.5482 7.45164C67.8184 10.7217 70.2416 14.74 71.6078 19.1582C72.0113 20.4516 72.1051 21.8217 71.8816 23.158C71.6581 24.4943 71.1236 25.7594 70.3213 26.8511C69.5189 27.9428 68.4711 28.8307 67.2624 29.4429C66.0538 30.0552 64.7181 30.3747 63.3632 30.3758ZM50.2643 5.62748C49.6151 5.62748 48.9835 5.83803 48.4641 6.22751C48.0846 6.50508 47.7763 6.8687 47.5645 7.28854C47.3528 7.70837 47.2437 8.17244 47.2461 8.64264V21.7383C47.2461 22.534 47.5622 23.2971 48.1248 23.8598C48.6875 24.4224 49.4506 24.7385 50.2463 24.7385H63.3632C63.8334 24.7409 64.2975 24.6318 64.7173 24.42C65.1372 24.2083 65.5008 23.9 65.7784 23.5204C66.0614 23.1379 66.2499 22.6939 66.3287 22.2247C66.4074 21.7554 66.3741 21.2742 66.2314 20.8203C65.1362 17.2754 63.1925 14.0513 60.569 11.4278C57.9454 8.80433 54.7213 6.86066 51.1763 5.76549C50.8809 5.6742 50.5735 5.62769 50.2643 5.62748ZM33.1871 72C26.9289 71.9998 20.7983 70.2301 15.5027 66.8952C10.2071 63.5604 5.9623 58.7962 3.25816 53.1525C0.554033 47.5087 -0.499255 41.2155 0.21984 34.9988C0.938935 28.7822 3.40111 22.8955 7.32224 18.0181C11.9828 12.2342 18.4421 8.17303 25.6745 6.47953C26.9105 6.19482 28.1948 6.19255 29.4318 6.47289C30.6687 6.75323 31.8266 7.30896 32.819 8.0987C33.8115 8.88845 34.613 9.89187 35.164 11.0343C35.715 12.1767 36.0012 13.4286 36.0013 14.697V33.1809C36.0029 33.926 36.2995 34.6401 36.8264 35.167C37.3533 35.6938 38.0674 35.9905 38.8125 35.9921H57.3028C58.5716 35.991 59.8243 36.2761 60.9675 36.8263C62.1108 37.3765 63.1152 38.1776 63.9059 39.1698C64.6966 40.1621 65.2533 41.32 65.5343 42.5572C65.8154 43.7944 65.8137 45.0792 65.5294 46.3156C63.8317 53.6203 59.7109 60.135 53.8382 64.7988C47.9654 69.4627 40.6865 72.0009 33.1871 72ZM27.5737 11.8858C27.3616 11.8858 27.1502 11.91 26.9436 11.9578C22.1552 13.072 17.7519 15.4464 14.1901 18.8351C10.6283 22.2237 8.03752 26.5033 6.68636 31.2302C5.3352 35.9571 5.2728 40.9593 6.50563 45.7185C7.73846 50.4776 10.2217 54.8205 13.6979 58.2969C17.174 61.7734 21.5167 64.2569 26.2759 65.4901C31.035 66.7234 36.0373 66.6614 40.7644 65.3107C45.4915 63.96 49.7714 61.3697 53.1604 57.8082C56.5495 54.2468 58.9244 49.8438 60.039 45.0556C60.1342 44.6466 60.1353 44.2213 60.0423 43.8118C59.9492 43.4023 59.7645 43.0192 59.5019 42.6914C59.2383 42.3585 58.9027 42.0897 58.5202 41.9052C58.1377 41.7208 57.7184 41.6254 57.2938 41.6264H38.8125C36.5759 41.6232 34.4319 40.7334 32.8504 39.1519C31.2689 37.5705 30.379 35.4265 30.3759 33.1899V14.697C30.3768 14.2723 30.2815 13.853 30.097 13.4705C29.9125 13.0881 29.6437 12.7524 29.3108 12.4888C28.8174 12.0982 28.206 11.8866 27.5767 11.8888L27.5737 11.8858Z" fill="#0C8CE0"/>
</svg>
