<svg width="72" height="72" viewBox="0 0 72 72" fill="none" xmlns="http://www.w3.org/2000/svg">
<g clip-path="url(#clip0_1425_3151)">
<path d="M43.7701 37.26H28.1401C26.5101 37.26 25.1901 35.92 25.1901 34.26C25.1901 32.6 26.5101 31.26 28.1401 31.26H43.7701C44.3701 31.26 44.8501 30.77 44.8501 30.16C44.8501 29.55 44.3601 29.06 43.7701 29.06H20.5401C18.9101 29.06 17.5901 27.72 17.5901 26.06C17.5901 24.4 18.9101 23.06 20.5401 23.06H43.7701C47.6201 23.06 50.7501 26.25 50.7501 30.16C50.7501 34.07 47.6201 37.26 43.7701 37.26Z" fill="#0C8CE0"/>
<path d="M26.5701 48.44C24.9401 48.44 23.6201 47.1 23.6201 45.44V26.06C23.6201 24.4 24.9401 23.06 26.5701 23.06C28.2001 23.06 29.5201 24.4 29.5201 26.06V45.44C29.5201 47.1 28.2001 48.44 26.5701 48.44Z" fill="#0C8CE0"/>
<path d="M48.2201 48.44C42.3601 48.44 40.2701 42.87 39.0201 39.55C38.7301 38.79 38.3201 37.7 38.0201 37.16C36.7601 36.82 35.8301 35.65 35.8301 34.26C35.8301 32.6 37.1501 31.26 38.7801 31.26C42.2101 31.26 43.5001 34.67 44.5301 37.4C45.8401 40.88 46.6901 42.44 48.2301 42.44C49.7701 42.44 50.1701 41.93 50.3201 41.76C51.0401 40.92 50.9901 39.23 50.9501 38.94C50.7301 37.3 51.8501 35.78 53.4701 35.56C55.0801 35.33 56.5701 36.48 56.7901 38.12C56.8501 38.58 57.3301 42.72 54.7701 45.71C53.7001 46.96 51.7001 48.44 48.2401 48.44H48.2201Z" fill="#0C8CE0"/>
<path d="M32.4001 48.44H20.5401C18.9101 48.44 17.5901 47.1 17.5901 45.44C17.5901 43.78 18.9101 42.44 20.5401 42.44H32.4001C34.0301 42.44 35.3501 43.78 35.3501 45.44C35.3501 47.1 34.0301 48.44 32.4001 48.44Z" fill="#0C8CE0"/>
<path fill-rule="evenodd" clip-rule="evenodd" d="M71.59 37.46L68.5 32.1L70.21 26.13C70.56 24.91 70.11 23.59 69.09 22.85L64.11 19.23L63.28 13.07C63.11 11.81 62.18 10.79 60.95 10.54L54.94 9.29L51.71 4.01C51.05 2.93 49.79 2.39 48.57 2.66L42.57 4L37.5 0.51C37.04 0.19 36.51 0.02 35.98 0C35.45 0.02 34.92 0.2 34.46 0.51L29.39 4L23.39 2.66C22.17 2.38 20.91 2.93 20.25 4.01L17.02 9.29L11.01 10.54C9.78 10.79 8.85 11.81 8.68 13.07L7.85 19.23L2.87 22.85C1.85 23.59 1.4 24.91 1.75 26.13L3.46 32.1L0.370003 37.46C-0.259997 38.56 -0.149997 39.95 0.660003 40.92L4.62 45.68L3.95 51.86C3.81 53.12 4.47 54.34 5.6 54.89L11.13 57.61L12.99 63.54C13.37 64.75 14.46 65.58 15.7 65.62L21.84 65.82L25.92 70.48C26.75 71.43 28.07 71.74 29.23 71.26L35.96 68.48L42.69 71.26C43.85 71.74 45.17 71.42 46 70.48L50.08 65.82L56.22 65.62C57.47 65.58 58.55 64.74 58.93 63.54L60.79 57.61L66.32 54.89C67.45 54.34 68.11 53.12 67.97 51.86L67.3 45.68L71.26 40.92C72.07 39.95 72.19 38.56 71.55 37.46H71.59ZM36 4.91C37.57 4.91 38.84 6.2 38.84 7.8C38.84 9.4 37.57 10.69 36 10.69C34.43 10.69 33.16 9.4 33.16 7.8C33.16 6.2 34.43 4.91 36 4.91ZM6.51 27.29C6.51 25.69 7.78 24.4 9.35 24.4C10.92 24.4 12.19 25.69 12.19 27.29C12.19 28.89 10.92 30.18 9.35 30.18C7.78 30.18 6.51 28.89 6.51 27.29ZM18.71 61.3C17.14 61.3 15.87 60.01 15.87 58.41C15.87 56.81 17.14 55.52 18.71 55.52C20.28 55.52 21.55 56.81 21.55 58.41C21.55 60.01 20.28 61.3 18.71 61.3ZM53.28 61.3C51.71 61.3 50.44 60.01 50.44 58.41C50.44 56.81 51.71 55.52 53.28 55.52C54.85 55.52 56.12 56.81 56.12 58.41C56.12 60.01 54.85 61.3 53.28 61.3ZM57.07 53.37L51.79 53.55C50.54 53.59 49.46 54.43 49.08 55.64L47.4 61.01C43.93 62.64 40.07 63.56 36 63.56C31.93 63.56 28.07 62.64 24.6 61.01L22.92 55.64C22.54 54.43 21.46 53.59 20.21 53.55L14.93 53.37C11.11 48.6 8.81 42.52 8.81 35.89C8.81 35.22 8.84 34.56 8.89 33.9L13.27 30.7C14.28 29.96 14.73 28.65 14.38 27.43L12.72 21.59C16.4 15.41 22.38 10.82 29.46 9.04L34.49 12.5C34.95 12.82 35.48 12.99 36.01 13.01C36.54 12.99 37.07 12.81 37.53 12.5L42.56 9.04C49.64 10.82 55.63 15.41 59.3 21.59L57.64 27.43C57.29 28.65 57.74 29.96 58.75 30.7L63.13 33.9C63.18 34.56 63.21 35.22 63.21 35.89C63.21 42.52 60.91 48.61 57.09 53.37H57.07ZM62.55 30.18C60.98 30.18 59.71 28.89 59.71 27.29C59.71 25.69 60.98 24.4 62.55 24.4C64.12 24.4 65.39 25.69 65.39 27.29C65.39 28.89 64.12 30.18 62.55 30.18Z" fill="#0C8CE0"/>
</g>
<defs>
<clipPath id="clip0_1425_3151">
<rect width="72" height="71.5" fill="white"/>
</clipPath>
</defs>
</svg>
