<svg width="72" height="72" viewBox="0 0 72 72" fill="none" xmlns="http://www.w3.org/2000/svg">
<path d="M55.125 2.25H16.875C12.4009 2.25476 8.11148 4.03419 4.94784 7.19784C1.78419 10.3615 0.00476472 14.6509 0 19.125L0 42.189C0.00476472 46.6623 1.78388 50.951 4.94696 54.114C8.11004 57.2771 12.3987 59.0562 16.872 59.061H55.125C59.5985 59.0562 63.8875 57.2772 67.0511 54.1142C70.2147 50.9512 71.9944 46.6625 72 42.189V19.125C71.9952 14.6509 70.2158 10.3615 67.0522 7.19784C63.8885 4.03419 59.5991 2.25476 55.125 2.25ZM66.375 42.189C66.3718 45.1717 65.1855 48.0313 63.0764 50.1404C60.9673 52.2495 58.1077 53.4358 55.125 53.439H16.872C13.8901 53.4358 11.0312 52.2499 8.92268 50.1413C6.81415 48.0328 5.62818 45.1739 5.625 42.192V19.125C5.62818 16.1423 6.81446 13.2827 8.92356 11.1736C11.0327 9.06446 13.8923 7.87818 16.875 7.875H55.125C58.1077 7.87818 60.9673 9.06446 63.0764 11.1736C65.1855 13.2827 66.3718 16.1423 66.375 19.125V42.189ZM52.311 67.5C52.311 68.2455 52.0148 68.9605 51.4877 69.4877C50.9605 70.0148 50.2455 70.311 49.5 70.311H22.5C21.7541 70.311 21.0387 70.0147 20.5113 69.4872C19.9838 68.9598 19.6875 68.2444 19.6875 67.4985C19.6875 66.7526 19.9838 66.0372 20.5113 65.5098C21.0387 64.9823 21.7541 64.686 22.5 64.686H49.5C49.8694 64.686 50.2352 64.7588 50.5764 64.9003C50.9177 65.0417 51.2277 65.249 51.4887 65.5104C51.7498 65.7717 51.9568 66.082 52.0979 66.4233C52.239 66.7647 52.3114 67.1306 52.311 67.5ZM49.542 35.85L47.667 34.725C48.4233 32.36 48.4233 29.818 47.667 27.453L49.542 26.328C50.1606 25.934 50.6009 25.3142 50.7692 24.6004C50.9376 23.8866 50.8206 23.1353 50.4432 22.5065C50.0658 21.8777 49.4579 21.421 48.7488 21.2338C48.0398 21.0465 47.2856 21.1435 46.647 21.504L44.739 22.65C43.1855 21.0913 41.2317 19.9919 39.093 19.473V17.025C39.1053 16.6479 39.0417 16.2722 38.9059 15.9202C38.7701 15.5683 38.5649 15.2472 38.3025 14.9761C38.0401 14.705 37.7259 14.4894 37.3786 14.3422C37.0312 14.195 36.6578 14.1191 36.2805 14.1191C35.9032 14.1191 35.5298 14.195 35.1824 14.3422C34.8351 14.4894 34.5209 14.705 34.2585 14.9761C33.9961 15.2472 33.7909 15.5683 33.6551 15.9202C33.5193 16.2722 33.4557 16.6479 33.468 17.025V19.473C31.2809 20.0049 29.2885 21.1436 27.72 22.758L25.62 21.507C24.9814 21.1465 24.2272 21.0495 23.5182 21.2368C22.8091 21.424 22.2012 21.8807 21.8238 22.5095C21.4464 23.1383 21.3294 23.8896 21.4978 24.6034C21.6661 25.3172 22.1064 25.937 22.725 26.331L24.825 27.597C24.1283 29.8749 24.1283 32.3091 24.825 34.587L22.725 35.853C22.3845 36.031 22.0842 36.2769 21.8424 36.5755C21.6007 36.8741 21.4228 37.2191 21.3196 37.5892C21.2164 37.9593 21.1902 38.3465 21.2425 38.7272C21.2949 39.1078 21.4247 39.4736 21.624 39.8021C21.8232 40.1305 22.0877 40.4147 22.4011 40.6369C22.7144 40.8592 23.07 41.0149 23.4459 41.0943C23.8218 41.1738 24.21 41.1754 24.5865 41.0989C24.963 41.0225 25.3198 40.8697 25.635 40.65L27.735 39.399C29.3035 41.0134 31.2959 42.1521 33.483 42.684V45.15C33.4707 45.5271 33.5343 45.9028 33.6701 46.2547C33.8059 46.6067 34.0111 46.9278 34.2735 47.1989C34.5359 47.47 34.8501 47.6856 35.1974 47.8328C35.5448 47.98 35.9182 48.0559 36.2955 48.0559C36.6728 48.0559 37.0462 47.98 37.3936 47.8328C37.7409 47.6856 38.0551 47.47 38.3175 47.1989C38.5799 46.9278 38.7851 46.6067 38.9209 46.2547C39.0567 45.9028 39.1203 45.5271 39.108 45.15V42.702C41.2467 42.1831 43.2005 41.0837 44.754 39.525L46.662 40.671C47.3006 41.0315 48.0548 41.1285 48.7638 40.9412C49.4729 40.754 50.0808 40.2973 50.4582 39.6685C50.8356 39.0397 50.9526 38.2884 50.7842 37.5746C50.6159 36.8608 50.1756 36.2409 49.557 35.847L49.542 35.85ZM36.282 37.419C35.0309 37.4208 33.8073 37.0516 32.766 36.3581C31.7247 35.6646 30.9123 34.678 30.4317 33.5229C29.951 32.3679 29.8235 31.0962 30.0654 29.8687C30.3073 28.6412 30.9077 27.513 31.7907 26.6266C32.6737 25.7403 33.7996 25.1356 35.0262 24.8891C36.2528 24.6425 37.5249 24.7652 38.6818 25.2415C39.8387 25.7178 40.8284 26.5264 41.5258 27.5651C42.2232 28.6038 42.597 29.8259 42.6 31.077C42.5984 32.7533 41.9326 34.3606 40.7485 35.547C39.5643 36.7334 37.9583 37.4022 36.282 37.407V37.419Z" fill="#0C8CE0"/>
</svg>
