<svg width="72" height="72" viewBox="0 0 72 72" fill="none" xmlns="http://www.w3.org/2000/svg">
<path fill-rule="evenodd" clip-rule="evenodd" d="M34.8372 71.7745C35.2064 71.9228 35.6004 71.9993 35.9983 72C36.4001 72.0019 36.7985 71.9265 37.1719 71.7777C43.9972 68.5764 50.0237 63.8936 54.8132 58.0697C59.9416 52.0433 63.9568 45.1518 66.6711 37.7175C70.3398 27.4097 72.1415 16.5299 71.9913 5.58916C71.9891 5.06253 71.8541 4.54497 71.5989 4.08437C71.3437 3.62377 70.9765 3.23502 70.5313 2.95408C70.0861 2.67314 69.5772 2.5091 69.0518 2.47713C68.5264 2.44515 68.0014 2.54628 67.5255 2.77116C63.8965 4.16638 60.0299 4.8386 56.1432 4.75002C49.6208 4.6752 43.1961 3.15457 37.3315 0.297585C36.9149 0.10161 36.4602 0 35.9998 0C35.5395 0 35.0848 0.10161 34.6682 0.297585C28.8011 3.14852 22.3754 4.66273 15.8533 4.73124C11.9646 4.81594 8.09653 4.14277 4.46482 2.74924C3.98779 2.52581 3.46213 2.42644 2.93651 2.46035C2.41089 2.49426 1.90233 2.66034 1.45794 2.94322C1.01355 3.2261 0.647705 3.61661 0.394305 4.07859C0.140904 4.54057 0.0081434 5.05906 0.00832134 5.58603C-0.138802 16.5273 1.66601 27.4072 5.33796 37.7143C8.05223 45.1486 12.0675 52.0402 17.1959 58.0665C21.9853 63.8905 28.0118 68.5733 34.8372 71.7745ZM21.7087 53.7143C12.3576 42.6959 7.08739 27.6165 6.35507 9.90383C9.46728 10.6399 12.6553 11.0067 15.8533 10.9966C22.8041 10.9398 29.6661 9.42851 35.9983 6.5598C42.3302 9.42958 49.1922 10.942 56.1432 10.9997C59.3412 11.0098 62.5293 10.643 65.6415 9.90696C64.9091 27.6196 59.639 42.6991 50.2878 53.7174C46.3187 58.496 41.4673 62.4654 35.9983 65.409C30.529 62.4645 25.6775 58.494 21.7087 53.7143ZM43.3287 14.8762C41.1934 13.35 38.638 12.523 36.0138 12.509C33.3905 12.5248 30.8365 13.3528 28.7024 14.8793C26.5684 16.4058 24.959 18.5559 24.0955 21.0343C23.2319 23.5127 23.1565 26.1978 23.8795 28.7208C24.6026 31.2438 26.0886 33.4809 28.1336 35.125V47.1328C28.1336 49.2238 28.9639 51.2291 30.4417 52.7077C31.9195 54.1862 33.9239 55.0169 36.0138 55.0169C38.1038 55.0169 40.1082 54.1862 41.586 52.7077C43.0638 51.2291 43.8941 49.2238 43.8941 47.1328V35.125C45.9409 33.4818 47.4286 31.2446 48.1528 28.7211C48.8769 26.1975 48.8019 23.5114 47.9381 21.0323C47.0742 18.5531 45.464 16.4025 43.3287 14.8762ZM37.1668 48.2964C36.8629 48.607 36.4482 48.7842 36.0138 48.7891V48.7923C35.5833 48.7808 35.1745 48.6003 34.8759 48.2898C34.5772 47.9792 34.4127 47.5637 34.4178 47.1328V33.4905C34.4167 32.942 34.2715 32.4033 33.9969 31.9286C33.7223 31.4538 33.3278 31.0595 32.853 30.7852C31.6356 30.0857 30.6832 29.0035 30.1438 27.7068C29.6043 26.41 29.508 24.9713 29.8698 23.6142C30.2316 22.2571 31.0313 21.0575 32.1446 20.2018C33.2579 19.3461 34.6225 18.8822 36.0264 18.8822C37.4303 18.8822 38.7948 19.3461 39.9081 20.2018C41.0214 21.0575 41.8211 22.2571 42.1829 23.6142C42.5447 24.9713 42.4484 26.41 41.909 27.7068C41.3695 29.0035 40.4171 30.0857 39.1997 30.7852C38.7249 31.0595 38.3304 31.4538 38.0558 31.9286C37.7812 32.4033 37.6361 32.942 37.635 33.4905V47.1328C37.6391 47.5674 37.4708 47.9859 37.1668 48.2964Z" fill="#0C8CE0"/>
</svg>
