<svg width="128" height="128" viewBox="0 0 128 128" fill="none" xmlns="http://www.w3.org/2000/svg">
<path fill-rule="evenodd" clip-rule="evenodd" d="M61.9328 127.599C62.5891 127.863 63.2897 127.999 63.9969 128C64.7113 128.003 65.4196 127.869 66.0833 127.605C78.2173 121.914 88.9311 113.589 97.4456 103.235C106.563 92.5214 113.701 80.2698 118.526 67.0533C125.049 48.7284 128.251 29.3865 127.985 9.93628C127.981 9.00005 127.741 8.07994 127.287 7.2611C126.833 6.44226 126.18 5.75115 125.389 5.2517C124.597 4.75226 123.693 4.46062 122.759 4.40378C121.825 4.34694 120.891 4.52672 120.045 4.92651C113.594 7.4069 106.72 8.60196 99.8102 8.44448C88.2148 8.31146 76.793 5.60812 66.367 0.529041C65.6264 0.18064 64.8181 0 63.9997 0C63.1813 0 62.373 0.18064 61.6324 0.529041C51.202 5.59737 39.7784 8.2893 28.1836 8.41108C21.2703 8.56167 14.3938 7.36492 7.93745 4.88754C7.08941 4.49033 6.15489 4.31367 5.22046 4.37396C4.28603 4.43424 3.38191 4.7295 2.59189 5.23239C1.80186 5.73529 1.15148 6.42954 0.700986 7.25083C0.250497 8.07212 0.0144772 8.99388 0.0147935 9.93072C-0.246758 29.3819 2.9618 48.7239 9.48971 67.0477C14.3151 80.2642 21.4533 92.5159 30.5704 103.229C39.085 113.583 49.7988 121.908 61.9328 127.599ZM38.5932 95.4921C21.969 75.9039 12.5998 49.096 11.2979 17.6068C16.8307 18.9154 22.4983 19.5674 28.1836 19.5495C40.5406 19.4486 52.7398 16.7618 63.9969 11.6619C75.2536 16.7637 87.4528 19.4524 99.8102 19.555C105.495 19.573 111.163 18.9209 116.696 17.6124C115.394 49.1016 106.025 75.9094 89.4006 95.4976C82.3444 103.993 73.7196 111.05 63.9969 116.283C54.2737 111.048 45.6489 103.989 38.5932 95.4921ZM77.0288 26.4466C73.2328 23.7332 68.6898 22.2631 64.0246 22.2382C59.3609 22.2663 54.8204 23.7383 51.0265 26.4521C47.2327 29.1659 44.3716 32.9883 42.8364 37.3943C41.3012 41.8003 41.1671 46.5738 42.4525 51.0592C43.7379 55.5445 46.3798 59.5217 50.0153 62.4444V83.7916C50.0153 87.5089 51.4913 91.074 54.1185 93.7025C56.7458 96.3311 60.3091 97.8078 64.0246 97.8078C67.7401 97.8078 71.3034 96.3311 73.9307 93.7025C76.5579 91.074 78.0339 87.5089 78.0339 83.7916V62.4444C81.6726 59.5232 84.3175 55.546 85.6049 51.0597C86.8923 46.5733 86.759 41.7981 85.2233 37.3907C83.6875 32.9832 80.8248 29.16 77.0288 26.4466ZM66.0744 85.8603C65.534 86.4124 64.7969 86.7274 64.0246 86.7362V86.7418C63.2592 86.7214 62.5325 86.4005 62.0016 85.8485C61.4706 85.2964 61.1781 84.5576 61.1871 83.7916V59.5387C61.1852 58.5635 60.9272 57.6059 60.4389 56.7619C59.9507 55.9178 59.2494 55.2169 58.4053 54.7293C56.2411 53.4857 54.5479 51.5618 53.5889 49.2565C52.6299 46.9511 52.4587 44.3935 53.1019 41.9808C53.7451 39.5681 55.1668 37.4355 57.146 35.9143C59.1251 34.3931 61.5511 33.5684 64.0469 33.5684C66.5427 33.5684 68.9686 34.3931 70.9478 35.9143C72.927 37.4355 74.3486 39.5681 74.9918 41.9808C75.635 44.3935 75.4638 46.9511 74.5048 49.2565C73.5458 51.5618 71.8527 53.4857 69.6884 54.7293C68.8443 55.2169 68.143 55.9178 67.6548 56.7619C67.1666 57.6059 66.9086 58.5635 66.9066 59.5387V83.7916C66.914 84.5642 66.6147 85.3082 66.0744 85.8603Z" fill="#0C8CE0"/>
</svg>
