<svg width="72" height="72" viewBox="0 0 72 72" fill="none" xmlns="http://www.w3.org/2000/svg">
<path d="M47.9311 26.1806C57.798 27.3237 65.647 35.1638 66.8038 45.0265L64.4934 45.0266C63.103 45.0266 61.9688 46.1486 61.9688 47.5512C61.9688 48.9538 63.103 50.0758 64.4934 50.0758H69.5005C69.6011 50.0758 69.6906 50.07 69.77 50.0588C71.0319 49.9131 72.0002 48.8426 72.0002 47.551C72.0002 32.9156 60.0967 21 45.4491 21C38.6507 21 32.4409 23.5668 27.7365 27.7811H2.52461C1.13424 27.7811 0 28.9153 0 30.3057C0 31.696 1.13424 32.8303 2.52461 32.8303H23.3503C22.5745 33.9891 21.8873 35.212 21.2985 36.4891H7.88158C6.70455 36.4891 5.74434 37.585 5.74434 38.9284C5.74434 40.2717 6.70455 41.3676 7.88158 41.3676H19.6058C19.3197 42.5584 19.114 43.78 18.9948 45.0265H9.61065C8.22028 45.0265 7.08604 46.1485 7.08604 47.5511C7.08604 48.9536 8.22028 50.0757 9.61065 50.0757H21.3921L21.4018 50.0756C21.5785 50.0754 21.7512 50.0568 21.9178 50.0217C23.0605 49.781 23.9229 48.7634 23.9229 47.551C23.9229 36.5486 32.2158 27.4542 42.8819 26.1877V28.7324C42.8819 30.1227 44.0161 31.257 45.4065 31.257C46.7969 31.257 47.9311 30.1227 47.9311 28.7324V26.1806Z" fill="#0C8CE0"/>
<path d="M42.9914 48.3073C43.3329 49.3806 44.3208 50.0635 45.3941 50.0635L45.3819 50.0757C45.638 50.0757 45.8941 50.0392 46.1502 49.9538L59.2977 45.7827C60.6271 45.368 61.371 43.9533 60.9442 42.6239C60.5295 41.2945 59.1269 40.5505 57.7854 40.9774L44.6379 45.1485C43.3085 45.5632 42.5645 46.9779 42.9914 48.3073Z" fill="#0C8CE0"/>
</svg>
