<svg width="72" height="72" viewBox="0 0 72 72" fill="none" xmlns="http://www.w3.org/2000/svg">
<g clip-path="url(#clip0_607_183)">
<path fill-rule="evenodd" clip-rule="evenodd" d="M25.3136 34.7686C28.4355 36.8546 32.1059 37.968 35.8605 37.968C40.8937 37.9624 45.7191 35.9606 49.2781 32.4016C52.8371 28.8426 54.839 24.0172 54.8445 18.984C54.8445 15.2293 53.7311 11.559 51.6451 8.43706C49.5592 5.31516 46.5943 2.88193 43.1254 1.44508C39.6565 0.00822545 35.8395 -0.367721 32.1569 0.364781C28.4744 1.09728 25.0918 2.90533 22.4368 5.56029C19.7819 8.21525 17.9738 11.5979 17.2413 15.2804C16.5088 18.9629 16.8847 22.78 18.3216 26.2489C19.7584 29.7177 22.1917 32.6826 25.3136 34.7686ZM28.4386 7.87641C30.6355 6.4085 33.2184 5.62501 35.8605 5.62501C39.4023 5.62898 42.7979 7.03771 45.3024 9.54215C47.8068 12.0466 49.2156 15.4422 49.2195 18.984C49.2195 21.6262 48.436 24.209 46.9681 26.4059C45.5002 28.6027 43.4138 30.315 40.9728 31.3261C38.5318 32.3372 35.8457 32.6018 33.2543 32.0863C30.6629 31.5709 28.2826 30.2985 26.4143 28.4302C24.546 26.562 23.2737 24.1816 22.7582 21.5902C22.2428 18.9988 22.5073 16.3128 23.5184 13.8717C24.5295 11.4307 26.2418 9.34431 28.4386 7.87641ZM59.9548 71.786C60.2958 71.9273 60.6614 72 61.0305 72C61.3999 72 61.7657 71.9272 62.1069 71.7857C62.4482 71.6443 62.7582 71.437 63.0193 71.1756C63.2803 70.9143 63.4873 70.6041 63.6284 70.2627C63.7695 69.9213 63.8419 69.5554 63.8415 69.186C63.8336 62.4008 61.1346 55.8957 56.3367 51.0978C51.5388 46.2999 45.0337 43.6009 38.2485 43.593H34.0305C27.2447 43.6009 20.7392 46.3003 15.9412 51.0989C11.1432 55.8974 8.44465 62.4033 8.4375 69.189C8.46135 69.9191 8.7681 70.6112 9.29295 71.1191C9.81779 71.6271 10.5196 71.9112 11.25 71.9112C11.9804 71.9112 12.6822 71.6271 13.2071 71.1191C13.7319 70.6112 14.0387 69.9191 14.0625 69.189C14.0689 63.8951 16.1747 58.8199 19.918 55.0765C23.6614 51.3332 28.7366 49.2274 34.0305 49.221H38.2515C43.5454 49.2274 48.6207 51.3332 52.364 55.0765C56.1074 58.8199 58.2132 63.8951 58.2195 69.189C58.2195 69.5582 58.2922 69.9236 58.4335 70.2647C58.5747 70.6057 58.7818 70.9156 59.0428 71.1766C59.3038 71.4377 59.6137 71.6448 59.9548 71.786Z" fill="#0C8CE0"/>
</g>
<defs>
<clipPath id="clip0_607_183">
<rect width="72" height="72" fill="white"/>
</clipPath>
</defs>
</svg>
