<svg width="72" height="72" viewBox="0 0 72 72" fill="none" xmlns="http://www.w3.org/2000/svg">
<path d="M10.0312 67.6171C7.37268 67.6171 4.82243 66.5618 2.94141 64.683C1.06039 62.8042 0.00318011 60.2554 0 57.5968V27.7469C0.00317405 25.087 1.06081 22.5368 2.94141 20.6556C4.822 18.7745 7.3713 17.716 10.0312 17.712H14.7598C14.7418 17.439 14.7305 17.1662 14.7305 16.8932C14.7841 13.2395 16.2703 9.75336 18.873 7.1886C21.4757 4.62384 24.9866 3.18665 28.6406 3.18665C32.2947 3.18665 35.7996 4.62384 38.4023 7.1886C41.005 9.75336 42.4971 13.2395 42.5508 16.8932C42.5508 17.1662 42.5515 17.439 42.5215 17.712H54.5918C57.2528 17.7144 59.8056 18.7721 61.6875 20.6534C63.5694 22.5348 64.6316 25.086 64.6348 27.7469V32.4418H69.1348C69.8931 32.4449 70.6139 32.7474 71.1504 33.2833C71.6869 33.8193 71.9902 34.5457 71.9941 35.3041V50.0338C71.991 50.7924 71.6929 51.5192 71.1562 52.0553C70.6196 52.5914 69.8934 52.8937 69.1348 52.8961H64.6348V57.5939C64.6316 60.2535 63.5698 62.8033 61.6875 64.6823C59.8052 66.5612 57.2514 67.6157 54.5918 67.6141L10.0312 67.6171ZM5.72461 57.5968C5.72779 58.737 6.18259 59.8293 6.99023 60.6342C7.79788 61.439 8.89105 61.8911 10.0312 61.8903H54.5977C55.7382 61.8903 56.8302 61.4387 57.6387 60.6342C58.4471 59.8297 58.9046 58.7373 58.9102 57.5968V52.899H54.4102C51.6974 52.899 49.0979 51.8217 47.1797 49.9034C45.2615 47.9852 44.1797 45.3835 44.1797 42.6708C44.1797 39.958 45.2615 37.3563 47.1797 35.4381C49.0979 33.5199 51.6974 32.4418 54.4102 32.4418H58.9102V27.7469C58.9054 26.6053 58.4521 25.5122 57.6445 24.7052C56.837 23.8982 55.7393 23.4428 54.5977 23.4388H39.1816C39.0817 23.4444 38.9827 23.4444 38.8828 23.4388H10.0195C8.87771 23.4412 7.78591 23.8963 6.97852 24.7037C6.17112 25.5111 5.71527 26.6051 5.71289 27.7469V32.4418H16.3887L21.0527 27.777C21.5906 27.2407 22.3206 26.9402 23.0801 26.9413C23.8396 26.9424 24.5653 27.245 25.1016 27.7828C25.6378 28.3207 25.9406 29.0499 25.9395 29.8094C25.9383 30.569 25.6336 31.2969 25.0957 31.8331L19.5938 37.3351C19.3293 37.6002 19.0198 37.8101 18.6738 37.9532C18.3278 38.0964 17.9526 38.1702 17.5781 38.1693H5.71289V47.1693H24.9434C25.3187 47.1714 25.6931 47.247 26.0391 47.3927C26.385 47.5384 26.6952 47.7511 26.959 48.0182L32.4609 53.5201C32.7272 53.785 32.9379 54.0999 33.082 54.4467C33.2262 54.7934 33.3047 55.1646 33.3047 55.5402C33.3047 55.9157 33.2262 56.2877 33.082 56.6344C32.9379 56.9811 32.7272 57.2961 32.4609 57.5609C32.2002 57.8303 31.8922 58.0442 31.5469 58.1901C31.2015 58.3359 30.8261 58.4107 30.4512 58.4098C30.0728 58.4104 29.6988 58.3358 29.3496 58.1901C29.0004 58.0443 28.6837 57.8304 28.418 57.5609L23.7539 52.9078H5.71289L5.72461 57.5968ZM66.2754 47.1598V38.1598H54.4043C53.2108 38.1598 52.0666 38.6342 51.2227 39.4781C50.3787 40.3221 49.9043 41.4663 49.9043 42.6598C49.9043 43.8533 50.3787 44.9982 51.2227 45.8422C52.0666 46.6861 53.2108 47.1598 54.4043 47.1598H66.2754ZM36.7676 17.712C36.7982 17.4401 36.8131 17.1669 36.8145 16.8932C36.7734 14.751 35.8947 12.7101 34.3652 11.2096C32.8357 9.70912 30.7774 8.86877 28.6348 8.86877C26.4922 8.86877 24.4396 9.70912 22.9102 11.2096C21.3807 12.7101 20.4961 14.751 20.4551 16.8932C20.4564 17.1669 20.4772 17.4401 20.5078 17.712H36.7676Z" fill="#0C8CE0"/>
</svg>
