<svg width="72" height="72" viewBox="0 0 72 72" fill="none" xmlns="http://www.w3.org/2000/svg">
<g clip-path="url(#clip0_1336_1547)">
<path d="M16.3678 54.833C16.9057 55.1399 17.5105 55.2683 18.1122 55.2552L18.1468 55.219C19.3856 55.192 20.5751 54.5286 21.1874 53.3821L31.4657 34.3544C31.9081 33.5303 31.9934 32.5723 31.7255 31.6575C31.4584 30.7781 30.8397 30.0126 30.0156 29.5702C28.9768 29.0264 28.0403 28.3032 27.2431 27.4707C23.1108 23.0993 23.2785 16.1905 27.65 12.0582C29.7665 10.0644 32.5771 9.04686 35.4463 9.0904C38.3517 9.16857 41.0695 10.384 43.0625 12.4651C45.2372 14.7547 46.2971 17.8831 45.9766 21.0416C45.8067 22.9929 47.225 24.6971 49.177 24.9023C51.1283 25.0721 52.8325 23.6539 53.0377 21.7018C53.5257 16.4858 51.7847 11.3538 48.1964 7.57246C44.8983 4.10345 40.4292 2.14727 35.6102 2.00468C30.8274 1.89671 26.2272 3.66152 22.7928 6.92352C15.6124 13.773 15.3305 25.1814 22.1446 32.3626C22.6517 32.8827 23.1942 33.402 23.7352 33.8505L14.9531 50.048C13.9992 51.7686 14.6481 53.9145 16.3678 54.833Z" fill="#0C8CE0"/>
<path d="M54.4396 69.6529C50.5462 69.7379 46.6959 68.5473 43.494 66.2447C41.9112 65.1107 41.5439 62.8879 42.6779 61.305C43.8118 59.7222 46.0347 59.3549 47.6175 60.4889C50.2077 62.3445 53.4447 63.0174 56.5093 62.2776C59.3277 61.6141 61.6981 59.898 63.2367 57.3856C64.7753 54.8732 65.2782 51.9586 64.6154 49.1756C63.2482 43.3273 57.3609 39.667 51.5134 41.0695C50.3862 41.342 49.2982 41.7907 48.3196 42.3787C47.5156 42.8566 46.5277 43.0198 45.6374 42.7914C44.7117 42.5637 43.9199 41.979 43.442 41.175L32.2024 22.6883C31.1743 21.0111 31.7288 18.8389 33.3707 17.8115C35.0479 16.7834 37.2201 17.3379 38.2475 18.9798L47.834 34.7406C48.5011 34.4781 49.2051 34.2857 49.9099 34.1286C59.5629 31.8639 69.2546 37.849 71.5193 47.5021C72.6124 52.1524 71.8327 56.9853 69.2664 61.0782C66.7354 65.1703 62.7616 68.0546 58.1112 69.1477C56.8779 69.4225 55.6422 69.5912 54.4388 69.6175L54.4396 69.6529Z" fill="#0C8CE0"/>
<path d="M18.3577 69.733C16.3756 69.7763 14.3866 69.501 12.4606 68.8703C7.89619 67.412 4.21488 64.2346 1.99613 59.9276C-0.18722 55.6198 -0.611706 50.7778 0.882034 46.2126C2.47422 41.2911 6.13936 37.245 10.9812 35.1916C12.77 34.4089 14.8422 35.2489 15.6257 37.0732C16.4084 38.862 15.5684 40.9342 13.7442 41.7177C10.7966 42.9506 8.58397 45.4069 7.62173 48.367C6.72564 51.1132 6.9668 54.047 8.33436 56.6729C9.66577 59.2643 11.9035 61.1984 14.6497 62.0945C17.3959 62.9905 20.3651 62.7486 22.9556 61.3818C25.547 60.0504 27.4811 57.8127 28.3771 55.0665C28.7425 53.9608 28.9294 52.7881 28.9038 51.6201C28.883 50.6645 29.253 49.7712 29.9469 49.1186C30.6055 48.4668 31.4826 48.0936 32.4382 48.0727L54.0731 48.0249C56.0206 48.0178 57.6135 49.6119 57.6206 51.5593C57.6278 53.5067 55.9983 55.1004 54.0862 55.1068L35.6383 55.1557C35.5122 55.8667 35.3153 56.5792 35.0822 57.2571C33.6239 61.8215 30.4465 65.5029 26.1395 67.7216C23.6637 68.9744 21.0354 69.6689 18.3577 69.733Z" fill="#0C8CE0"/>
</g>
<defs>
<clipPath id="clip0_1336_1547">
<rect width="72" height="72" fill="white"/>
</clipPath>
</defs>
</svg>
