<svg width="72" height="72" viewBox="0 0 72 72" fill="none" xmlns="http://www.w3.org/2000/svg">
<path d="M21.175 45.4265C20.9175 45.1749 20.9565 44.8775 21.2729 44.7253C21.8007 44.5069 22.318 44.2887 22.8352 44.0706C23.3524 43.8524 23.8696 43.6342 24.3974 43.4159C24.4817 43.3725 24.5661 43.329 24.6295 43.3071C25.6666 43.104 26.0181 42.315 26.3685 41.4411C26.5997 40.8674 26.8509 40.2867 27.1033 39.7031C27.3011 39.246 27.4996 38.7871 27.6899 38.3283C27.9581 37.6889 28.2212 37.0548 28.4842 36.4207C28.7473 35.7863 29.0105 35.152 29.2788 34.5124C29.3528 34.3421 29.4271 34.1715 29.5016 34.0005C29.9684 32.9289 30.4421 31.8415 30.8683 30.7388L30.9731 30.6315C31.2641 30.1189 31.4333 30.0745 31.862 30.4514C32.5819 31.054 33.2481 31.7115 33.9143 32.369C34.0808 32.5334 34.2473 32.6978 34.4147 32.8613C34.5864 33.029 34.6308 33.1982 34.5489 33.4537C34.3208 34.1656 34.0104 34.851 33.7015 35.5331C33.5392 35.8915 33.3773 36.249 33.228 36.6089C33.0319 37.0673 32.8251 37.5258 32.6183 37.9844C32.4115 38.4429 32.2047 38.9014 32.0085 39.3598C31.9409 39.5069 31.8678 39.654 31.7941 39.8021C31.6648 40.0622 31.5339 40.3255 31.4289 40.5971C31.4182 40.6193 31.4002 40.643 31.3814 40.6679C31.3281 40.7383 31.2682 40.8175 31.3476 40.895C31.4025 40.9486 31.5024 40.8937 31.5829 40.8495C31.5968 40.8419 31.6102 40.8345 31.6226 40.8282C32.2723 40.5818 32.9091 40.252 33.5341 39.9283C33.7421 39.8206 33.9487 39.7136 34.1541 39.6106C34.6788 39.3571 35.2002 39.094 35.7209 38.8314C36.54 38.4181 37.3573 38.0058 38.183 37.633C38.2357 37.6005 38.2938 37.5839 38.352 37.5674C38.4101 37.5508 38.4683 37.5342 38.5209 37.5017C38.8374 37.3495 39.029 37.411 39.2651 37.6416C39.8077 38.0878 40.2945 38.5913 40.7812 39.0947C41.0246 39.3465 41.2679 39.5982 41.5183 39.8428C41.6099 39.9323 41.6706 40.0222 41.7402 40.1252C41.7521 40.1428 41.7642 40.1607 41.7768 40.1792C41.9934 40.5585 41.9729 40.6224 41.5936 40.839C40.9032 41.2399 40.1473 41.5555 39.3957 41.8693C39.0921 41.996 38.7892 42.1225 38.4916 42.2542C37.6595 42.6357 36.7934 43.0062 35.9346 43.3737C35.6173 43.5095 35.301 43.6448 34.9877 43.7801C33.6581 44.3684 32.3494 44.9353 30.9983 45.5027C29.7471 46.0106 28.5322 46.5539 27.3172 47.0972C26.9124 47.2782 26.5076 47.4592 26.1014 47.6389C25.6792 47.8135 25.236 48.0097 24.7928 48.2058C24.4549 48.337 24.1579 48.3405 23.8575 48.047L21.175 45.4265Z" fill="#0C8CE0"/>
<path fill-rule="evenodd" clip-rule="evenodd" d="M61.9396 26.9772L61.0114 26.0491L70.6277 16.4341C71.7993 15.2626 71.7993 13.3632 70.6277 12.1917L59.8069 1.37228C58.6352 0.200777 56.7356 0.200778 55.564 1.37228L45.9477 10.9873L45.0286 10.0683C41.5137 6.55385 35.8148 6.55384 32.2999 10.0683L2.72092 39.6436C-0.794014 43.1581 -0.794023 48.8562 2.72092 52.3707L19.6319 69.2795C23.1468 72.794 28.8456 72.794 32.3606 69.2795L61.9396 39.7043C65.4545 36.1898 65.4545 30.4917 61.9396 26.9772ZM56.7685 21.8068L50.1906 15.2297L57.6854 7.73584L64.2633 14.3129L56.7685 21.8068ZM23.8748 65.0372C25.0464 66.2087 26.946 66.2087 28.1177 65.0372L57.6966 35.4619C58.8683 34.2904 58.8683 32.391 57.6966 31.2195L40.7857 14.3107C39.6141 13.1392 37.7144 13.1392 36.5428 14.3107L6.96383 43.886C5.79218 45.0575 5.79218 46.9568 6.96383 48.1283L23.8748 65.0372Z" fill="#0C8CE0"/>
</svg>
