<svg width="128" height="128" viewBox="0 0 128 128" fill="none" xmlns="http://www.w3.org/2000/svg">
<path d="M97.3105 128C93.9035 127.986 90.6414 126.62 88.2413 124.201C85.8412 121.783 84.4993 118.511 84.5107 115.104V104.486C84.5107 103.16 85.0375 101.888 85.9751 100.95C86.9128 100.013 88.1845 99.4858 89.5106 99.4858C90.8367 99.4858 92.1084 100.013 93.0461 100.95C93.9837 101.888 94.5105 103.16 94.5105 104.486V115.104C94.4871 115.672 94.6401 116.233 94.9486 116.711C95.257 117.188 95.7058 117.559 96.2331 117.771C96.7326 117.984 97.2852 118.039 97.817 117.929C98.3488 117.82 98.8345 117.551 99.2091 117.158L114.985 101.52C115.944 100.567 116.705 99.433 117.225 98.1841C117.744 96.9352 118.012 95.5959 118.012 94.2432C118.012 92.8906 117.744 91.5513 117.225 90.3024C116.705 89.0535 115.944 87.9196 114.985 86.966L99.1931 71.3236C98.8185 70.9306 98.3328 70.6612 97.801 70.5516C97.2692 70.442 96.7166 70.4974 96.2171 70.7103C95.6898 70.9224 95.241 71.2927 94.9325 71.7702C94.6241 72.2477 94.4711 72.8089 94.4945 73.3769V84.4967C94.4945 85.8221 93.968 87.0932 93.0309 88.0303C92.0937 88.9675 90.8226 89.494 89.4973 89.494H29.9996C28.6735 89.494 27.4018 90.0208 26.4641 90.9584C25.5265 91.8961 24.9997 93.1678 24.9997 94.4939C24.9997 95.82 25.5265 97.0917 26.4641 98.0294C27.4018 98.967 28.6735 99.4938 29.9996 99.4938H37.9995C39.3255 99.4938 40.5973 100.021 41.5349 100.958C42.4726 101.896 42.9994 103.168 42.9994 104.494C42.9994 105.82 42.4726 107.092 41.5349 108.029C40.5973 108.967 39.3255 109.494 37.9995 109.494H29.9996C26.0214 109.494 22.2062 107.913 19.3932 105.1C16.5802 102.287 14.9998 98.4721 14.9998 94.4939C14.9998 90.5157 16.5802 86.7005 19.3932 83.8875C22.2062 81.0745 26.0214 79.4941 29.9996 79.4941H84.4947V73.3662C84.4803 70.8269 85.2216 68.3406 86.6244 66.2237C88.0271 64.1068 90.0277 62.455 92.3719 61.4785C94.6909 60.4888 97.2544 60.221 99.728 60.71C102.202 61.199 104.47 62.4221 106.238 64.2197L122.014 79.8568C123.91 81.7404 125.415 83.9806 126.442 86.4483C127.469 88.9159 127.998 91.5624 127.998 94.2352C127.998 96.9081 127.469 99.5545 126.442 102.022C125.415 104.49 123.91 106.73 122.014 108.614L106.233 124.267C105.064 125.445 103.674 126.381 102.143 127.022C100.612 127.662 98.9701 127.995 97.3105 128ZM75.4922 104.486C75.4922 103.16 74.9657 101.889 74.0285 100.952C73.0913 100.015 71.8203 99.4885 70.4949 99.4885H57.0071C55.6811 99.4885 54.4093 100.015 53.4717 100.953C52.534 101.891 52.0072 103.162 52.0072 104.488C52.0072 105.814 52.534 107.086 53.4717 108.024C54.4093 108.962 55.6811 109.488 57.0071 109.488H70.5056C71.1618 109.488 71.8115 109.358 72.4175 109.106C73.0236 108.854 73.5741 108.485 74.0376 108.021C74.5011 107.556 74.8687 107.005 75.1191 106.398C75.3696 105.792 75.4982 105.142 75.4975 104.486H75.4922ZM35.8075 66.4704C38.1704 65.5196 40.192 63.8789 41.6086 61.7621C43.0251 59.6453 43.7709 57.1508 43.7487 54.6039V48.988H97.9931C101.971 48.988 105.787 47.4077 108.6 44.5947C111.413 41.7817 112.993 37.9664 112.993 33.9882C112.993 30.0101 111.413 26.1948 108.6 23.3818C105.787 20.5688 101.971 18.9885 97.9931 18.9885H43.7487V12.8713C43.7709 10.3243 43.0251 7.82982 41.6086 5.71306C40.192 3.5963 38.1704 1.95555 35.8075 1.0048C33.4588 0.017671 30.8698 -0.249783 28.3689 0.236352C25.8679 0.722487 23.5677 1.94031 21.7597 3.73542L5.984 19.3618C4.08768 21.2455 2.5827 23.4856 1.55571 25.9533C0.528718 28.421 0 31.0674 0 33.7402C0 36.4131 0.528718 39.0595 1.55571 41.5272C2.5827 43.9949 4.08768 46.235 5.984 48.1187L21.7597 63.7557C22.9515 64.9434 24.3656 65.8844 25.9213 66.5249C27.4771 67.1655 29.1438 67.4931 30.8262 67.489C32.5375 67.4806 34.2303 67.1344 35.8075 66.4704ZM31.9409 10.2366C32.4723 10.4405 32.9285 10.8023 33.2479 11.2734C33.5674 11.7445 33.7348 12.3021 33.7275 12.8713V24.0017C33.7275 25.3271 34.254 26.5982 35.1912 27.5353C36.1284 28.4725 37.3994 28.999 38.7248 28.999H97.9931C99.3192 28.999 100.591 29.5258 101.529 30.4634C102.466 31.4011 102.993 32.6729 102.993 33.9989C102.993 35.325 102.466 36.5967 101.529 37.5344C100.591 38.4721 99.3192 38.9988 97.9931 38.9988H38.7461C37.4208 38.9988 36.1497 39.5253 35.2125 40.4625C34.2754 41.3997 33.7489 42.6707 33.7489 43.9961V54.6146C33.7367 55.1825 33.5593 55.7345 33.2384 56.2032C32.9175 56.6719 32.467 57.0369 31.9419 57.2536C31.4168 57.4703 30.84 57.5293 30.2819 57.4234C29.7239 57.3175 29.2088 57.0512 28.7996 56.6572L13.0239 41.0148C12.0646 40.0612 11.3033 38.9273 10.7838 37.6784C10.2643 36.4295 9.99692 35.0902 9.99692 33.7376C9.99692 32.3849 10.2643 31.0457 10.7838 29.7968C11.3033 28.5479 12.0646 27.414 13.0239 26.4604L28.7996 10.8233C29.0524 10.5588 29.3562 10.3482 29.6926 10.2043C30.029 10.0604 30.391 9.98615 30.7569 9.98598C31.1639 9.99347 31.5658 10.0785 31.9409 10.2366Z" fill="#0C8CE0"/>
</svg>
