<?xml version="1.0" encoding="utf-8"?>
<!-- Generator: Adobe Illustrator 27.0.0, SVG Export Plug-In . SVG Version: 6.00 Build 0)  -->
<svg version="1.2" baseProfile="tiny" id="Layer_1" xmlns="http://www.w3.org/2000/svg" xmlns:xlink="http://www.w3.org/1999/xlink"
	 x="0px" y="0px" viewBox="0 0 1920 1080" overflow="visible" xml:space="preserve">
<g id="Layer_1_00000078759510522448670450000013251091756950555014_">
	<polyline fill="none" stroke="#58C9ED" stroke-width="1.5" stroke-miterlimit="10" points="23.19,505.39 -356.63,623.23 
		-185.23,733.83 	"/>
	<path fill="none" stroke="#58C9ED" stroke-width="1.5" stroke-miterlimit="10" d="M148.65,545.55c0,0,465.67,5.57,460.14,1.66"/>
	<line fill="none" stroke="#58C9ED" stroke-width="1.5" stroke-miterlimit="10" x1="682.5" y1="584.66" x2="944.94" y2="762.54"/>
	<path fill="none" stroke="#58C9ED" stroke-width="1.5" stroke-miterlimit="10" d="M-749.78,543.66l168.71,194.76
		c14.67,16.94,36.89,25.34,59.1,22.34l96.89-13.07c14.59-1.97,29.42,0.97,42.17,8.34l186.12,107.75"/>
	<path fill="none" stroke="#58C9ED" stroke-width="1.5" stroke-miterlimit="10" d="M608.78,547.21"/>
	<path fill="none" stroke="#58C9ED" stroke-width="1.5" stroke-miterlimit="10" d="M188.21,645.93h166.43
		c10.57,0,20.71-4.2,28.18-11.67l17.5-17.5c7.47-7.47,17.61-11.67,28.18-11.67h147.04"/>
	<path fill="none" stroke="#58C9ED" stroke-width="1.5" stroke-miterlimit="10" d="M188.21,625.5h154.22
		c10.57,0,20.71-4.2,28.18-11.67l17.5-17.5c7.47-7.47,17.61-11.67,28.18-11.67h266.2"/>
	<path fill="none" stroke="#58C9ED" stroke-width="1.5" stroke-miterlimit="10" d="M-452.6,268.87h-63.93
		c-13.38,0-26.21,5.31-35.67,14.77l-48,48c-9.46,9.46-22.29,14.77-35.67,14.77h-97.18"/>
	<path fill="none" stroke="#58C9ED" stroke-width="1.5" stroke-miterlimit="10" d="M-87.91,136.45h58.29
		c10.53,0,20.65,4.08,28.23,11.38l131.17,126.31c7.58,7.3,17.7,11.38,28.23,11.38h96.4"/>
	<path fill="none" stroke="#58C9ED" stroke-width="1.5" stroke-miterlimit="10" d="M-157.66,107.42h-237.05
		c-13,0-25.46,5.16-34.65,14.35l-74.98,74.98c-9.19,9.19-21.66,14.35-34.65,14.35h-60.33c-13,0-25.46,5.16-34.65,14.35
		L-739.7,331.17"/>
</g>
<g id="Layer_4">
	<path fill="none" stroke="#58C9ED" stroke-width="1.5" stroke-miterlimit="10" d="M362.08,350.15V325.7
		c0-4.09-1.38-8.06-3.93-11.27l-1.22-1.53c-2.54-3.21-3.93-7.18-3.93-11.27v-16.11"/>
	<path fill="none" stroke="#58C9ED" stroke-width="1.5" stroke-miterlimit="10" d="M310.52,413.85v28.95c0,8.7-3.46,17.04-9.61,23.2
		l-16.03,16.03c-6.15,6.15-14.5,9.61-23.2,9.61h-51.46c-9.49,0-18.52,4.11-24.75,11.27l-32.46,37.31"/>
	<path fill="none" stroke="#58C9ED" stroke-width="1.5" stroke-miterlimit="10" d="M-241.56,502.7v32.91
		c0,5.15-2.04,10.08-5.68,13.72l-18.05,18.05c-3.64,3.64-8.58,5.68-13.72,5.68h-35.18c-6.49,0-12.55,3.24-16.15,8.64l-23.56,35.31"
		/>
	<path fill="none" stroke="#58C9ED" stroke-width="1.5" stroke-miterlimit="10" d="M-250.78,493.49v32.91
		c0,5.15-2.04,10.08-5.68,13.72l-18.05,18.05c-3.64,3.64-8.58,5.68-13.72,5.68h-35.18c-6.49,0-12.55,3.24-16.15,8.64l-30.51,45.74"
		/>
	<path fill="none" stroke="#58C9ED" stroke-width="1.5" stroke-miterlimit="10" d="M-344.11,272.32l55.85-76.84
		c4.28-5.89,11.12-9.37,18.39-9.37h24.83c6.83,0,13.36-2.76,18.13-7.65l69.25-71.04"/>
	<path fill="none" stroke="#58C9ED" stroke-width="1.5" stroke-miterlimit="10" d="M-691.43,478.37l48.24-48.24
		c5.09-5.09,12-7.95,19.2-7.95h48.11c7.2,0,14.11-2.86,19.2-7.95l57.92-57.92"/>
</g>
<g id="Layer_2_00000093140974101999716130000006984333458858651542_">
	<g>
		<g>
			
				<line fill="none" stroke="#58C9ED" stroke-width="1.5" stroke-miterlimit="10" x1="-141.41" y1="812.4" x2="-125.55" y2="763.86"/>
			
				<line fill="none" stroke="#58C9ED" stroke-width="1.5" stroke-miterlimit="10" x1="-141.41" y1="812.4" x2="-185.23" y2="733.83"/>
			
				<line fill="none" stroke="#58C9ED" stroke-width="1.5" stroke-miterlimit="10" x1="-254.16" y1="779.13" x2="-141.41" y2="812.4"/>
			
				<line fill="none" stroke="#58C9ED" stroke-width="1.5" stroke-miterlimit="10" x1="-141.41" y1="812.4" x2="-196.8" y2="863.78"/>
			<polyline fill="none" stroke="#58C9ED" stroke-width="1.5" stroke-miterlimit="10" points="575.54,606.18 628.43,639.07 
				431.23,738.36 536.99,877.37 656.36,901.54 			"/>
			<polyline fill="none" stroke="#58C9ED" stroke-width="1.5" stroke-miterlimit="10" points="31.07,987.63 121.49,986.16 
				431.23,738.36 			"/>
			<polyline fill="none" stroke="#58C9ED" stroke-width="1.5" stroke-miterlimit="10" points="20.89,1046.97 121.49,986.16 
				122.08,1061.71 			"/>
			<polyline fill="none" stroke="#58C9ED" stroke-width="1.5" stroke-miterlimit="10" points="90.21,655.12 180.41,646.2 
				431.23,738.36 -141.41,812.4 			"/>
			<path fill="none" stroke="#58C9ED" stroke-width="1.5" stroke-miterlimit="10" d="M-120.26,756.49l82.37-51.99
				c10.19-6.43,17.27-16.8,19.53-28.64l9.01-47.02c3.02-15.75,14.44-28.56,29.73-33.37l88.21-27.7l71.81,78.43l-15.5-43.95"/>
			<line fill="none" stroke="#58C9ED" stroke-width="1.5" stroke-miterlimit="10" x1="628.43" y1="639.07" x2="682.5" y2="584.66"/>
			<polyline fill="none" stroke="#58C9ED" stroke-width="1.5" stroke-miterlimit="10" points="598.94,972.56 536.99,877.37 
				500.73,942.34 			"/>
			<polyline fill="none" stroke="#58C9ED" stroke-width="1.5" stroke-miterlimit="10" points="431.23,738.36 874.74,814.88 
				944.94,762.54 			"/>
			<polyline fill="none" stroke="#58C9ED" stroke-width="1.5" stroke-miterlimit="10" points="990.27,877.37 1002.36,812.4 
				874.74,814.88 896.59,951.4 			"/>
		</g>
		<g>
			<circle fill="#FFFFFF" stroke="#3170B7" stroke-width="1.5" stroke-miterlimit="10" cx="431.23" cy="738.36" r="37.77"/>
			<circle fill="#FFFFFF" stroke="#3170B7" stroke-width="1.5" stroke-miterlimit="10" cx="536.99" cy="877.37" r="16.62"/>
			<circle fill="#FFFFFF" stroke="#3170B7" stroke-width="1.5" stroke-miterlimit="10" cx="500.73" cy="942.34" r="9.07"/>
			<circle fill="#FFFFFF" stroke="#3170B7" stroke-width="1.5" stroke-miterlimit="10" cx="598.94" cy="972.56" r="9.07"/>
			<circle fill="#FFFFFF" stroke="#3170B7" stroke-width="1.5" stroke-miterlimit="10" cx="656.36" cy="901.54" r="9.07"/>
			<circle fill="#FFFFFF" stroke="#3170B7" stroke-width="1.5" stroke-miterlimit="10" cx="874.74" cy="814.88" r="16.62"/>
			<circle fill="#FFFFFF" stroke="#3170B7" stroke-width="1.5" stroke-miterlimit="10" cx="896.59" cy="951.4" r="9.07"/>
			<circle fill="#FFFFFF" stroke="#3170B7" stroke-width="1.5" stroke-miterlimit="10" cx="990.27" cy="877.37" r="9.07"/>
			<circle fill="#FFFFFF" stroke="#3170B7" stroke-width="1.5" stroke-miterlimit="10" cx="1002.36" cy="812.4" r="9.07"/>
			<circle fill="#FFFFFF" stroke="#3170B7" stroke-width="1.5" stroke-miterlimit="10" cx="944.94" cy="762.54" r="9.07"/>
			<circle fill="#FFFFFF" stroke="#3170B7" stroke-width="1.5" stroke-miterlimit="10" cx="179.86" cy="645.93" r="12.64"/>
			<circle fill="#FFFFFF" stroke="#3170B7" stroke-width="1.5" stroke-miterlimit="10" cx="90.21" cy="655.12" r="6.9"/>
			<circle fill="#FFFFFF" stroke="#3170B7" stroke-width="1.5" stroke-miterlimit="10" cx="121.49" cy="986.16" r="16.62"/>
			<circle fill="#FFFFFF" stroke="#3170B7" stroke-width="1.5" stroke-miterlimit="10" cx="31.07" cy="987.63" r="9.07"/>
			<circle fill="#FFFFFF" stroke="#3170B7" stroke-width="1.5" stroke-miterlimit="10" cx="20.89" cy="1046.97" r="9.07"/>
			<circle fill="#FFFFFF" stroke="#3170B7" stroke-width="1.5" stroke-miterlimit="10" cx="122.08" cy="1061.71" r="9.07"/>
			<circle fill="#FFFFFF" stroke="#3170B7" stroke-width="1.5" stroke-miterlimit="10" cx="-141.41" cy="812.4" r="16.62"/>
			<circle fill="#FFFFFF" stroke="#3170B7" stroke-width="1.5" stroke-miterlimit="10" cx="-185.23" cy="733.83" r="9.07"/>
			<circle fill="#FFFFFF" stroke="#3170B7" stroke-width="1.5" stroke-miterlimit="10" cx="-120.26" cy="756.49" r="9.07"/>
			<circle fill="#FFFFFF" stroke="#3170B7" stroke-width="1.5" stroke-miterlimit="10" cx="164.92" cy="602.25" r="6.9"/>
			<circle fill="#FFFFFF" stroke="#3170B7" stroke-width="1.5" stroke-miterlimit="10" cx="-254.16" cy="779.13" r="9.07"/>
			<circle fill="#FFFFFF" stroke="#3170B7" stroke-width="1.5" stroke-miterlimit="10" cx="-196.8" cy="863.78" r="9.07"/>
			<circle fill="#FFFFFF" stroke="#3170B7" stroke-width="1.5" stroke-miterlimit="10" cx="628.43" cy="639.07" r="12.42"/>
			<circle fill="#FFFFFF" stroke="#3170B7" stroke-width="1.5" stroke-miterlimit="10" cx="682.5" cy="584.66" r="6.78"/>
			<circle fill="#FFFFFF" stroke="#3170B7" stroke-width="1.5" stroke-miterlimit="10" cx="608.78" cy="547.21" r="6.78"/>
			<circle fill="#FFFFFF" stroke="#3170B7" stroke-width="1.5" stroke-miterlimit="10" cx="575.54" cy="606.18" r="6.78"/>
		</g>
		<path fill="none" stroke="#58C9ED" stroke-width="1.5" stroke-miterlimit="10" d="M608.78,547.21"/>
	</g>
	<g>
		<g>
			
				<line fill="none" stroke="#58C9ED" stroke-width="1.5" stroke-miterlimit="10" x1="272.12" y1="358.98" x2="306.69" y2="396.57"/>
			
				<line fill="none" stroke="#58C9ED" stroke-width="1.5" stroke-miterlimit="10" x1="272.12" y1="358.98" x2="362.08" y2="359.21"/>
			
				<line fill="none" stroke="#58C9ED" stroke-width="1.5" stroke-miterlimit="10" x1="356.31" y1="276.93" x2="272.12" y2="358.98"/>
			
				<line fill="none" stroke="#58C9ED" stroke-width="1.5" stroke-miterlimit="10" x1="272.12" y1="358.98" x2="254.41" y2="285.53"/>
			<polyline fill="none" stroke="#58C9ED" stroke-width="1.5" stroke-miterlimit="10" points="-377.44,687.64 -356.63,623.23 
				-415.01,601.54 -241.56,464.93 -372.92,349.8 -494.7,349.9 			"/>
			<polyline fill="none" stroke="#58C9ED" stroke-width="1.5" stroke-miterlimit="10" points="-53.86,52.67 -87.91,136.45 
				-241.56,464.93 			"/>
			<polyline fill="none" stroke="#58C9ED" stroke-width="1.5" stroke-miterlimit="10" points="-104.49,20.08 -87.91,136.45 
				-157.66,107.42 			"/>
			<polyline fill="none" stroke="#58C9ED" stroke-width="1.5" stroke-miterlimit="10" points="109.2,478.51 22.59,505.24 
				-241.56,464.93 272.12,358.98 			"/>
			<polyline fill="none" stroke="#58C9ED" stroke-width="1.5" stroke-miterlimit="10" points="148.65,545.55 108.6,567.77 
				22.59,505.24 46.54,545.21 			"/>
			
				<line fill="none" stroke="#58C9ED" stroke-width="1.5" stroke-miterlimit="10" x1="-415.01" y1="601.54" x2="-462.1" y2="641.3"/>
			<polyline fill="none" stroke="#58C9ED" stroke-width="1.5" stroke-miterlimit="10" points="-452.6,268.87 -372.92,349.8 
				-350.34,278.9 			"/>
			<polyline fill="none" stroke="#58C9ED" stroke-width="1.5" stroke-miterlimit="10" points="-241.56,464.93 -691.43,478.37 
				-749.78,543.66 			"/>
			<polyline fill="none" stroke="#58C9ED" stroke-width="1.5" stroke-miterlimit="10" points="-817.1,440.17 -815.99,506.24 
				-691.43,478.37 -740.06,348.94 			"/>
		</g>
		<g>
			<circle fill="#FFFFFF" stroke="#3170B7" stroke-width="1.5" stroke-miterlimit="10" cx="-241.56" cy="464.93" r="37.77"/>
			<circle fill="#FFFFFF" stroke="#3170B7" stroke-width="1.5" stroke-miterlimit="10" cx="-372.92" cy="349.8" r="16.62"/>
			<circle fill="#FFFFFF" stroke="#3170B7" stroke-width="1.5" stroke-miterlimit="10" cx="-350.34" cy="278.9" r="9.07"/>
			<circle fill="#FFFFFF" stroke="#3170B7" stroke-width="1.5" stroke-miterlimit="10" cx="-452.6" cy="268.87" r="9.07"/>
			<circle fill="#FFFFFF" stroke="#3170B7" stroke-width="1.5" stroke-miterlimit="10" cx="-494.7" cy="349.9" r="9.07"/>
			<circle fill="#FFFFFF" stroke="#3170B7" stroke-width="1.5" stroke-miterlimit="10" cx="-691.43" cy="478.37" r="16.62"/>
			<circle fill="#FFFFFF" stroke="#3170B7" stroke-width="1.5" stroke-miterlimit="10" cx="-740.06" cy="348.94" r="9.07"/>
			<circle fill="#FFFFFF" stroke="#3170B7" stroke-width="1.5" stroke-miterlimit="10" cx="-817.1" cy="440.17" r="9.07"/>
			<circle fill="#FFFFFF" stroke="#3170B7" stroke-width="1.5" stroke-miterlimit="10" cx="-815.99" cy="506.24" r="9.07"/>
			
				<ellipse transform="matrix(0.0709 -0.9975 0.9975 0.0709 -1238.9209 -242.7733)" fill="#FFFFFF" stroke="#3170B7" stroke-width="1.5" stroke-miterlimit="10" cx="-749.78" cy="543.66" rx="9.07" ry="9.07"/>
			<circle fill="#FFFFFF" stroke="#3170B7" stroke-width="1.5" stroke-miterlimit="10" cx="23.19" cy="505.39" r="12.64"/>
			<circle fill="#FFFFFF" stroke="#3170B7" stroke-width="1.5" stroke-miterlimit="10" cx="108.6" cy="567.77" r="10.14"/>
			<circle fill="#FFFFFF" stroke="#3170B7" stroke-width="1.5" stroke-miterlimit="10" cx="148.65" cy="545.55" r="6.9"/>
			<circle fill="#FFFFFF" stroke="#3170B7" stroke-width="1.5" stroke-miterlimit="10" cx="109.2" cy="478.51" r="6.9"/>
			<circle fill="#FFFFFF" stroke="#3170B7" stroke-width="1.5" stroke-miterlimit="10" cx="-87.91" cy="136.45" r="16.62"/>
			<circle fill="#FFFFFF" stroke="#3170B7" stroke-width="1.5" stroke-miterlimit="10" cx="-53.86" cy="52.67" r="9.07"/>
			<circle fill="#FFFFFF" stroke="#3170B7" stroke-width="1.5" stroke-miterlimit="10" cx="-104.49" cy="20.08" r="9.07"/>
			<circle fill="#FFFFFF" stroke="#3170B7" stroke-width="1.5" stroke-miterlimit="10" cx="-157.66" cy="107.42" r="9.07"/>
			<circle fill="#FFFFFF" stroke="#3170B7" stroke-width="1.5" stroke-miterlimit="10" cx="272.12" cy="358.98" r="16.62"/>
			<circle fill="#FFFFFF" stroke="#3170B7" stroke-width="1.5" stroke-miterlimit="10" cx="362.08" cy="359.21" r="9.07"/>
			<circle fill="#FFFFFF" stroke="#3170B7" stroke-width="1.5" stroke-miterlimit="10" cx="310.52" cy="404.78" r="9.07"/>
			<circle fill="#FFFFFF" stroke="#3170B7" stroke-width="1.5" stroke-miterlimit="10" cx="46.54" cy="545.21" r="6.9"/>
			<circle fill="#FFFFFF" stroke="#3170B7" stroke-width="1.5" stroke-miterlimit="10" cx="356.31" cy="276.93" r="9.07"/>
			<circle fill="#FFFFFF" stroke="#3170B7" stroke-width="1.5" stroke-miterlimit="10" cx="254.41" cy="285.53" r="9.07"/>
			<circle fill="#FFFFFF" stroke="#3170B7" stroke-width="1.5" stroke-miterlimit="10" cx="-415.01" cy="601.54" r="12.42"/>
			<circle fill="#FFFFFF" stroke="#3170B7" stroke-width="1.5" stroke-miterlimit="10" cx="-462.1" cy="641.3" r="6.78"/>
			<circle fill="#FFFFFF" stroke="#3170B7" stroke-width="1.5" stroke-miterlimit="10" cx="-377.44" cy="687.64" r="6.78"/>
			<circle fill="#FFFFFF" stroke="#3170B7" stroke-width="1.5" stroke-miterlimit="10" cx="-356.63" cy="623.23" r="6.78"/>
		</g>
	</g>
	<circle fill="none" stroke="#58C9ED" stroke-width="1.5" stroke-miterlimit="10" cx="-241.56" cy="464.93" r="21.5"/>
	<circle fill="none" stroke="#58C9ED" stroke-width="1.5" stroke-miterlimit="10" cx="-691.43" cy="478.37" r="6.61"/>
	<circle fill="none" stroke="#58C9ED" stroke-width="1.5" stroke-miterlimit="10" cx="-815.99" cy="506.24" r="18.9"/>
	<circle fill="none" stroke="#58C9ED" stroke-width="1.5" stroke-miterlimit="10" cx="-740.06" cy="348.94" r="17.48"/>
	<circle fill="none" stroke="#58C9ED" stroke-width="1.5" stroke-miterlimit="10" cx="-372.92" cy="349.8" r="9.51"/>
	<circle fill="none" stroke="#58C9ED" stroke-width="1.5" stroke-miterlimit="10" cx="-452.6" cy="268.87" r="19.1"/>
	<circle fill="none" stroke="#58C9ED" stroke-width="1.5" stroke-miterlimit="10" cx="-87.91" cy="136.45" r="24.98"/>
	<circle fill="none" stroke="#58C9ED" stroke-width="1.5" stroke-miterlimit="10" cx="272.12" cy="358.98" r="29.33"/>
	<circle fill="none" stroke="#58C9ED" stroke-width="1.5" stroke-miterlimit="10" cx="608.78" cy="547.21" r="14.91"/>
	<circle fill="none" stroke="#58C9ED" stroke-width="1.5" stroke-miterlimit="10" cx="-141.41" cy="812.4" r="7.93"/>
	<circle fill="none" stroke="#58C9ED" stroke-width="1.5" stroke-miterlimit="10" cx="179.86" cy="645.93" r="22.5"/>
	<circle fill="none" stroke="#58C9ED" stroke-width="1.5" stroke-miterlimit="10" cx="431.23" cy="738.36" r="18.13"/>
</g>
</svg>
