<?xml version="1.0" encoding="utf-8"?>
<!-- Generator: Adobe Illustrator 27.0.0, SVG Export Plug-In . SVG Version: 6.00 Build 0)  -->
<svg version="1.2" baseProfile="tiny" xmlns="http://www.w3.org/2000/svg" xmlns:xlink="http://www.w3.org/1999/xlink" x="0px"
	 y="0px" viewBox="0 0 1920 1080" overflow="visible" xml:space="preserve">
<g id="Layer_1">
	<polyline fill="none" stroke="#58C9ED" stroke-width="1.5" stroke-miterlimit="10" points="908.55,505.39 528.73,623.23 
		700.13,733.83 	"/>
	<path fill="none" stroke="#58C9ED" stroke-width="1.5" stroke-miterlimit="10" d="M1034.01,545.55c0,0,465.67,5.57,460.14,1.66"/>
	<line fill="none" stroke="#58C9ED" stroke-width="1.5" stroke-miterlimit="10" x1="1567.86" y1="584.66" x2="1830.3" y2="762.54"/>
	<path fill="none" stroke="#58C9ED" stroke-width="1.5" stroke-miterlimit="10" d="M135.58,543.66l168.71,194.76
		c14.67,16.94,36.89,25.34,59.1,22.34l96.89-13.07c14.59-1.97,29.42,0.97,42.17,8.34l186.12,107.75"/>
	<path fill="none" stroke="#58C9ED" stroke-width="1.5" stroke-miterlimit="10" d="M1494.14,547.21"/>
	<path fill="none" stroke="#58C9ED" stroke-width="1.5" stroke-miterlimit="10" d="M1073.57,645.93H1240
		c10.57,0,20.71-4.2,28.18-11.67l17.5-17.5c7.47-7.47,17.61-11.67,28.18-11.67h147.04"/>
	<path fill="none" stroke="#58C9ED" stroke-width="1.5" stroke-miterlimit="10" d="M1073.57,625.5h154.22
		c10.57,0,20.71-4.2,28.18-11.67l17.5-17.5c7.47-7.47,17.61-11.67,28.18-11.67h266.2"/>
	<path fill="none" stroke="#58C9ED" stroke-width="1.5" stroke-miterlimit="10" d="M432.76,268.87h-63.93
		c-13.38,0-26.21,5.31-35.67,14.77l-48,48c-9.46,9.46-22.29,14.77-35.67,14.77h-97.18"/>
	<path fill="none" stroke="#58C9ED" stroke-width="1.5" stroke-miterlimit="10" d="M797.45,136.45h58.29
		c10.53,0,20.65,4.08,28.23,11.38l131.17,126.31c7.58,7.3,17.7,11.38,28.23,11.38h96.4"/>
	<path fill="none" stroke="#58C9ED" stroke-width="1.5" stroke-miterlimit="10" d="M727.7,107.42H490.65
		c-13,0-25.46,5.16-34.65,14.35l-74.98,74.98c-9.19,9.19-21.66,14.35-34.65,14.35h-60.33c-13,0-25.46,5.16-34.65,14.35
		L145.66,331.17"/>
</g>
<g id="Layer_4">
	<path fill="none" stroke="#58C9ED" stroke-width="1.5" stroke-miterlimit="10" d="M1247.44,350.15V325.7
		c0-4.09-1.38-8.06-3.93-11.27l-1.22-1.53c-2.54-3.21-3.93-7.18-3.93-11.27v-16.11"/>
	<path fill="none" stroke="#58C9ED" stroke-width="1.5" stroke-miterlimit="10" d="M1195.88,413.85v28.95
		c0,8.7-3.46,17.04-9.61,23.2l-16.03,16.03c-6.15,6.15-14.5,9.61-23.2,9.61h-51.46c-9.49,0-18.52,4.11-24.75,11.27l-32.46,37.31"/>
	<path fill="none" stroke="#58C9ED" stroke-width="1.5" stroke-miterlimit="10" d="M643.8,502.7v32.91c0,5.15-2.04,10.08-5.68,13.72
		l-18.05,18.05c-3.64,3.64-8.58,5.68-13.72,5.68h-35.18c-6.49,0-12.55,3.24-16.15,8.64l-23.56,35.31"/>
	<path fill="none" stroke="#58C9ED" stroke-width="1.5" stroke-miterlimit="10" d="M634.58,493.49v32.91
		c0,5.15-2.04,10.08-5.68,13.72l-18.05,18.05c-3.64,3.64-8.58,5.68-13.72,5.68h-35.18c-6.49,0-12.55,3.24-16.15,8.64l-30.51,45.74"
		/>
	<path fill="none" stroke="#58C9ED" stroke-width="1.5" stroke-miterlimit="10" d="M541.25,272.32l55.85-76.84
		c4.28-5.89,11.12-9.37,18.39-9.37h24.83c6.83,0,13.36-2.76,18.13-7.65l69.25-71.04"/>
	<path fill="none" stroke="#58C9ED" stroke-width="1.5" stroke-miterlimit="10" d="M193.93,478.37l48.24-48.24
		c5.09-5.09,12-7.95,19.2-7.95h48.11c7.2,0,14.11-2.86,19.2-7.95l57.92-57.92"/>
</g>
<g id="Layer_2">
	<g>
		<g>
			<line fill="none" stroke="#58C9ED" stroke-width="1.5" stroke-miterlimit="10" x1="743.95" y1="812.4" x2="759.81" y2="763.86"/>
			<line fill="none" stroke="#58C9ED" stroke-width="1.5" stroke-miterlimit="10" x1="743.95" y1="812.4" x2="700.13" y2="733.83"/>
			<line fill="none" stroke="#58C9ED" stroke-width="1.5" stroke-miterlimit="10" x1="631.2" y1="779.13" x2="743.95" y2="812.4"/>
			<line fill="none" stroke="#58C9ED" stroke-width="1.5" stroke-miterlimit="10" x1="743.95" y1="812.4" x2="688.56" y2="863.78"/>
			<polyline fill="none" stroke="#58C9ED" stroke-width="1.5" stroke-miterlimit="10" points="1460.9,606.18 1513.79,639.07 
				1316.59,738.36 1422.35,877.37 1541.72,901.54 			"/>
			<polyline fill="none" stroke="#58C9ED" stroke-width="1.5" stroke-miterlimit="10" points="916.43,987.63 1006.85,986.16 
				1316.59,738.36 			"/>
			<polyline fill="none" stroke="#58C9ED" stroke-width="1.5" stroke-miterlimit="10" points="906.25,1046.97 1006.85,986.16 
				1007.44,1061.71 			"/>
			<polyline fill="none" stroke="#58C9ED" stroke-width="1.5" stroke-miterlimit="10" points="975.57,655.12 1065.77,646.2 
				1316.59,738.36 743.95,812.4 			"/>
			<path fill="none" stroke="#58C9ED" stroke-width="1.5" stroke-miterlimit="10" d="M765.1,756.49l82.37-51.99
				c10.19-6.43,17.27-16.8,19.53-28.64l9.01-47.02c3.02-15.75,14.44-28.56,29.73-33.37l88.21-27.7l71.81,78.43l-15.5-43.95"/>
			
				<line fill="none" stroke="#58C9ED" stroke-width="1.5" stroke-miterlimit="10" x1="1513.79" y1="639.07" x2="1567.86" y2="584.66"/>
			<polyline fill="none" stroke="#58C9ED" stroke-width="1.5" stroke-miterlimit="10" points="1484.3,972.56 1422.35,877.37 
				1386.09,942.34 			"/>
			<polyline fill="none" stroke="#58C9ED" stroke-width="1.5" stroke-miterlimit="10" points="1316.59,738.36 1760.1,814.88 
				1830.3,762.54 			"/>
			<polyline fill="none" stroke="#58C9ED" stroke-width="1.5" stroke-miterlimit="10" points="1875.63,877.37 1887.72,812.4 
				1760.1,814.88 1781.95,951.4 			"/>
		</g>
		<g>
			<circle fill="#FFFFFF" stroke="#3170B7" stroke-width="1.5" stroke-miterlimit="10" cx="1316.59" cy="738.36" r="37.77"/>
			<circle fill="#FFFFFF" stroke="#3170B7" stroke-width="1.5" stroke-miterlimit="10" cx="1422.35" cy="877.37" r="16.62"/>
			<circle fill="#FFFFFF" stroke="#3170B7" stroke-width="1.5" stroke-miterlimit="10" cx="1386.09" cy="942.34" r="9.07"/>
			<circle fill="#FFFFFF" stroke="#3170B7" stroke-width="1.5" stroke-miterlimit="10" cx="1484.3" cy="972.56" r="9.07"/>
			<circle fill="#FFFFFF" stroke="#3170B7" stroke-width="1.5" stroke-miterlimit="10" cx="1541.72" cy="901.54" r="9.07"/>
			<circle fill="#FFFFFF" stroke="#3170B7" stroke-width="1.5" stroke-miterlimit="10" cx="1760.1" cy="814.88" r="16.62"/>
			<circle fill="#FFFFFF" stroke="#3170B7" stroke-width="1.5" stroke-miterlimit="10" cx="1781.95" cy="951.4" r="9.07"/>
			<circle fill="#FFFFFF" stroke="#3170B7" stroke-width="1.5" stroke-miterlimit="10" cx="1875.63" cy="877.37" r="9.07"/>
			<circle fill="#FFFFFF" stroke="#3170B7" stroke-width="1.5" stroke-miterlimit="10" cx="1887.72" cy="812.4" r="9.07"/>
			<circle fill="#FFFFFF" stroke="#3170B7" stroke-width="1.5" stroke-miterlimit="10" cx="1830.3" cy="762.54" r="9.07"/>
			<circle fill="#FFFFFF" stroke="#3170B7" stroke-width="1.5" stroke-miterlimit="10" cx="1065.22" cy="645.93" r="12.64"/>
			<circle fill="#FFFFFF" stroke="#3170B7" stroke-width="1.5" stroke-miterlimit="10" cx="975.57" cy="655.12" r="6.9"/>
			<circle fill="#FFFFFF" stroke="#3170B7" stroke-width="1.5" stroke-miterlimit="10" cx="1006.85" cy="986.16" r="16.62"/>
			<circle fill="#FFFFFF" stroke="#3170B7" stroke-width="1.5" stroke-miterlimit="10" cx="916.43" cy="987.63" r="9.07"/>
			<circle fill="#FFFFFF" stroke="#3170B7" stroke-width="1.5" stroke-miterlimit="10" cx="906.25" cy="1046.97" r="9.07"/>
			<circle fill="#FFFFFF" stroke="#3170B7" stroke-width="1.5" stroke-miterlimit="10" cx="1007.44" cy="1061.71" r="9.07"/>
			<circle fill="#FFFFFF" stroke="#3170B7" stroke-width="1.5" stroke-miterlimit="10" cx="743.95" cy="812.4" r="16.62"/>
			<circle fill="#FFFFFF" stroke="#3170B7" stroke-width="1.5" stroke-miterlimit="10" cx="700.13" cy="733.83" r="9.07"/>
			<circle fill="#FFFFFF" stroke="#3170B7" stroke-width="1.5" stroke-miterlimit="10" cx="765.1" cy="756.49" r="9.07"/>
			<circle fill="#FFFFFF" stroke="#3170B7" stroke-width="1.5" stroke-miterlimit="10" cx="1050.28" cy="602.25" r="6.9"/>
			<circle fill="#FFFFFF" stroke="#3170B7" stroke-width="1.5" stroke-miterlimit="10" cx="631.2" cy="779.13" r="9.07"/>
			<circle fill="#FFFFFF" stroke="#3170B7" stroke-width="1.5" stroke-miterlimit="10" cx="688.56" cy="863.78" r="9.07"/>
			<circle fill="#FFFFFF" stroke="#3170B7" stroke-width="1.5" stroke-miterlimit="10" cx="1513.79" cy="639.07" r="12.42"/>
			<circle fill="#FFFFFF" stroke="#3170B7" stroke-width="1.5" stroke-miterlimit="10" cx="1567.86" cy="584.66" r="6.78"/>
			<circle fill="#FFFFFF" stroke="#3170B7" stroke-width="1.5" stroke-miterlimit="10" cx="1494.14" cy="547.21" r="6.78"/>
			<circle fill="#FFFFFF" stroke="#3170B7" stroke-width="1.5" stroke-miterlimit="10" cx="1460.9" cy="606.18" r="6.78"/>
		</g>
		<path fill="none" stroke="#58C9ED" stroke-width="1.5" stroke-miterlimit="10" d="M1494.14,547.21"/>
	</g>
	<g>
		<g>
			
				<line fill="none" stroke="#58C9ED" stroke-width="1.5" stroke-miterlimit="10" x1="1157.48" y1="358.98" x2="1192.05" y2="396.57"/>
			
				<line fill="none" stroke="#58C9ED" stroke-width="1.5" stroke-miterlimit="10" x1="1157.48" y1="358.98" x2="1247.44" y2="359.21"/>
			
				<line fill="none" stroke="#58C9ED" stroke-width="1.5" stroke-miterlimit="10" x1="1241.67" y1="276.93" x2="1157.48" y2="358.98"/>
			
				<line fill="none" stroke="#58C9ED" stroke-width="1.5" stroke-miterlimit="10" x1="1157.48" y1="358.98" x2="1139.77" y2="285.53"/>
			<polyline fill="none" stroke="#58C9ED" stroke-width="1.5" stroke-miterlimit="10" points="507.92,687.64 528.73,623.23 
				470.35,601.54 643.8,464.93 512.44,349.8 390.66,349.9 			"/>
			<polyline fill="none" stroke="#58C9ED" stroke-width="1.5" stroke-miterlimit="10" points="831.5,52.67 797.45,136.45 
				643.8,464.93 			"/>
			<polyline fill="none" stroke="#58C9ED" stroke-width="1.5" stroke-miterlimit="10" points="780.87,20.08 797.45,136.45 
				727.7,107.42 			"/>
			<polyline fill="none" stroke="#58C9ED" stroke-width="1.5" stroke-miterlimit="10" points="994.56,478.51 907.95,505.24 
				643.8,464.93 1157.48,358.98 			"/>
			<polyline fill="none" stroke="#58C9ED" stroke-width="1.5" stroke-miterlimit="10" points="1034.01,545.55 993.96,567.77 
				907.95,505.24 931.9,545.21 			"/>
			<line fill="none" stroke="#58C9ED" stroke-width="1.5" stroke-miterlimit="10" x1="470.35" y1="601.54" x2="423.26" y2="641.3"/>
			<polyline fill="none" stroke="#58C9ED" stroke-width="1.5" stroke-miterlimit="10" points="432.76,268.87 512.44,349.8 
				535.02,278.9 			"/>
			<polyline fill="none" stroke="#58C9ED" stroke-width="1.5" stroke-miterlimit="10" points="643.8,464.93 193.93,478.37 
				135.58,543.66 			"/>
			<polyline fill="none" stroke="#58C9ED" stroke-width="1.5" stroke-miterlimit="10" points="68.26,440.17 69.37,506.24 
				193.93,478.37 145.3,348.94 			"/>
		</g>
		<g>
			<circle fill="#FFFFFF" stroke="#3170B7" stroke-width="1.5" stroke-miterlimit="10" cx="643.8" cy="464.93" r="37.77"/>
			<circle fill="#FFFFFF" stroke="#3170B7" stroke-width="1.5" stroke-miterlimit="10" cx="512.44" cy="349.8" r="16.62"/>
			<circle fill="#FFFFFF" stroke="#3170B7" stroke-width="1.5" stroke-miterlimit="10" cx="535.02" cy="278.9" r="9.07"/>
			<circle fill="#FFFFFF" stroke="#3170B7" stroke-width="1.5" stroke-miterlimit="10" cx="432.76" cy="268.87" r="9.07"/>
			<circle fill="#FFFFFF" stroke="#3170B7" stroke-width="1.5" stroke-miterlimit="10" cx="390.66" cy="349.9" r="9.07"/>
			<circle fill="#FFFFFF" stroke="#3170B7" stroke-width="1.5" stroke-miterlimit="10" cx="193.93" cy="478.37" r="16.62"/>
			<circle fill="#FFFFFF" stroke="#3170B7" stroke-width="1.5" stroke-miterlimit="10" cx="145.3" cy="348.94" r="9.07"/>
			<circle fill="#FFFFFF" stroke="#3170B7" stroke-width="1.5" stroke-miterlimit="10" cx="68.26" cy="440.17" r="9.07"/>
			<circle fill="#FFFFFF" stroke="#3170B7" stroke-width="1.5" stroke-miterlimit="10" cx="69.37" cy="506.24" r="9.07"/>
			<circle fill="#FFFFFF" stroke="#3170B7" stroke-width="1.5" stroke-miterlimit="10" cx="135.58" cy="543.66" r="9.07"/>
			<circle fill="#FFFFFF" stroke="#3170B7" stroke-width="1.5" stroke-miterlimit="10" cx="908.55" cy="505.39" r="12.64"/>
			<circle fill="#FFFFFF" stroke="#3170B7" stroke-width="1.5" stroke-miterlimit="10" cx="993.96" cy="567.77" r="10.14"/>
			<circle fill="#FFFFFF" stroke="#3170B7" stroke-width="1.5" stroke-miterlimit="10" cx="1034.01" cy="545.55" r="6.9"/>
			<circle fill="#FFFFFF" stroke="#3170B7" stroke-width="1.5" stroke-miterlimit="10" cx="994.56" cy="478.51" r="6.9"/>
			<circle fill="#FFFFFF" stroke="#3170B7" stroke-width="1.5" stroke-miterlimit="10" cx="797.45" cy="136.45" r="16.62"/>
			<circle fill="#FFFFFF" stroke="#3170B7" stroke-width="1.5" stroke-miterlimit="10" cx="831.5" cy="52.67" r="9.07"/>
			<circle fill="#FFFFFF" stroke="#3170B7" stroke-width="1.5" stroke-miterlimit="10" cx="780.87" cy="20.08" r="9.07"/>
			<circle fill="#FFFFFF" stroke="#3170B7" stroke-width="1.5" stroke-miterlimit="10" cx="727.7" cy="107.42" r="9.07"/>
			<circle fill="#FFFFFF" stroke="#3170B7" stroke-width="1.5" stroke-miterlimit="10" cx="1157.48" cy="358.98" r="16.62"/>
			<circle fill="#FFFFFF" stroke="#3170B7" stroke-width="1.5" stroke-miterlimit="10" cx="1247.44" cy="359.21" r="9.07"/>
			<circle fill="#FFFFFF" stroke="#3170B7" stroke-width="1.5" stroke-miterlimit="10" cx="1195.88" cy="404.78" r="9.07"/>
			<circle fill="#FFFFFF" stroke="#3170B7" stroke-width="1.5" stroke-miterlimit="10" cx="931.9" cy="545.21" r="6.9"/>
			<circle fill="#FFFFFF" stroke="#3170B7" stroke-width="1.5" stroke-miterlimit="10" cx="1241.67" cy="276.93" r="9.07"/>
			<circle fill="#FFFFFF" stroke="#3170B7" stroke-width="1.5" stroke-miterlimit="10" cx="1139.77" cy="285.53" r="9.07"/>
			<circle fill="#FFFFFF" stroke="#3170B7" stroke-width="1.5" stroke-miterlimit="10" cx="470.35" cy="601.54" r="12.42"/>
			<circle fill="#FFFFFF" stroke="#3170B7" stroke-width="1.5" stroke-miterlimit="10" cx="423.26" cy="641.3" r="6.78"/>
			<circle fill="#FFFFFF" stroke="#3170B7" stroke-width="1.5" stroke-miterlimit="10" cx="507.92" cy="687.64" r="6.78"/>
			<circle fill="#FFFFFF" stroke="#3170B7" stroke-width="1.5" stroke-miterlimit="10" cx="528.73" cy="623.23" r="6.78"/>
		</g>
	</g>
	<circle fill="none" stroke="#58C9ED" stroke-width="1.5" stroke-miterlimit="10" cx="643.8" cy="464.93" r="21.5"/>
	<circle fill="none" stroke="#58C9ED" stroke-width="1.5" stroke-miterlimit="10" cx="193.93" cy="478.37" r="6.61"/>
	<circle fill="none" stroke="#58C9ED" stroke-width="1.5" stroke-miterlimit="10" cx="69.37" cy="506.24" r="18.9"/>
	<circle fill="none" stroke="#58C9ED" stroke-width="1.5" stroke-miterlimit="10" cx="145.3" cy="348.94" r="17.48"/>
	<circle fill="none" stroke="#58C9ED" stroke-width="1.5" stroke-miterlimit="10" cx="512.44" cy="349.8" r="9.51"/>
	<circle fill="none" stroke="#58C9ED" stroke-width="1.5" stroke-miterlimit="10" cx="432.76" cy="268.87" r="19.1"/>
	<circle fill="none" stroke="#58C9ED" stroke-width="1.5" stroke-miterlimit="10" cx="797.45" cy="136.45" r="24.98"/>
	<circle fill="none" stroke="#58C9ED" stroke-width="1.5" stroke-miterlimit="10" cx="1157.48" cy="358.98" r="29.33"/>
	<circle fill="none" stroke="#58C9ED" stroke-width="1.5" stroke-miterlimit="10" cx="1494.14" cy="547.21" r="14.91"/>
	<circle fill="none" stroke="#58C9ED" stroke-width="1.5" stroke-miterlimit="10" cx="743.95" cy="812.4" r="7.93"/>
	<circle fill="none" stroke="#58C9ED" stroke-width="1.5" stroke-miterlimit="10" cx="1065.22" cy="645.93" r="22.5"/>
	<circle fill="none" stroke="#58C9ED" stroke-width="1.5" stroke-miterlimit="10" cx="1316.59" cy="738.36" r="18.13"/>
</g>
</svg>
