<svg width="160" height="112" viewBox="0 0 160 112" fill="none" xmlns="http://www.w3.org/2000/svg">
<g clip-path="url(#clip0_639_178)">
<path d="M30.2855 50.1265V26.9103L25.2378 24V35.5847L15.1427 29.762L0 38.4954V73.4311L15.1427 82.1645L25.2378 76.3418V82.1822L20.1966 85.0893L25.2443 88L30.2855 85.0929V55.955L15.1427 47.231L5.04728 53.0533V41.4012L15.1427 35.5789L25.2378 41.4012V47.2162L30.2855 50.1265ZM15.1427 53.0541L20.1905 55.9645L15.1427 58.8752L10.095 55.9645L15.1427 53.0541ZM15.1427 64.6959L25.2378 58.8748V70.5199L15.1427 76.3418L5.04728 70.5199V58.8748L15.1427 64.6959Z" fill="white"/>
<path d="M51.2418 48.1667C50.1473 47.3859 48.8308 46.9774 47.4866 47.0015C45.6096 47.0033 43.8091 47.7453 42.4759 49.0664C41.1426 50.3875 40.3841 52.1812 40.3651 54.058V60.7914C40.3651 64.9996 43.4077 67.8479 47.616 67.8479C51.5005 67.8479 54.8672 64.6756 54.8672 60.7914V40.333H51.2418V48.1667ZM51.2418 60.7914C51.2602 61.2755 51.1796 61.7583 51.0047 62.2101C50.8299 62.6619 50.5646 63.0732 50.225 63.4188C49.8855 63.7643 49.4789 64.0369 49.0303 64.2197C48.5816 64.4024 48.1003 64.4916 47.616 64.4817C47.1331 64.486 46.6544 64.3931 46.2083 64.2084C45.7622 64.0236 45.3579 63.7509 45.0195 63.4065C44.6812 63.062 44.4156 62.653 44.2388 62.2037C44.0621 61.7544 43.9776 61.274 43.9905 60.7914L44.0554 54.058C44.0554 51.9223 45.5443 50.3677 47.616 50.3677C49.7517 50.3677 51.2418 51.9215 51.2418 54.058V60.7914Z" fill="white"/>
<path d="M65.419 47.0015C61.5348 47.0015 58.1682 50.1735 58.1682 54.058V60.7914C58.1682 64.9996 61.2108 67.848 65.419 67.848C69.3036 67.848 72.6703 64.6756 72.6703 60.7914H69.0444C69.0629 61.2755 68.9822 61.7582 68.8074 62.21C68.6326 62.6618 68.3673 63.0731 68.0278 63.4186C67.6883 63.7642 67.2818 64.0367 66.8332 64.2195C66.3846 64.4024 65.9033 64.4916 65.419 64.4817C64.9362 64.4861 64.4574 64.3931 64.0113 64.2084C63.5652 64.0236 63.1609 63.7509 62.8226 63.4065C62.4842 63.062 62.2187 62.653 62.0419 62.2037C61.8651 61.7544 61.7807 61.274 61.7936 60.7914V59.1074H72.6703V54.0556C72.6703 49.8502 69.6276 47.0015 65.419 47.0015ZM69.0444 55.7416H61.8568V54.0576C61.8568 51.9219 63.3457 50.3673 65.4174 50.3673C67.5531 50.3673 69.0428 51.9211 69.0428 54.0576L69.0444 55.7416Z" fill="white"/>
<path d="M76.8785 45.3181V47.3249H75.0656V50.6928H76.8785V67.5253H80.504V50.6916H82.3165V47.3237H80.504V45.3169C80.4914 45.0924 80.5263 44.8679 80.6064 44.6578C80.6866 44.4478 80.8102 44.2571 80.9692 44.0981C81.1281 43.9392 81.3188 43.8156 81.5289 43.7354C81.7389 43.6553 81.9635 43.6203 82.1879 43.6329H82.5116V40.265H81.9288C81.2582 40.2385 80.5894 40.351 79.9644 40.5956C79.3395 40.8402 78.772 41.2115 78.2976 41.6862C77.8232 42.1608 77.4522 42.7286 77.208 43.3536C76.9638 43.9787 76.8516 44.6476 76.8785 45.3181Z" fill="white"/>
<path d="M91.963 47.0015C88.0785 47.0015 84.7118 50.1735 84.7118 54.058V60.7914C84.7118 64.9996 87.6254 67.848 91.6394 67.848C93.3233 67.848 94.9412 67.2656 95.6534 66.3591V67.5243C95.6534 69.7254 94.229 71.4089 92.0279 71.4089C92.0049 71.4089 91.9832 71.4064 91.9602 71.406V74.5801H92.0279C95.8476 74.5801 99.2155 71.7317 99.2155 67.5235V54.058C99.2139 49.8502 96.1713 47.0015 91.963 47.0015ZM95.5885 60.7914C95.6069 61.2755 95.5263 61.7582 95.3515 62.21C95.1766 62.6618 94.9113 63.0731 94.5718 63.4186C94.2323 63.7642 93.8258 64.0367 93.3772 64.2195C92.9286 64.4024 92.4474 64.4916 91.963 64.4817C91.4802 64.4861 91.0014 64.3932 90.5553 64.2085C90.1091 64.0238 89.7048 63.7511 89.3663 63.4066C89.0279 63.0622 88.7624 62.6531 88.5856 62.2038C88.4087 61.7544 88.3243 61.2741 88.3372 60.7914V54.058C88.3188 53.5739 88.3995 53.0912 88.5744 52.6394C88.7492 52.1876 89.0146 51.7763 89.3541 51.4308C89.6936 51.0852 90.1002 50.8127 90.5488 50.6299C90.9974 50.4471 91.4787 50.3579 91.963 50.3677C94.0988 50.3677 95.5885 51.9215 95.5885 54.058V60.7914Z" fill="white"/>
<path d="M113.003 60.791C113.022 61.2751 112.941 61.7579 112.766 62.2097C112.591 62.6615 112.326 63.0728 111.987 63.4184C111.647 63.7639 111.241 64.0365 110.792 64.2193C110.343 64.4021 109.862 64.4912 109.378 64.4813C108.895 64.4857 108.416 64.3927 107.97 64.208C107.524 64.0232 107.119 63.7505 106.781 63.4061C106.443 63.0616 106.177 62.6526 106 62.2033C105.824 61.754 105.739 61.2736 105.752 60.791V47.3247H102.127V60.791C102.127 64.9992 105.105 67.8476 109.314 67.8476C113.005 67.8476 116.63 64.9992 116.63 60.791V47.3247H113.005L113.003 60.791Z" fill="white"/>
<path d="M126.922 47.0015C123.167 47.0015 119.671 49.7204 119.671 53.9287H123.103C123.103 51.7276 124.592 50.1735 126.793 50.1735C128.994 50.1735 130.483 51.8574 130.483 54.058V55.2902H130.418C129.36 54.4259 128.029 53.9668 126.663 53.9952C125.741 53.9817 124.825 54.1503 123.967 54.4913C123.11 54.8323 122.328 55.339 121.666 55.9824C121.005 56.6259 120.477 57.3934 120.112 58.2411C119.748 59.0888 119.554 60.0001 119.542 60.9228C119.542 65.131 122.456 67.85 126.469 67.85C128.153 67.85 129.706 67.2676 130.483 66.3611V67.5264H134.044V54.058C134.044 49.8502 131.13 47.0015 126.922 47.0015ZM126.793 64.6111C126.31 64.6154 125.831 64.5225 125.385 64.3377C124.939 64.153 124.535 63.8803 124.196 63.5359C123.858 63.1914 123.593 62.7823 123.416 62.333C123.239 61.8837 123.155 61.4034 123.167 60.9208C123.149 60.4367 123.23 59.954 123.405 59.5022C123.579 59.0505 123.845 58.6392 124.184 58.2937C124.524 57.9481 124.93 57.6755 125.379 57.4927C125.827 57.3099 126.309 57.2206 126.793 57.2304C128.929 57.2304 130.418 58.7842 130.418 60.9208C130.437 61.4049 130.356 61.8876 130.181 62.3395C130.006 62.7913 129.741 63.2026 129.402 63.5482C129.062 63.8937 128.655 64.1663 128.207 64.349C127.758 64.5318 127.277 64.621 126.792 64.6111H126.793Z" fill="white"/>
<path d="M136.827 52.3746V67.524H140.452V52.3746C140.44 52.1501 140.474 51.9256 140.555 51.7155C140.635 51.5055 140.758 51.3148 140.917 51.1558C141.076 50.9969 141.267 50.8733 141.477 50.7931C141.687 50.7129 141.912 50.678 142.136 50.6906H143.172V47.3227H141.879C141.208 47.2959 140.539 47.4083 139.914 47.6527C139.289 47.8971 138.721 48.2682 138.247 48.7428C137.772 49.2174 137.401 49.785 137.157 50.4101C136.912 51.0351 136.8 51.704 136.827 52.3746Z" fill="white"/>
<path d="M156.055 40.333V48.1667C154.961 47.3859 153.644 46.9775 152.3 47.0015C150.423 47.0032 148.623 47.7452 147.289 49.0663C145.956 50.3874 145.197 52.1811 145.178 54.058V60.7914C145.178 64.9996 148.221 67.8479 152.43 67.8479C156.314 67.8479 159.68 64.6756 159.68 60.7914V40.333H156.055ZM156.055 60.7914C156.074 61.2754 155.993 61.7582 155.818 62.21C155.643 62.6617 155.378 63.073 155.038 63.4186C154.699 63.7642 154.292 64.0367 153.844 64.2195C153.395 64.4023 152.914 64.4915 152.43 64.4817C151.947 64.4861 151.468 64.3932 151.022 64.2085C150.576 64.0238 150.171 63.7511 149.833 63.4066C149.494 63.0622 149.229 62.6531 149.052 62.2037C148.875 61.7544 148.791 61.2741 148.804 60.7914L148.869 54.058C148.869 51.9223 150.358 50.3677 152.43 50.3677C154.565 50.3677 156.055 51.9215 156.055 54.058V60.7914Z" fill="white"/>
</g>
<defs>
<clipPath id="clip0_639_178">
<rect width="159.681" height="64" fill="white" transform="translate(0 24)"/>
</clipPath>
</defs>
</svg>
