<svg width="534" height="247" viewBox="0 0 534 247" fill="none" xmlns="http://www.w3.org/2000/svg">
<path d="M187.397 111.973H375.169V128.44H187.397V111.973Z" fill="#CBD3D8"/>
<path d="M95.503 0H26.3457C11.7953 0 0 11.7958 0 26.3467V220.653C0 235.204 11.7953 247 26.3457 247H95.503C110.053 247 121.849 235.204 121.849 220.653V26.3467C121.849 11.7958 110.053 0 95.503 0Z" fill="#4DB6E4"/>
<path d="M95.503 0H26.3457C11.7953 0 0 11.7958 0 26.3467V42.8133C0 57.3642 11.7953 69.16 26.3457 69.16H95.503C110.053 69.16 121.849 57.3642 121.849 42.8133V26.3467C121.849 11.7958 110.053 0 95.503 0Z" fill="#5CC1ED"/>
<path d="M121.849 112.652V133.443C119.399 134.288 116.826 134.716 114.235 134.711H7.61388C5.0229 134.716 2.4493 134.288 0 133.443V112.652C0.0380985 114.636 0.860763 116.523 2.28785 117.902C3.71493 119.28 5.6301 120.037 7.61388 120.006H114.231C116.216 120.038 118.132 119.281 119.56 117.903C120.987 116.524 121.811 114.636 121.849 112.652Z" fill="#3BA5D3"/>
<path d="M121.849 171.402V192.192C119.399 193.037 116.826 193.466 114.235 193.46H7.61388C5.02291 193.466 2.44932 193.037 0 192.192V171.402C0.0380985 173.385 0.860763 175.273 2.28785 176.651C3.71493 178.03 5.6301 178.786 7.61388 178.756H114.231C116.216 178.787 118.132 178.031 119.56 176.653C120.987 175.274 121.811 173.386 121.849 171.402Z" fill="#3BA5D3"/>
<path d="M24.9888 90.626H39.6963V105.334H24.9888V90.626Z" fill="#5CC1ED"/>
<path d="M24.9888 149.376H39.6963V164.084H24.9888V149.376Z" fill="#5CC1ED"/>
<path d="M24.9888 208.125H39.6963V222.834H24.9888V208.125Z" fill="#5CC1ED"/>
<path d="M54.4005 90.626H98.5294V105.334H54.4005V90.626Z" fill="#3BA5D3"/>
<path d="M54.4005 149.376H98.5294V164.084H54.4005V149.376Z" fill="#3BA5D3"/>
<path d="M54.4005 208.125H98.5294V222.834H54.4005V208.125Z" fill="#3BA5D3"/>
<path d="M441.072 102.093V138.857H411.153V102.093H441.072Z" fill="#DFDFDD"/>
<path d="M534 135.027V105.387C534 99.93 529.577 95.5066 524.12 95.5066H448.377C442.92 95.5066 438.497 99.93 438.497 105.387V135.027C438.497 140.483 442.92 144.907 448.377 144.907H524.12C529.577 144.907 534 140.483 534 135.027Z" fill="#0C8CE0"/>
<path d="M468.136 120.207C468.136 132.029 477.72 141.613 489.542 141.613C501.364 141.613 510.948 132.029 510.948 120.207C510.948 108.384 501.364 98.8 489.542 98.8C477.72 98.8 468.136 108.384 468.136 120.207Z" fill="white"/>
<path d="M499.197 128.302L477.686 119.265V115.339L484.971 118.514L499.197 112.652V116.788L489.002 120.556L499.211 124.376L499.197 128.302Z" fill="#0C8CE0"/>
</svg>
