<svg width="128" height="128" viewBox="0 0 128 128" fill="none" xmlns="http://www.w3.org/2000/svg">
<path d="M98 4H30C22.0461 4.00847 14.4204 7.1719 8.79615 12.7962C3.1719 18.4204 0.00847061 26.0461 0 34L0 75.0027C0.00847061 82.9551 3.17133 90.5795 8.79459 96.2027C14.4178 101.826 22.0422 104.989 29.9947 104.997H98C105.953 104.989 113.578 101.826 119.202 96.2031C124.826 90.58 127.99 82.9556 128 75.0027V34C127.992 26.0461 124.828 18.4204 119.204 12.7962C113.58 7.1719 105.954 4.00847 98 4ZM118 75.0027C117.994 80.3053 115.885 85.3891 112.136 89.1386C108.386 92.8881 103.303 94.997 98 95.0027H29.9947C24.6935 94.997 19.611 92.8886 15.8625 89.1401C12.114 85.3916 10.0056 80.3092 10 75.008V34C10.0056 28.6974 12.1146 23.6136 15.8641 19.8641C19.6136 16.1146 24.6974 14.0056 30 14H98C103.303 14.0056 108.386 16.1146 112.136 19.8641C115.885 23.6136 117.994 28.6974 118 34V75.0027ZM92.9973 120C92.9973 121.325 92.4708 122.596 91.5337 123.534C90.5965 124.471 89.3254 124.997 88 124.997H40C38.6739 124.997 37.4021 124.471 36.4645 123.533C35.5268 122.595 35 121.323 35 119.997C35 118.671 35.5268 117.399 36.4645 116.462C37.4021 115.524 38.6739 114.997 40 114.997H88C88.6567 114.997 89.307 115.127 89.9136 115.378C90.5203 115.63 91.0714 115.998 91.5355 116.463C91.9996 116.928 92.3676 117.479 92.6185 118.086C92.8693 118.693 92.998 119.343 92.9973 120ZM88.0747 63.7333L84.7413 61.7333C86.0859 57.5289 86.0859 53.0098 84.7413 48.8053L88.0747 46.8053C89.1743 46.105 89.9572 45.003 90.2564 43.734C90.5557 42.4651 90.3477 41.1294 89.6768 40.0115C89.0059 38.8936 87.9251 38.0818 86.6646 37.7489C85.404 37.416 84.0633 37.5884 82.928 38.2293L79.536 40.2667C76.7742 37.4956 73.3007 35.5411 69.4987 34.6187V30.2667C69.5206 29.5963 69.4074 28.9284 69.166 28.3027C68.9246 27.6769 68.5598 27.1061 68.0934 26.6241C67.6269 26.1422 67.0683 25.759 66.4508 25.4973C65.8332 25.2355 65.1694 25.1007 64.4987 25.1007C63.828 25.1007 63.1641 25.2355 62.5466 25.4973C61.929 25.759 61.3704 26.1422 60.904 26.6241C60.4375 27.1061 60.0727 27.6769 59.8313 28.3027C59.5899 28.9284 59.4768 29.5963 59.4987 30.2667V34.6187C55.6105 35.5643 52.0684 37.5886 49.28 40.4587L45.5467 38.2347C44.4113 37.5937 43.0706 37.4214 41.8101 37.7542C40.5495 38.0871 39.4687 38.8989 38.7978 40.0169C38.127 41.1348 37.919 42.4704 38.2183 43.7394C38.5175 45.0083 39.3003 46.1103 40.4 46.8107L44.1333 49.0613C42.8947 53.111 42.8947 57.4384 44.1333 61.488L40.4 63.7387C39.7947 64.0551 39.2607 64.4922 38.831 65.0231C38.4013 65.554 38.0849 66.1673 37.9015 66.8252C37.7181 67.4831 37.6714 68.1716 37.7645 68.8483C37.8576 69.5249 38.0883 70.1753 38.4426 70.7592C38.7968 71.3432 39.267 71.8483 39.8241 72.2435C40.3812 72.6386 41.0134 72.9153 41.6816 73.0566C42.3499 73.1979 43.04 73.2007 43.7093 73.0648C44.3787 72.9289 45.0131 72.6573 45.5733 72.2667L49.3067 70.0427C52.095 72.9127 55.6372 74.937 59.5253 75.8827V80.2667C59.5034 80.937 59.6166 81.6049 59.858 82.2307C60.0994 82.8564 60.4642 83.4272 60.9306 83.9092C61.3971 84.3911 61.9557 84.7743 62.5732 85.0361C63.1908 85.2978 63.8546 85.4327 64.5253 85.4327C65.196 85.4327 65.8599 85.2978 66.4774 85.0361C67.095 84.7743 67.6536 84.3911 68.12 83.9092C68.5865 83.4272 68.9513 82.8564 69.1927 82.2307C69.4341 81.6049 69.5472 80.937 69.5253 80.2667V75.9147C73.3274 74.9922 76.8008 73.0377 79.5627 70.2667L82.9547 72.304C84.09 72.9449 85.4307 73.1173 86.6913 72.7844C87.9518 72.4515 89.0326 71.6397 89.7035 70.5218C90.3744 69.4039 90.5823 68.0683 90.2831 66.7993C89.9838 65.5303 89.201 64.4284 88.1013 63.728L88.0747 63.7333ZM64.5013 66.5227C62.2771 66.5258 60.102 65.8695 58.2507 64.6366C56.3995 63.4038 54.9553 61.6498 54.1007 59.5963C53.2462 57.5429 53.0196 55.2821 53.4496 53.0999C53.8797 50.9177 54.947 48.9119 56.5168 47.3362C58.0865 45.7605 60.0882 44.6856 62.2688 44.2472C64.4493 43.8089 66.7109 44.0269 68.7676 44.8737C70.8243 45.7205 72.5838 47.158 73.8236 49.0046C75.0635 50.8511 75.7281 53.0238 75.7333 55.248C75.7305 58.228 74.5469 61.0855 72.4417 63.1947C70.3366 65.3039 67.4813 66.4929 64.5013 66.5013V66.5227Z" fill="#0C8CE0"/>
</svg>
