<svg width="128" height="128" viewBox="0 0 128 128" fill="none" xmlns="http://www.w3.org/2000/svg">
<g clip-path="url(#clip0_607_183)">
<path fill-rule="evenodd" clip-rule="evenodd" d="M45.0019 61.8109C50.552 65.5193 57.0771 67.4987 63.7521 67.4987C72.6999 67.4888 81.2784 63.9299 87.6055 57.6028C93.9326 51.2757 97.4915 42.6972 97.5014 33.7493C97.5014 27.0744 95.522 20.5493 91.8136 14.9992C88.1052 9.44917 82.8342 5.12344 76.6673 2.56903C70.5005 0.014623 63.7146 -0.653726 57.1679 0.648499C50.6211 1.95072 44.6076 5.16504 39.8877 9.88496C35.1677 14.6049 31.9534 20.6185 30.6512 27.1652C29.349 33.7119 30.0173 40.4978 32.5717 46.6647C35.1261 52.8315 39.4519 58.1025 45.0019 61.8109ZM50.5576 14.0025C54.4632 11.3929 59.0549 10 63.7521 10C70.0486 10.0071 76.0852 12.5115 80.5375 16.9638C84.9899 21.4162 87.4944 27.4528 87.5014 33.7493C87.5014 38.4465 86.1085 43.0382 83.4989 46.9438C80.8893 50.8493 77.1801 53.8933 72.8405 55.6909C68.5009 57.4884 63.7257 57.9587 59.1188 57.0423C54.5118 56.126 50.2801 53.8641 46.9587 50.5427C43.6373 47.2213 41.3754 42.9895 40.459 38.3826C39.5427 33.7757 40.013 29.0005 41.8105 24.6609C43.6081 20.3212 46.652 16.6121 50.5576 14.0025ZM106.586 127.62C107.193 127.871 107.842 128 108.499 128C109.155 128 109.806 127.871 110.412 127.619C111.019 127.368 111.57 126.999 112.034 126.534C112.498 126.07 112.866 125.518 113.117 124.911C113.368 124.304 113.497 123.654 113.496 122.997C113.482 110.935 108.684 99.3701 100.154 90.8405C91.6246 82.3109 80.06 77.5128 67.9973 77.4987H60.4987C48.4351 77.5128 36.8697 82.3117 28.34 90.8424C19.8102 99.3732 15.0127 110.939 15 123.003C15.0424 124.301 15.5877 125.531 16.5208 126.434C17.4538 127.337 18.7015 127.842 20 127.842C21.2985 127.842 22.5462 127.337 23.4792 126.434C24.4123 125.531 24.9576 124.301 25 123.003C25.0113 113.591 28.7549 104.569 35.4098 97.9139C42.0646 91.259 51.0873 87.5153 60.4987 87.504H68.0027C77.4141 87.5153 86.4367 91.259 93.0916 97.9139C99.7464 104.569 103.49 113.591 103.501 123.003C103.501 123.659 103.631 124.309 103.882 124.915C104.133 125.521 104.501 126.072 104.965 126.536C105.429 127 105.98 127.368 106.586 127.62Z" fill="#0C8CE0"/>
</g>
<defs>
<clipPath id="clip0_607_183">
<rect width="128" height="128" fill="white"/>
</clipPath>
</defs>
</svg>
