<svg width="128" height="128" viewBox="0 0 128 128" fill="none" xmlns="http://www.w3.org/2000/svg">
<path d="M17.8333 120.208C13.107 120.208 8.5732 118.332 5.22917 114.992C1.88513 111.652 0.00565353 107.121 0 102.394V49.3279C0.00564276 44.5991 1.88589 40.0654 5.22917 36.7212C8.57244 33.3769 13.1045 31.4951 17.8333 31.4881H26.2396C26.2076 31.0027 26.1875 30.5177 26.1875 30.0323C26.2829 23.537 28.9251 17.3393 33.5521 12.7797C38.1791 8.22017 44.4206 5.66516 50.9167 5.66516C57.4127 5.66516 63.6438 8.22017 68.2708 12.7797C72.8979 17.3393 75.5504 23.537 75.6458 30.0323C75.6458 30.5177 75.6471 31.0027 75.5938 31.4881H97.0521C101.783 31.4923 106.321 33.3727 109.667 36.7172C113.012 40.0618 114.901 44.5973 114.906 49.3279V57.6743H122.906C124.254 57.6799 125.536 58.2175 126.49 59.1704C127.443 60.1232 127.983 61.4146 127.99 62.7628V88.949C127.984 90.2976 127.454 91.5896 126.5 92.5428C125.546 93.4959 124.255 94.0333 122.906 94.0376H114.906V102.389C114.901 107.117 113.013 111.65 109.667 114.991C106.32 118.331 101.78 120.206 97.0521 120.203L17.8333 120.208ZM10.1771 102.394C10.1827 104.421 10.9913 106.363 12.4271 107.794C13.8629 109.225 15.8063 110.029 17.8333 110.027H97.0625C99.0901 110.027 101.032 109.224 102.469 107.794C103.906 106.364 104.719 104.422 104.729 102.394V94.0428H96.7292C91.9065 94.0428 87.2852 92.1274 83.875 88.7172C80.4648 85.3071 78.5417 80.6819 78.5417 75.8592C78.5417 71.0365 80.4648 66.4113 83.875 63.0011C87.2852 59.5909 91.9065 57.6743 96.7292 57.6743H104.729V49.3279C104.721 47.2984 103.915 45.355 102.479 43.9204C101.044 42.4858 99.092 41.6761 97.0625 41.6691H69.6562C69.4786 41.679 69.3026 41.679 69.125 41.6691H17.8125C15.7826 41.6733 13.8416 42.4824 12.4062 43.9178C10.9709 45.3531 10.1605 47.298 10.1562 49.3279V57.6743H29.1354L37.4271 49.3813C38.3833 48.4279 39.681 47.8936 41.0312 47.8956C42.3815 47.8976 43.6716 48.4355 44.625 49.3917C45.5784 50.3479 46.1166 51.6443 46.1146 52.9946C46.1126 54.3449 45.5708 55.6389 44.6146 56.5922L34.8333 66.3735C34.3633 66.8448 33.813 67.218 33.1979 67.4725C32.5828 67.7269 31.9157 67.8581 31.25 67.8566H10.1562V83.8566H44.3438C45.011 83.8603 45.6767 83.9947 46.2917 84.2537C46.9066 84.5127 47.4582 84.8909 47.9271 85.3657L57.7083 95.1469C58.1816 95.6178 58.5562 96.1776 58.8125 96.7941C59.0688 97.4105 59.2083 98.0705 59.2083 98.7381C59.2083 99.4057 59.0688 100.067 58.8125 100.683C58.5562 101.3 58.1816 101.86 57.7083 102.331C57.2449 102.81 56.6973 103.19 56.0833 103.449C55.4693 103.708 54.8019 103.841 54.1354 103.84C53.4627 103.841 52.7979 103.708 52.1771 103.449C51.5562 103.19 50.9932 102.81 50.5208 102.331L42.2292 94.0584H10.1562L10.1771 102.394ZM117.823 83.8396V67.8396H96.7188C94.597 67.8396 92.5628 68.6831 91.0625 70.1834C89.5622 71.6837 88.7188 73.7179 88.7188 75.8396C88.7188 77.9614 89.5622 79.9969 91.0625 81.4972C92.5628 82.9975 94.597 83.8396 96.7188 83.8396H117.823ZM65.3646 31.4881C65.4191 31.0046 65.4456 30.5189 65.4479 30.0323C65.375 26.224 63.8128 22.5957 61.0938 19.9282C58.3747 17.2607 54.7153 15.7667 50.9062 15.7667C47.0972 15.7667 43.4483 17.2607 40.7292 19.9282C38.0101 22.5957 36.4375 26.224 36.3646 30.0323C36.3669 30.5189 36.4038 31.0046 36.4583 31.4881H65.3646Z" fill="#0C8CE0"/>
</svg>
